<?xml version="1.0" encoding="UTF-8"?>
<!DOCTYPE svg PUBLIC "-//W3C//DTD SVG 1.1//EN" "http://www.w3.org/Graphics/SVG/1.1/DTD/svg11.dtd">
<svg xmlns="http://www.w3.org/2000/svg" version="1.1" width="280px" height="280px" viewBox="0 0 1393 420" style="shape-rendering:geometricPrecision; text-rendering:geometricPrecision; image-rendering:optimizeQuality; fill-rule:evenodd; clip-rule:evenodd" xmlns:xlink="http://www.w3.org/1999/xlink">
<g><path style="opacity:0.846" fill="#000000" d="M 109.5,-0.5 C 111.833,-0.5 114.167,-0.5 116.5,-0.5C 164.343,13.8502 193.843,45.5168 205,94.5C 208.825,118.173 210.658,142.006 210.5,166C 210.101,184.169 209.601,202.336 209,220.5C 201.913,268.253 175.079,298.42 128.5,311C 111.765,314.488 95.0979,314.155 78.5,310C 65.2238,305.025 52.2238,299.525 39.5,293.5C 29.6642,295.17 24.6642,301.004 24.5,311C 27.0781,342.163 40.4114,367.496 64.5,387C 76.9328,395.049 90.2661,401.215 104.5,405.5C 107.356,408.624 108.189,412.291 107,416.5C 105.855,417.636 104.688,418.636 103.5,419.5C 100.167,419.5 96.8333,419.5 93.5,419.5C 46.9906,405.151 18.1573,374.151 7,326.5C 5.20041,317.57 3.86708,308.57 3,299.5C 1.44329,268.852 1.10996,238.186 2,207.5C 6.05972,154.873 33.5597,121.706 84.5,108C 101.645,104.614 118.645,105.28 135.5,110C 147.109,114.473 158.442,119.473 169.5,125C 181.331,125.334 186.998,119.501 186.5,107.5C 181.333,58.4961 155,27.3294 107.5,14C 101.638,8.02063 102.305,3.18729 109.5,-0.5 Z M 110.5,5.5 C 142.654,11.4919 167.154,28.4919 184,56.5C 197.654,82.4238 204.32,110.09 204,139.5C 204.667,151.5 204.667,163.5 204,175.5C 197.999,158.31 188.166,143.81 174.5,132C 187.017,128.992 193.017,120.992 192.5,108C 187.61,57.1198 160.776,24.2865 112,9.5C 109.971,8.48613 109.471,7.1528 110.5,5.5 Z M 98.5,111.5 C 146.121,111.324 179.287,132.991 198,176.5C 211.944,226.012 197.778,265.178 155.5,294C 114.115,315.396 75.4478,311.396 39.5,282C 5.00677,245.87 -1.1599,205.37 21,160.5C 39.0902,131.874 64.9235,115.541 98.5,111.5 Z M 92.5,129.5 C 126.084,126.214 152.584,138.214 172,165.5C 190.076,196.217 189.409,226.551 170,256.5C 143.892,288.487 111.392,297.32 72.5,283C 46.8085,270.296 31.3085,249.796 26,221.5C 22.809,182.708 38.309,154.208 72.5,136C 79.119,133.293 85.7857,131.126 92.5,129.5 Z M 7.5,244.5 C 13.8748,261.388 23.8748,275.888 37.5,288C 24.9294,290.081 18.5961,297.581 18.5,310.5C 23.4702,362.287 50.8036,395.454 100.5,410C 101.337,411.011 101.67,412.178 101.5,413.5C 75.8884,409.441 54.7217,397.441 38,377.5C 18.4736,351.591 8.47362,322.258 8,289.5C 6.96374,274.462 6.79707,259.462 7.5,244.5 Z"/></g>
<g><path style="opacity:0.934" fill="#000000" d="M 1251.5,115.5 C 1252.5,115.47 1253.16,115.97 1253.5,117C 1278.47,178.083 1303.14,239.249 1327.5,300.5C 1324.13,300.954 1320.8,301.62 1317.5,302.5C 1316.5,302.167 1315.5,301.833 1314.5,301.5C 1304.45,277.193 1294.12,253.027 1283.5,229C 1262.17,228.5 1240.84,228.333 1219.5,228.5C 1209.97,253.25 1200.14,277.917 1190,302.5C 1186.18,303.675 1182.35,303.508 1178.5,302C 1177.98,301.439 1177.64,300.772 1177.5,300C 1202.04,238.418 1226.71,176.918 1251.5,115.5 Z M 1251.5,146.5 C 1261.02,170.224 1270.02,194.224 1278.5,218.5C 1260.49,218.833 1242.49,218.5 1224.5,217.5C 1234.1,194.032 1243.1,170.365 1251.5,146.5 Z"/></g>
<g><path style="opacity:0.928" fill="#000000" d="M 90.5,116.5 C 130.385,112.365 161.552,126.699 184,159.5C 204.264,195.664 202.93,230.997 180,265.5C 148.468,302.546 109.968,312.046 64.5,294C 30.8103,276.095 13.1436,247.928 11.5,209.5C 15.2287,159.117 41.5621,128.117 90.5,116.5 Z M 92.5,129.5 C 85.7857,131.126 79.119,133.293 72.5,136C 38.309,154.208 22.809,182.708 26,221.5C 31.3085,249.796 46.8085,270.296 72.5,283C 111.392,297.32 143.892,288.487 170,256.5C 189.409,226.551 190.076,196.217 172,165.5C 152.584,138.214 126.084,126.214 92.5,129.5 Z"/></g>
<g><path style="opacity:0.926" fill="#000000" d="M 610.5,116.5 C 636.011,113.878 659.345,119.711 680.5,134C 682.007,134.837 682.507,136.004 682,137.5C 678.974,140.026 675.807,142.36 672.5,144.5C 651.448,129.857 628.448,125.69 603.5,132C 561.795,147.223 542.628,177.056 546,221.5C 553.719,258.22 575.886,280.72 612.5,289C 637.505,291.996 659.505,285.33 678.5,269C 679.167,268.333 679.833,268.333 680.5,269C 683.237,272.067 685.571,275.401 687.5,279C 662.208,300.572 633.208,307.572 600.5,300C 557.326,285.313 534.326,255.147 531.5,209.5C 535.224,159.121 561.558,128.121 610.5,116.5 Z"/></g>
<g><path style="opacity:0.929" fill="#000000" d="M 1350.5,118.5 C 1355.17,118.5 1359.83,118.5 1364.5,118.5C 1364.5,179.167 1364.5,239.833 1364.5,300.5C 1359.83,300.5 1355.17,300.5 1350.5,300.5C 1350.5,239.833 1350.5,179.167 1350.5,118.5 Z"/></g>
<g><path style="opacity:0.934" fill="#000000" d="M 756.5,153.5 C 758.411,153.574 759.578,154.574 760,156.5C 780.052,203.271 799.552,250.271 818.5,297.5C 814.697,299.79 810.697,300.456 806.5,299.5C 798.833,282.167 791.167,264.833 783.5,247.5C 766.833,246.167 750.167,246.167 733.5,247.5C 725.558,265.05 717.892,282.717 710.5,300.5C 705.944,301.616 701.611,300.949 697.5,298.5C 717.462,250.248 737.129,201.915 756.5,153.5 Z M 757.5,184.5 C 764.771,201.463 771.771,218.63 778.5,236C 765.171,236.5 751.837,236.667 738.5,236.5C 744.438,219.02 750.771,201.687 757.5,184.5 Z"/></g>
<g><path style="opacity:0.926" fill="#000000" d="M 1012.5,153.5 C 1033.62,151.262 1052.95,156.096 1070.5,168C 1072.01,168.837 1072.51,170.004 1072,171.5C 1068.97,174.026 1065.81,176.36 1062.5,178.5C 1044.3,165.906 1024.63,163.073 1003.5,170C 972.997,184.166 960.163,208 965,241.5C 976.261,275.411 999.761,290.911 1035.5,288C 1047.04,285.398 1057.37,280.398 1066.5,273C 1067.5,272.333 1068.5,272.333 1069.5,273C 1071.67,275.167 1073.83,277.333 1076,279.5C 1076.71,281.367 1076.21,282.867 1074.5,284C 1051.25,302.248 1025.58,306.581 997.5,297C 961.792,280.093 946.625,251.927 952,212.5C 960.562,180.769 980.729,161.103 1012.5,153.5 Z"/></g>
<g><path style="opacity:0.951" fill="#000000" d="M 234.5,155.5 C 253.836,155.333 273.17,155.5 292.5,156C 317.392,164.595 328.559,182.095 326,208.5C 321.945,227.154 310.778,238.987 292.5,244C 277.504,244.5 262.504,244.667 247.5,244.5C 247.5,263.167 247.5,281.833 247.5,300.5C 243.167,300.5 238.833,300.5 234.5,300.5C 234.5,252.167 234.5,203.833 234.5,155.5 Z M 247.5,167.5 C 258.838,167.333 270.172,167.5 281.5,168C 306.367,171.542 316.533,185.709 312,210.5C 306.631,223.879 296.797,231.045 282.5,232C 270.838,232.5 259.171,232.667 247.5,232.5C 247.5,210.833 247.5,189.167 247.5,167.5 Z"/></g>
<g><path style="opacity:0.967" fill="#000000" d="M 331.5,155.5 C 373.5,155.5 415.5,155.5 457.5,155.5C 457.5,159.5 457.5,163.5 457.5,167.5C 438.5,167.5 419.5,167.5 400.5,167.5C 400.5,211.833 400.5,256.167 400.5,300.5C 396.167,300.5 391.833,300.5 387.5,300.5C 387.5,256.167 387.5,211.833 387.5,167.5C 368.833,167.5 350.167,167.5 331.5,167.5C 331.5,163.5 331.5,159.5 331.5,155.5 Z"/></g>
<g><path style="opacity:0.962" fill="#000000" d="M 477.5,155.5 C 481.833,155.5 486.167,155.5 490.5,155.5C 490.5,203.833 490.5,252.167 490.5,300.5C 486.167,300.5 481.833,300.5 477.5,300.5C 477.5,252.167 477.5,203.833 477.5,155.5 Z"/></g>
<g><path style="opacity:0.962" fill="#000000" d="M 844.5,155.5 C 848.833,155.5 853.167,155.5 857.5,155.5C 857.5,199.833 857.5,244.167 857.5,288.5C 885.167,288.5 912.833,288.5 940.5,288.5C 940.5,292.5 940.5,296.5 940.5,300.5C 908.5,300.5 876.5,300.5 844.5,300.5C 844.5,252.167 844.5,203.833 844.5,155.5 Z"/></g>
</svg>
