<?xml version="1.0" encoding="UTF-8"?>
<!DOCTYPE svg PUBLIC "-//W3C//DTD SVG 1.1//EN" "http://www.w3.org/Graphics/SVG/1.1/DTD/svg11.dtd">
<svg xmlns="http://www.w3.org/2000/svg" version="1.1" width="280px" height="280px" viewBox="0 0 640 259" style="shape-rendering:geometricPrecision; text-rendering:geometricPrecision; image-rendering:optimizeQuality; fill-rule:evenodd; clip-rule:evenodd" xmlns:xlink="http://www.w3.org/1999/xlink">
<g><path style="opacity:0.91" fill="#000000" d="M 57.5,-0.5 C 62.5,-0.5 67.5,-0.5 72.5,-0.5C 72.3337,6.17499 72.5004,12.8417 73,19.5C 82.4103,12.5128 91.4103,12.8461 100,20.5C 100.822,22.7885 101.489,25.1218 102,27.5C 102.5,38.495 102.667,49.495 102.5,60.5C 97.5,60.5 92.5,60.5 87.5,60.5C 87.6665,51.1607 87.4998,41.8274 87,32.5C 83.7965,25.7024 79.1299,24.7024 73,29.5C 72.5002,39.828 72.3335,50.1613 72.5,60.5C 67.5,60.5 62.5,60.5 57.5,60.5C 57.5,40.1667 57.5,19.8333 57.5,-0.5 Z"/></g>
<g><path style="opacity:0.917" fill="#000000" d="M -0.5,1.5 C 16.5,1.5 33.5,1.5 50.5,1.5C 50.5,5.5 50.5,9.5 50.5,13.5C 44.5,13.5 38.5,13.5 32.5,13.5C 32.5,29.1667 32.5,44.8333 32.5,60.5C 27.1667,60.5 21.8333,60.5 16.5,60.5C 16.5,44.8333 16.5,29.1667 16.5,13.5C 10.8333,13.5 5.16667,13.5 -0.5,13.5C -0.5,9.5 -0.5,5.5 -0.5,1.5 Z"/></g>
<g><path style="opacity:0.913" fill="#000000" d="M 129.5,14.5 C 149.52,11.8569 158.853,20.5236 157.5,40.5C 147.167,40.5 136.833,40.5 126.5,40.5C 126.659,46.2648 129.659,49.4315 135.5,50C 138.5,50.6667 141.5,50.6667 144.5,50C 148.53,48.3815 152.53,46.8815 156.5,45.5C 156.666,49.5138 156.499,53.5138 156,57.5C 144.617,62.6181 133.117,62.7847 121.5,58C 111.759,50.8009 108.592,41.3009 112,29.5C 115.306,21.3474 121.14,16.3474 129.5,14.5 Z M 130.5,24.5 C 133.518,24.3354 136.518,24.502 139.5,25C 141.451,26.7342 142.451,28.9009 142.5,31.5C 137.167,31.5 131.833,31.5 126.5,31.5C 126.571,28.3477 127.905,26.0144 130.5,24.5 Z"/></g>
<g><path style="opacity:0.946" fill="#000102" d="M 522.5,105.5 C 517.015,101.253 511.015,97.7527 504.5,95C 483.426,92.1162 469.259,100.616 462,120.5C 458.65,141.127 466.484,155.627 485.5,164C 492.157,165.941 498.824,165.941 505.5,164C 511.599,161.041 517.266,157.541 522.5,153.5C 525.629,157.131 528.963,160.631 532.5,164C 513.093,181.526 491.76,184.193 468.5,172C 448.121,157.871 440.954,138.704 447,114.5C 460.339,84.7507 482.839,74.2507 514.5,83C 521.41,85.9469 527.41,90.1135 532.5,95.5C 528.839,98.4939 525.506,101.827 522.5,105.5 Z"/></g>
<g><path style="opacity:0.949" fill="#000000" d="M -0.5,81.5 C 17.8887,81.0531 36.222,81.5531 54.5,83C 74.6246,91.0872 81.458,105.587 75,126.5C 69.7414,136.414 61.5747,142.581 50.5,145C 39.505,145.5 28.505,145.667 17.5,145.5C 17.5,156.5 17.5,167.5 17.5,178.5C 11.5,178.5 5.5,178.5 -0.5,178.5C -0.5,146.167 -0.5,113.833 -0.5,81.5 Z M 17.5,98.5 C 26.8393,98.3335 36.1726,98.5002 45.5,99C 57.1115,102.058 60.9448,109.225 57,120.5C 54.2041,124.636 50.3708,127.136 45.5,128C 36.1726,128.5 26.8393,128.666 17.5,128.5C 17.5,118.5 17.5,108.5 17.5,98.5 Z"/></g>
<g><path style="opacity:0.94" fill="#000000" d="M 90.5,81.5 C 114.833,81.5 139.167,81.5 163.5,81.5C 163.5,87.1667 163.5,92.8333 163.5,98.5C 145.167,98.5 126.833,98.5 108.5,98.5C 108.5,105.833 108.5,113.167 108.5,120.5C 125.167,120.5 141.833,120.5 158.5,120.5C 158.5,126.167 158.5,131.833 158.5,137.5C 141.833,137.5 125.167,137.5 108.5,137.5C 108.5,145.5 108.5,153.5 108.5,161.5C 126.833,161.5 145.167,161.5 163.5,161.5C 163.5,167.167 163.5,172.833 163.5,178.5C 139.167,178.5 114.833,178.5 90.5,178.5C 90.5,146.167 90.5,113.833 90.5,81.5 Z"/></g>
<g><path style="opacity:0.926" fill="#000000" d="M 178.5,81.5 C 197.214,81.0661 215.88,81.5661 234.5,83C 255.154,91.9334 261.654,107.1 254,128.5C 249.305,135.854 242.805,141.021 234.5,144C 242.623,155.079 250.623,166.245 258.5,177.5C 251.524,178.664 244.524,178.831 237.5,178C 230.044,167.587 222.71,157.087 215.5,146.5C 209.537,145.504 203.537,145.171 197.5,145.5C 197.5,156.5 197.5,167.5 197.5,178.5C 191.167,178.5 184.833,178.5 178.5,178.5C 178.5,146.167 178.5,113.833 178.5,81.5 Z M 197.5,98.5 C 207.912,98.0738 218.246,98.5738 228.5,100C 237.762,104.112 240.596,110.945 237,120.5C 234.736,123.433 231.902,125.6 228.5,127C 218.246,128.426 207.912,128.926 197.5,128.5C 197.5,118.5 197.5,108.5 197.5,98.5 Z"/></g>
<g><path style="opacity:0.943" fill="#000000" d="M 272.5,81.5 C 296.833,81.5 321.167,81.5 345.5,81.5C 345.5,87.1667 345.5,92.8333 345.5,98.5C 327.167,98.5 308.833,98.5 290.5,98.5C 290.5,106.167 290.5,113.833 290.5,121.5C 307.167,121.5 323.833,121.5 340.5,121.5C 340.5,127.167 340.5,132.833 340.5,138.5C 323.833,138.5 307.167,138.5 290.5,138.5C 290.5,151.833 290.5,165.167 290.5,178.5C 284.5,178.5 278.5,178.5 272.5,178.5C 272.5,146.167 272.5,113.833 272.5,81.5 Z"/></g>
<g><path style="opacity:0.931" fill="#000000" d="M 359.5,81.5 C 383.833,81.5 408.167,81.5 432.5,81.5C 432.5,87.1667 432.5,92.8333 432.5,98.5C 414.5,98.5 396.5,98.5 378.5,98.5C 378.5,105.833 378.5,113.167 378.5,120.5C 394.833,120.5 411.167,120.5 427.5,120.5C 427.5,126.167 427.5,131.833 427.5,137.5C 411.167,137.5 394.833,137.5 378.5,137.5C 378.5,145.5 378.5,153.5 378.5,161.5C 396.5,161.5 414.5,161.5 432.5,161.5C 432.5,167.167 432.5,172.833 432.5,178.5C 408.167,178.5 383.833,178.5 359.5,178.5C 359.5,146.167 359.5,113.833 359.5,81.5 Z"/></g>
<g><path style="opacity:0.947" fill="#000000" d="M 639.5,81.5 C 639.5,87.1667 639.5,92.8333 639.5,98.5C 629.5,98.5 619.5,98.5 609.5,98.5C 609.5,125.167 609.5,151.833 609.5,178.5C 603.5,178.5 597.5,178.5 591.5,178.5C 591.5,151.833 591.5,125.167 591.5,98.5C 581.167,98.5 570.833,98.5 560.5,98.5C 560.5,92.8333 560.5,87.1667 560.5,81.5C 586.833,81.5 613.167,81.5 639.5,81.5 Z"/></g>
<g><path style="opacity:0.913" fill="#2c80e9" d="M 522.5,105.5 C 541.104,121.562 541.104,137.562 522.5,153.5C 517.266,157.541 511.599,161.041 505.5,164C 498.824,165.941 492.157,165.941 485.5,164C 466.484,155.627 458.65,141.127 462,120.5C 469.259,100.616 483.426,92.1162 504.5,95C 511.015,97.7527 517.015,101.253 522.5,105.5 Z M 489.5,98.5 C 497.814,97.662 505.481,99.4954 512.5,104C 517.429,108.384 522.262,112.884 527,117.5C 532.551,124.917 532.884,132.583 528,140.5C 522.828,146.005 517.328,151.172 511.5,156C 489.084,165.377 473.917,158.543 466,135.5C 464.741,117.282 472.574,104.948 489.5,98.5 Z"/></g>
<g><path style="opacity:0.96" fill="#000000" d="M 226.5,199.5 C 243.5,199.5 260.5,199.5 277.5,199.5C 277.5,203.5 277.5,207.5 277.5,211.5C 271.5,211.5 265.5,211.5 259.5,211.5C 259.5,226.833 259.5,242.167 259.5,257.5C 254.5,257.5 249.5,257.5 244.5,257.5C 244.5,242.167 244.5,226.833 244.5,211.5C 238.5,211.5 232.5,211.5 226.5,211.5C 226.5,207.5 226.5,203.5 226.5,199.5 Z"/></g>
<g><path style="opacity:0.958" fill="#000000" d="M 409.5,258.5 C 404.833,258.5 400.167,258.5 395.5,258.5C 390.76,257.858 387.593,255.192 386,250.5C 385.5,241.506 385.334,232.506 385.5,223.5C 383.5,223.5 381.5,223.5 379.5,223.5C 379.5,220.167 379.5,216.833 379.5,213.5C 381.5,213.5 383.5,213.5 385.5,213.5C 385.5,209.5 385.5,205.5 385.5,201.5C 390.167,201.5 394.833,201.5 399.5,201.5C 399.5,205.5 399.5,209.5 399.5,213.5C 403.833,213.5 408.167,213.5 412.5,213.5C 412.5,216.833 412.5,220.167 412.5,223.5C 408.167,223.5 403.833,223.5 399.5,223.5C 399.104,231.253 399.604,238.92 401,246.5C 404.459,249.08 407.959,249.08 411.5,246.5C 412.489,250.107 412.823,253.774 412.5,257.5C 411.209,257.263 410.209,257.596 409.5,258.5 Z"/></g>
<g><path style="opacity:0.913" fill="#000000" d="M 319.5,258.5 C 312.833,258.5 306.167,258.5 299.5,258.5C 286.187,254.576 280.353,245.576 282,231.5C 284.585,218.11 292.752,211.777 306.5,212.5C 323.444,212.791 330.778,221.457 328.5,238.5C 317.828,238.333 307.161,238.5 296.5,239C 298.898,245.375 303.564,248.541 310.5,248.5C 316.428,247.409 322.095,245.743 327.5,243.5C 327.824,247.555 327.491,251.555 326.5,255.5C 323.984,256.33 321.65,257.33 319.5,258.5 Z M 303.5,221.5 C 309.557,220.899 312.89,223.565 313.5,229.5C 307.824,229.666 302.157,229.499 296.5,229C 297.686,225.318 300.019,222.818 303.5,221.5 Z"/></g>
<g><path style="opacity:0.907" fill="#000000" d="M 362.5,258.5 C 355.833,258.5 349.167,258.5 342.5,258.5C 340.067,257.587 337.567,256.587 335,255.5C 334.501,251.514 334.334,247.514 334.5,243.5C 338.802,244.979 343.135,246.479 347.5,248C 351.558,248.767 355.558,248.6 359.5,247.5C 360.731,246.349 360.731,245.183 359.5,244C 352.136,242.664 345.136,240.331 338.5,237C 331.524,224.933 334.858,216.933 348.5,213C 356.663,211.95 364.663,212.617 372.5,215C 373.798,219.118 373.798,223.285 372.5,227.5C 366.198,223.214 359.364,221.881 352,223.5C 350.831,224.009 349.998,224.842 349.5,226C 351.221,227.527 353.221,228.527 355.5,229C 359.896,229.746 364.23,230.746 368.5,232C 375.07,235.655 377.237,241.155 375,248.5C 374.333,249.833 373.667,251.167 373,252.5C 369.649,254.921 366.149,256.921 362.5,258.5 Z"/></g>
</svg>
