<svg width="500" height="15" viewBox="0 0 500 15" fill="none" xmlns="http://www.w3.org/2000/svg">
<path d="M8.33097 6.21733H6.73722C6.69176 5.95597 6.60795 5.72443 6.4858 5.52273C6.36364 5.31818 6.21165 5.14489 6.02983 5.00284C5.84801 4.8608 5.64063 4.75426 5.40767 4.68324C5.17756 4.60938 4.92898 4.57244 4.66193 4.57244C4.1875 4.57244 3.76705 4.69176 3.40057 4.9304C3.03409 5.16619 2.74716 5.51278 2.53977 5.97017C2.33239 6.42472 2.22869 6.98011 2.22869 7.63636C2.22869 8.30398 2.33239 8.86648 2.53977 9.32386C2.75 9.77841 3.03693 10.1222 3.40057 10.3551C3.76705 10.5852 4.18608 10.7003 4.65767 10.7003C4.91903 10.7003 5.16335 10.6662 5.39062 10.598C5.62074 10.527 5.8267 10.4233 6.00852 10.2869C6.19318 10.1506 6.34801 9.98295 6.47301 9.78409C6.60085 9.58523 6.68892 9.35795 6.73722 9.10227L8.33097 9.1108C8.27131 9.52557 8.14205 9.91477 7.94318 10.2784C7.74716 10.642 7.49006 10.9631 7.17188 11.2415C6.85369 11.517 6.48153 11.733 6.0554 11.8892C5.62926 12.0426 5.15625 12.1193 4.63636 12.1193C3.86932 12.1193 3.18466 11.9418 2.58239 11.5866C1.98011 11.2315 1.50568 10.7188 1.15909 10.0483C0.8125 9.37784 0.639205 8.57386 0.639205 7.63636C0.639205 6.69602 0.81392 5.89205 1.16335 5.22443C1.51278 4.55398 1.98864 4.04119 2.59091 3.68608C3.19318 3.33097 3.875 3.15341 4.63636 3.15341C5.12216 3.15341 5.57386 3.22159 5.99148 3.35795C6.40909 3.49432 6.78125 3.6946 7.10795 3.95881C7.43466 4.22017 7.70313 4.54119 7.91335 4.92188C8.12642 5.29972 8.26563 5.73153 8.33097 6.21733ZM16.1657 12.1278C15.5265 12.1278 14.9725 11.9872 14.5038 11.706C14.035 11.4247 13.6714 11.0312 13.4129 10.5256C13.1572 10.0199 13.0293 9.42898 13.0293 8.75284C13.0293 8.0767 13.1572 7.48437 13.4129 6.97585C13.6714 6.46733 14.035 6.07244 14.5038 5.79119C14.9725 5.50994 15.5265 5.36932 16.1657 5.36932C16.8049 5.36932 17.3589 5.50994 17.8276 5.79119C18.2964 6.07244 18.6586 6.46733 18.9143 6.97585C19.1728 7.48437 19.3021 8.0767 19.3021 8.75284C19.3021 9.42898 19.1728 10.0199 18.9143 10.5256C18.6586 11.0312 18.2964 11.4247 17.8276 11.706C17.3589 11.9872 16.8049 12.1278 16.1657 12.1278ZM16.1742 10.892C16.5208 10.892 16.8106 10.7969 17.0435 10.6065C17.2765 10.4134 17.4498 10.1548 17.5634 9.83097C17.6799 9.5071 17.7381 9.14631 17.7381 8.74858C17.7381 8.34801 17.6799 7.9858 17.5634 7.66193C17.4498 7.33523 17.2765 7.07528 17.0435 6.8821C16.8106 6.68892 16.5208 6.59233 16.1742 6.59233C15.8191 6.59233 15.5237 6.68892 15.2879 6.8821C15.0549 7.07528 14.8802 7.33523 14.7637 7.66193C14.6501 7.9858 14.5933 8.34801 14.5933 8.74858C14.5933 9.14631 14.6501 9.5071 14.7637 9.83097C14.8802 10.1548 15.0549 10.4134 15.2879 10.6065C15.5237 10.7969 15.8191 10.892 16.1742 10.892ZM24.2114 14.4545V5.45455H25.7284V6.53693H25.8179C25.8974 6.37784 26.0097 6.20881 26.1545 6.02983C26.2994 5.84801 26.4955 5.69318 26.7426 5.56534C26.9898 5.43466 27.3051 5.36932 27.6886 5.36932C28.1943 5.36932 28.6503 5.49858 29.0565 5.7571C29.4656 6.01278 29.7895 6.39205 30.0281 6.89489C30.2696 7.39489 30.3903 8.00852 30.3903 8.7358C30.3903 9.45455 30.2724 10.0653 30.0366 10.5682C29.8009 11.071 29.4798 11.4545 29.0736 11.7188C28.6673 11.983 28.2071 12.1151 27.6929 12.1151C27.3179 12.1151 27.0068 12.0526 26.7597 11.9276C26.5125 11.8026 26.3136 11.652 26.1631 11.4759C26.0153 11.2969 25.9003 11.1278 25.8179 10.9688H25.754V14.4545H24.2114ZM25.7241 8.72727C25.7241 9.15057 25.7838 9.52131 25.9031 9.83949C26.0253 10.1577 26.2 10.4062 26.4273 10.5852C26.6574 10.7614 26.9358 10.8494 27.2625 10.8494C27.6034 10.8494 27.8889 10.7585 28.119 10.5767C28.3491 10.392 28.5224 10.1406 28.6389 9.82244C28.7582 9.50142 28.8179 9.13636 28.8179 8.72727C28.8179 8.32102 28.7597 7.96023 28.6432 7.64489C28.5267 7.32955 28.3534 7.08239 28.1233 6.90341C27.8932 6.72443 27.6063 6.63494 27.2625 6.63494C26.933 6.63494 26.6531 6.72159 26.423 6.89489C26.1929 7.06818 26.0182 7.31108 25.8989 7.62358C25.7824 7.93608 25.7241 8.30398 25.7241 8.72727ZM36.0475 14.4545C35.8373 14.4545 35.6427 14.4375 35.4637 14.4034C35.2876 14.3722 35.1469 14.3352 35.0418 14.2926L35.3998 13.0909C35.6242 13.1563 35.8245 13.1875 36.0006 13.1847C36.1768 13.1818 36.3316 13.1264 36.4651 13.0185C36.6015 12.9134 36.7165 12.7372 36.8103 12.4901L36.9424 12.1364L34.5688 5.45455H36.2052L37.7137 10.3977H37.7819L39.2947 5.45455H40.9353L38.3146 12.7926C38.1924 13.1392 38.0305 13.4361 37.8288 13.6832C37.6271 13.9332 37.3799 14.1236 37.0873 14.2543C36.7975 14.3878 36.4509 14.4545 36.0475 14.4545ZM45.6028 12V5.45455H47.0985V6.54545H47.1667C47.286 6.16761 47.4906 5.87642 47.7803 5.67188C48.0729 5.46449 48.4067 5.3608 48.7817 5.3608C48.867 5.3608 48.9621 5.36506 49.0673 5.37358C49.1752 5.37926 49.2647 5.3892 49.3357 5.40341V6.82244C49.2704 6.79972 49.1667 6.77983 49.0246 6.76278C48.8854 6.7429 48.7505 6.73295 48.6198 6.73295C48.3386 6.73295 48.0857 6.79403 47.8613 6.91619C47.6397 7.03551 47.465 7.2017 47.3371 7.41477C47.2093 7.62784 47.1454 7.87358 47.1454 8.15199V12H45.6028ZM53.9606 12V5.45455H55.5032V12H53.9606ZM54.7362 4.52557C54.4918 4.52557 54.2816 4.4446 54.1055 4.28267C53.9293 4.1179 53.8413 3.92045 53.8413 3.69034C53.8413 3.45739 53.9293 3.25994 54.1055 3.09801C54.2816 2.93324 54.4918 2.85085 54.7362 2.85085C54.9833 2.85085 55.1935 2.93324 55.3668 3.09801C55.543 3.25994 55.631 3.45739 55.631 3.69034C55.631 3.92045 55.543 4.1179 55.3668 4.28267C55.1935 4.4446 54.9833 4.52557 54.7362 4.52557ZM63.5361 14.5909C62.9821 14.5909 62.5062 14.5156 62.1085 14.3651C61.7108 14.2173 61.3912 14.0185 61.1497 13.7685C60.9082 13.5185 60.7406 13.2415 60.6469 12.9375L62.0361 12.6009C62.0986 12.7287 62.1895 12.8551 62.3088 12.9801C62.4281 13.108 62.5886 13.2131 62.7903 13.2955C62.9949 13.3807 63.252 13.4233 63.5616 13.4233C63.9991 13.4233 64.3614 13.3168 64.6483 13.1037C64.9352 12.8935 65.0787 12.5469 65.0787 12.0639V10.8239H65.002C64.9224 10.983 64.806 11.1463 64.6526 11.3139C64.502 11.4815 64.3017 11.6222 64.0517 11.7358C63.8045 11.8494 63.4935 11.9062 63.1185 11.9062C62.6156 11.9062 62.1597 11.7884 61.7506 11.5526C61.3443 11.3139 61.0205 10.9588 60.779 10.4872C60.5403 10.0128 60.421 9.41903 60.421 8.70597C60.421 7.98722 60.5403 7.38068 60.779 6.88636C61.0205 6.3892 61.3457 6.01278 61.7548 5.7571C62.1639 5.49858 62.6199 5.36932 63.1227 5.36932C63.5062 5.36932 63.8216 5.43466 64.0687 5.56534C64.3187 5.69318 64.5176 5.84801 64.6653 6.02983C64.8131 6.20881 64.9253 6.37784 65.002 6.53693H65.0872V5.45455H66.6085V12.1065C66.6085 12.6662 66.475 13.1293 66.208 13.4957C65.9409 13.8622 65.5759 14.1364 65.1128 14.3182C64.6497 14.5 64.1241 14.5909 63.5361 14.5909ZM63.5489 10.696C63.8756 10.696 64.154 10.6165 64.3841 10.4574C64.6142 10.2983 64.7889 10.0696 64.9082 9.77131C65.0276 9.47301 65.0872 9.11506 65.0872 8.69744C65.0872 8.28551 65.0276 7.92472 64.9082 7.61506C64.7918 7.3054 64.6185 7.06534 64.3884 6.89489C64.1611 6.72159 63.8812 6.63494 63.5489 6.63494C63.2051 6.63494 62.9182 6.72443 62.6881 6.90341C62.458 7.08239 62.2847 7.32812 62.1682 7.64062C62.0517 7.95028 61.9935 8.30256 61.9935 8.69744C61.9935 9.09801 62.0517 9.44886 62.1682 9.75C62.2875 10.0483 62.4622 10.2812 62.6923 10.4489C62.9253 10.6136 63.2108 10.696 63.5489 10.696ZM73.3321 8.16477V12H71.7895V3.27273H73.298V6.56676H73.3747C73.5281 6.19744 73.7653 5.90625 74.0864 5.69318C74.4102 5.47727 74.8222 5.36932 75.3222 5.36932C75.7767 5.36932 76.173 5.46449 76.5111 5.65483C76.8491 5.84517 77.1105 6.12358 77.2952 6.49006C77.4827 6.85653 77.5764 7.30398 77.5764 7.83239V12H76.0338V8.07102C76.0338 7.63068 75.9202 7.28835 75.6929 7.04403C75.4685 6.79687 75.1531 6.6733 74.7469 6.6733C74.4741 6.6733 74.2298 6.73295 74.0139 6.85227C73.8008 6.96875 73.6332 7.13778 73.5111 7.35938C73.3918 7.58097 73.3321 7.84943 73.3321 8.16477ZM86.0173 5.45455V6.64773H82.2545V5.45455H86.0173ZM83.1835 3.88636H84.7261V10.0312C84.7261 10.2386 84.7574 10.3977 84.8199 10.5085C84.8852 10.6165 84.9705 10.6903 85.0756 10.7301C85.1807 10.7699 85.2972 10.7898 85.425 10.7898C85.5216 10.7898 85.6097 10.7827 85.6892 10.7685C85.7716 10.7543 85.8341 10.7415 85.8767 10.7301L86.1367 11.9361C86.0543 11.9645 85.9364 11.9957 85.783 12.0298C85.6324 12.0639 85.4477 12.0838 85.229 12.0895C84.8426 12.1009 84.4946 12.0426 84.1849 11.9148C83.8753 11.7841 83.6295 11.5824 83.4477 11.3097C83.2688 11.0369 83.1807 10.696 83.1835 10.2869V3.88636ZM97.467 12V10.858L100.497 7.88778C100.787 7.59517 101.028 7.33523 101.221 7.10795C101.414 6.88068 101.559 6.66051 101.656 6.44744C101.752 6.23437 101.801 6.0071 101.801 5.76562C101.801 5.49006 101.738 5.25426 101.613 5.05824C101.488 4.85938 101.316 4.70597 101.098 4.59801C100.879 4.49006 100.63 4.43608 100.352 4.43608C100.065 4.43608 99.8136 4.49574 99.5977 4.61506C99.3817 4.73153 99.2141 4.89773 99.0948 5.11364C98.9783 5.32955 98.9201 5.58665 98.9201 5.88494H97.4158C97.4158 5.33097 97.5423 4.84943 97.7951 4.44034C98.0479 4.03125 98.396 3.71449 98.8391 3.49006C99.2852 3.26562 99.7965 3.15341 100.373 3.15341C100.958 3.15341 101.473 3.26278 101.916 3.48153C102.359 3.70028 102.703 4 102.947 4.38068C103.194 4.76136 103.318 5.19602 103.318 5.68466C103.318 6.01136 103.255 6.33239 103.13 6.64773C103.005 6.96307 102.785 7.3125 102.47 7.69602C102.157 8.07955 101.718 8.54403 101.153 9.08949L99.6488 10.6193V10.679H103.45V12H97.467ZM111.746 12.1662C111.044 12.1662 110.442 11.9886 109.939 11.6335C109.439 11.2756 109.054 10.7599 108.784 10.0866C108.517 9.41051 108.384 8.59659 108.384 7.64489C108.387 6.69318 108.522 5.88352 108.789 5.21591C109.058 4.54545 109.443 4.03409 109.943 3.68182C110.446 3.32955 111.047 3.15341 111.746 3.15341C112.445 3.15341 113.046 3.32955 113.549 3.68182C114.051 4.03409 114.436 4.54545 114.703 5.21591C114.973 5.88636 115.108 6.69602 115.108 7.64489C115.108 8.59943 114.973 9.41477 114.703 10.0909C114.436 10.7642 114.051 11.2784 113.549 11.6335C113.049 11.9886 112.448 12.1662 111.746 12.1662ZM111.746 10.8324C112.291 10.8324 112.722 10.5639 113.037 10.027C113.355 9.48722 113.514 8.69318 113.514 7.64489C113.514 6.9517 113.442 6.36932 113.297 5.89773C113.152 5.42614 112.948 5.07102 112.683 4.83239C112.419 4.59091 112.107 4.47017 111.746 4.47017C111.203 4.47017 110.774 4.74006 110.459 5.27983C110.144 5.81676 109.985 6.60511 109.982 7.64489C109.979 8.34091 110.049 8.92614 110.191 9.40057C110.335 9.875 110.54 10.233 110.804 10.4744C111.068 10.7131 111.382 10.8324 111.746 10.8324ZM120.124 12V10.858L123.154 7.88778C123.444 7.59517 123.685 7.33523 123.878 7.10795C124.071 6.88068 124.216 6.66051 124.313 6.44744C124.41 6.23437 124.458 6.0071 124.458 5.76562C124.458 5.49006 124.395 5.25426 124.27 5.05824C124.145 4.85938 123.973 4.70597 123.755 4.59801C123.536 4.49006 123.287 4.43608 123.009 4.43608C122.722 4.43608 122.471 4.49574 122.255 4.61506C122.039 4.73153 121.871 4.89773 121.752 5.11364C121.635 5.32955 121.577 5.58665 121.577 5.88494H120.073C120.073 5.33097 120.199 4.84943 120.452 4.44034C120.705 4.03125 121.053 3.71449 121.496 3.49006C121.942 3.26562 122.454 3.15341 123.03 3.15341C123.615 3.15341 124.13 3.26278 124.573 3.48153C125.016 3.70028 125.36 4 125.604 4.38068C125.851 4.76136 125.975 5.19602 125.975 5.68466C125.975 6.01136 125.912 6.33239 125.787 6.64773C125.662 6.96307 125.442 7.3125 125.127 7.69602C124.814 8.07955 124.375 8.54403 123.81 9.08949L122.306 10.6193V10.679H126.107V12H120.124ZM131.177 12V10.858L134.207 7.88778C134.497 7.59517 134.738 7.33523 134.931 7.10795C135.125 6.88068 135.269 6.66051 135.366 6.44744C135.463 6.23437 135.511 6.0071 135.511 5.76562C135.511 5.49006 135.448 5.25426 135.323 5.05824C135.198 4.85938 135.027 4.70597 134.808 4.59801C134.589 4.49006 134.34 4.43608 134.062 4.43608C133.775 4.43608 133.524 4.49574 133.308 4.61506C133.092 4.73153 132.924 4.89773 132.805 5.11364C132.688 5.32955 132.63 5.58665 132.63 5.88494H131.126C131.126 5.33097 131.252 4.84943 131.505 4.44034C131.758 4.03125 132.106 3.71449 132.549 3.49006C132.995 3.26562 133.507 3.15341 134.083 3.15341C134.669 3.15341 135.183 3.26278 135.626 3.48153C136.069 3.70028 136.413 4 136.657 4.38068C136.904 4.76136 137.028 5.19602 137.028 5.68466C137.028 6.01136 136.965 6.33239 136.84 6.64773C136.715 6.96307 136.495 7.3125 136.18 7.69602C135.867 8.07955 135.429 8.54403 134.863 9.08949L133.359 10.6193V10.679H137.16V12H131.177ZM148.892 3.27273H150.827L153.418 9.59659H153.52L156.111 3.27273H158.045V12H156.528V6.00426H156.447L154.036 11.9744H152.902L150.49 5.99148H150.409V12H148.892V3.27273ZM165.182 12.1321C164.768 12.1321 164.394 12.0582 164.062 11.9105C163.732 11.7599 163.471 11.5384 163.278 11.2457C163.087 10.9531 162.992 10.5923 162.992 10.1634C162.992 9.79403 163.06 9.48864 163.197 9.24716C163.333 9.00568 163.519 8.8125 163.755 8.66761C163.991 8.52273 164.256 8.41335 164.552 8.33949C164.85 8.26278 165.158 8.20739 165.476 8.1733C165.86 8.13352 166.171 8.09801 166.41 8.06676C166.648 8.03267 166.822 7.98153 166.93 7.91335C167.04 7.84233 167.096 7.73295 167.096 7.58523V7.55966C167.096 7.23864 167.001 6.99006 166.81 6.81392C166.62 6.63778 166.346 6.54972 165.988 6.54972C165.61 6.54972 165.31 6.6321 165.089 6.79688C164.87 6.96165 164.722 7.15625 164.645 7.38068L163.205 7.17614C163.319 6.77841 163.506 6.44602 163.768 6.17898C164.029 5.90909 164.349 5.70739 164.726 5.57386C165.104 5.4375 165.522 5.36932 165.979 5.36932C166.295 5.36932 166.609 5.40625 166.921 5.48011C167.234 5.55398 167.519 5.67614 167.778 5.84659C168.036 6.0142 168.243 6.2429 168.4 6.53267C168.559 6.82244 168.638 7.18466 168.638 7.61932V12H167.155V11.1009H167.104C167.011 11.2827 166.878 11.4531 166.708 11.6122C166.54 11.7685 166.329 11.8949 166.073 11.9915C165.82 12.0852 165.523 12.1321 165.182 12.1321ZM165.583 10.9986C165.893 10.9986 166.161 10.9375 166.388 10.8153C166.616 10.6903 166.79 10.5256 166.913 10.321C167.038 10.1165 167.1 9.89347 167.1 9.65199V8.88068C167.052 8.92045 166.969 8.95739 166.853 8.99148C166.739 9.02557 166.611 9.0554 166.469 9.08097C166.327 9.10653 166.187 9.12926 166.047 9.14915C165.908 9.16903 165.788 9.18608 165.685 9.20028C165.455 9.23153 165.249 9.28267 165.067 9.35369C164.886 9.42472 164.742 9.52415 164.637 9.65199C164.532 9.77699 164.479 9.93892 164.479 10.1378C164.479 10.4219 164.583 10.6364 164.79 10.7812C164.998 10.9261 165.262 10.9986 165.583 10.9986ZM177.058 5.45455V6.64773H173.295V5.45455H177.058ZM174.224 3.88636H175.767V10.0312C175.767 10.2386 175.798 10.3977 175.861 10.5085C175.926 10.6165 176.011 10.6903 176.116 10.7301C176.221 10.7699 176.338 10.7898 176.466 10.7898C176.562 10.7898 176.65 10.7827 176.73 10.7685C176.812 10.7543 176.875 10.7415 176.917 10.7301L177.177 11.9361C177.095 11.9645 176.977 11.9957 176.824 12.0298C176.673 12.0639 176.488 12.0838 176.27 12.0895C175.883 12.1009 175.535 12.0426 175.226 11.9148C174.916 11.7841 174.67 11.5824 174.488 11.3097C174.309 11.0369 174.221 10.696 174.224 10.2869V3.88636ZM185.217 5.45455V6.64773H181.454V5.45455H185.217ZM182.383 3.88636H183.925V10.0312C183.925 10.2386 183.957 10.3977 184.019 10.5085C184.084 10.6165 184.17 10.6903 184.275 10.7301C184.38 10.7699 184.496 10.7898 184.624 10.7898C184.721 10.7898 184.809 10.7827 184.888 10.7685C184.971 10.7543 185.033 10.7415 185.076 10.7301L185.336 11.9361C185.253 11.9645 185.136 11.9957 184.982 12.0298C184.832 12.0639 184.647 12.0838 184.428 12.0895C184.042 12.1009 183.694 12.0426 183.384 11.9148C183.075 11.7841 182.829 11.5824 182.647 11.3097C182.468 11.0369 182.38 10.696 182.383 10.2869V3.88636ZM196.751 12V3.27273H198.332V6.96733H202.376V3.27273H203.962V12H202.376V8.29261H198.332V12H196.751ZM209.213 12V5.45455H210.756V12H209.213ZM209.988 4.52557C209.744 4.52557 209.534 4.4446 209.358 4.28267C209.182 4.1179 209.094 3.92045 209.094 3.69034C209.094 3.45739 209.182 3.25994 209.358 3.09801C209.534 2.93324 209.744 2.85085 209.988 2.85085C210.236 2.85085 210.446 2.93324 210.619 3.09801C210.795 3.25994 210.883 3.45739 210.883 3.69034C210.883 3.92045 210.795 4.1179 210.619 4.28267C210.446 4.4446 210.236 4.52557 209.988 4.52557ZM215.942 12V5.45455H217.438V6.54545H217.506C217.625 6.16761 217.83 5.87642 218.119 5.67188C218.412 5.46449 218.746 5.3608 219.121 5.3608C219.206 5.3608 219.301 5.36506 219.406 5.37358C219.514 5.37926 219.604 5.3892 219.675 5.40341V6.82244C219.609 6.79972 219.506 6.77983 219.364 6.76278C219.225 6.7429 219.09 6.73295 218.959 6.73295C218.678 6.73295 218.425 6.79403 218.2 6.91619C217.979 7.03551 217.804 7.2017 217.676 7.41477C217.548 7.62784 217.484 7.87358 217.484 8.15199V12H215.942ZM226.066 12.1321C225.651 12.1321 225.278 12.0582 224.945 11.9105C224.616 11.7599 224.354 11.5384 224.161 11.2457C223.971 10.9531 223.876 10.5923 223.876 10.1634C223.876 9.79403 223.944 9.48864 224.08 9.24716C224.217 9.00568 224.403 8.8125 224.638 8.66761C224.874 8.52273 225.14 8.41335 225.435 8.33949C225.734 8.26278 226.042 8.20739 226.36 8.1733C226.744 8.13352 227.055 8.09801 227.293 8.06676C227.532 8.03267 227.705 7.98153 227.813 7.91335C227.924 7.84233 227.979 7.73295 227.979 7.58523V7.55966C227.979 7.23864 227.884 6.99006 227.694 6.81392C227.503 6.63778 227.229 6.54972 226.871 6.54972C226.494 6.54972 226.194 6.6321 225.972 6.79688C225.753 6.96165 225.606 7.15625 225.529 7.38068L224.089 7.17614C224.202 6.77841 224.39 6.44602 224.651 6.17898C224.913 5.90909 225.232 5.70739 225.61 5.57386C225.988 5.4375 226.405 5.36932 226.863 5.36932C227.178 5.36932 227.492 5.40625 227.805 5.48011C228.117 5.55398 228.403 5.67614 228.661 5.84659C228.92 6.0142 229.127 6.2429 229.283 6.53267C229.442 6.82244 229.522 7.18466 229.522 7.61932V12H228.039V11.1009H227.988C227.894 11.2827 227.762 11.4531 227.592 11.6122C227.424 11.7685 227.212 11.8949 226.957 11.9915C226.704 12.0852 226.407 12.1321 226.066 12.1321ZM226.467 10.9986C226.776 10.9986 227.045 10.9375 227.272 10.8153C227.499 10.6903 227.674 10.5256 227.796 10.321C227.921 10.1165 227.984 9.89347 227.984 9.65199V8.88068C227.935 8.92045 227.853 8.95739 227.736 8.99148C227.623 9.02557 227.495 9.0554 227.353 9.08097C227.211 9.10653 227.07 9.12926 226.931 9.14915C226.792 9.16903 226.671 9.18608 226.569 9.20028C226.339 9.23153 226.133 9.28267 225.951 9.35369C225.769 9.42472 225.626 9.52415 225.521 9.65199C225.415 9.77699 225.363 9.93892 225.363 10.1378C225.363 10.4219 225.467 10.6364 225.674 10.7812C225.881 10.9261 226.146 10.9986 226.467 10.9986ZM234.741 12V3.27273H236.284V6.53693H236.348C236.427 6.37784 236.54 6.20881 236.684 6.02983C236.829 5.84801 237.025 5.69318 237.273 5.56534C237.52 5.43466 237.835 5.36932 238.219 5.36932C238.724 5.36932 239.18 5.49858 239.586 5.7571C239.996 6.01278 240.319 6.39205 240.558 6.89489C240.799 7.39489 240.92 8.00852 240.92 8.7358C240.92 9.45455 240.802 10.0653 240.567 10.5682C240.331 11.071 240.01 11.4545 239.603 11.7188C239.197 11.983 238.737 12.1151 238.223 12.1151C237.848 12.1151 237.537 12.0526 237.29 11.9276C237.042 11.8026 236.844 11.652 236.693 11.4759C236.545 11.2969 236.43 11.1278 236.348 10.9688H236.258V12H234.741ZM236.254 8.72727C236.254 9.15057 236.314 9.52131 236.433 9.83949C236.555 10.1577 236.73 10.4062 236.957 10.5852C237.187 10.7614 237.466 10.8494 237.792 10.8494C238.133 10.8494 238.419 10.7585 238.649 10.5767C238.879 10.392 239.052 10.1406 239.169 9.82244C239.288 9.50142 239.348 9.13636 239.348 8.72727C239.348 8.32102 239.29 7.96023 239.173 7.64489C239.057 7.32955 238.883 7.08239 238.653 6.90341C238.423 6.72443 238.136 6.63494 237.792 6.63494C237.463 6.63494 237.183 6.72159 236.953 6.89489C236.723 7.06818 236.548 7.31108 236.429 7.62358C236.312 7.93608 236.254 8.30398 236.254 8.72727ZM247.715 12.1321C247.3 12.1321 246.927 12.0582 246.594 11.9105C246.265 11.7599 246.004 11.5384 245.81 11.2457C245.62 10.9531 245.525 10.5923 245.525 10.1634C245.525 9.79403 245.593 9.48864 245.729 9.24716C245.866 9.00568 246.052 8.8125 246.288 8.66761C246.523 8.52273 246.789 8.41335 247.085 8.33949C247.383 8.26278 247.691 8.20739 248.009 8.1733C248.393 8.13352 248.704 8.09801 248.942 8.06676C249.181 8.03267 249.354 7.98153 249.462 7.91335C249.573 7.84233 249.629 7.73295 249.629 7.58523V7.55966C249.629 7.23864 249.533 6.99006 249.343 6.81392C249.153 6.63778 248.879 6.54972 248.521 6.54972C248.143 6.54972 247.843 6.6321 247.621 6.79688C247.403 6.96165 247.255 7.15625 247.178 7.38068L245.738 7.17614C245.852 6.77841 246.039 6.44602 246.3 6.17898C246.562 5.90909 246.881 5.70739 247.259 5.57386C247.637 5.4375 248.055 5.36932 248.512 5.36932C248.827 5.36932 249.141 5.40625 249.454 5.48011C249.766 5.55398 250.052 5.67614 250.31 5.84659C250.569 6.0142 250.776 6.2429 250.933 6.53267C251.092 6.82244 251.171 7.18466 251.171 7.61932V12H249.688V11.1009H249.637C249.543 11.2827 249.411 11.4531 249.241 11.6122C249.073 11.7685 248.862 11.8949 248.606 11.9915C248.353 12.0852 248.056 12.1321 247.715 12.1321ZM248.116 10.9986C248.425 10.9986 248.694 10.9375 248.921 10.8153C249.148 10.6903 249.323 10.5256 249.445 10.321C249.57 10.1165 249.633 9.89347 249.633 9.65199V8.88068C249.585 8.92045 249.502 8.95739 249.386 8.99148C249.272 9.02557 249.144 9.0554 249.002 9.08097C248.86 9.10653 248.719 9.12926 248.58 9.14915C248.441 9.16903 248.32 9.18608 248.218 9.20028C247.988 9.23153 247.782 9.28267 247.6 9.35369C247.418 9.42472 247.275 9.52415 247.17 9.65199C247.065 9.77699 247.012 9.93892 247.012 10.1378C247.012 10.4219 247.116 10.6364 247.323 10.7812C247.531 10.9261 247.795 10.9986 248.116 10.9986ZM257.047 14.4545C256.836 14.4545 256.642 14.4375 256.463 14.4034C256.287 14.3722 256.146 14.3352 256.041 14.2926L256.399 13.0909C256.623 13.1563 256.824 13.1875 257 13.1847C257.176 13.1818 257.331 13.1264 257.464 13.0185C257.601 12.9134 257.716 12.7372 257.81 12.4901L257.942 12.1364L255.568 5.45455H257.204L258.713 10.3977H258.781L260.294 5.45455H261.935L259.314 12.7926C259.192 13.1392 259.03 13.4361 258.828 13.6832C258.626 13.9332 258.379 14.1236 258.086 14.2543C257.797 14.3878 257.45 14.4545 257.047 14.4545ZM268.298 12.1321C267.883 12.1321 267.51 12.0582 267.177 11.9105C266.848 11.7599 266.586 11.5384 266.393 11.2457C266.203 10.9531 266.108 10.5923 266.108 10.1634C266.108 9.79403 266.176 9.48864 266.312 9.24716C266.449 9.00568 266.635 8.8125 266.87 8.66761C267.106 8.52273 267.372 8.41335 267.667 8.33949C267.966 8.26278 268.274 8.20739 268.592 8.1733C268.976 8.13352 269.287 8.09801 269.525 8.06676C269.764 8.03267 269.937 7.98153 270.045 7.91335C270.156 7.84233 270.211 7.73295 270.211 7.58523V7.55966C270.211 7.23864 270.116 6.99006 269.926 6.81392C269.736 6.63778 269.461 6.54972 269.103 6.54972C268.726 6.54972 268.426 6.6321 268.204 6.79688C267.986 6.96165 267.838 7.15625 267.761 7.38068L266.321 7.17614C266.434 6.77841 266.622 6.44602 266.883 6.17898C267.145 5.90909 267.464 5.70739 267.842 5.57386C268.22 5.4375 268.638 5.36932 269.095 5.36932C269.41 5.36932 269.724 5.40625 270.037 5.48011C270.349 5.55398 270.635 5.67614 270.893 5.84659C271.152 6.0142 271.359 6.2429 271.515 6.53267C271.674 6.82244 271.754 7.18466 271.754 7.61932V12H270.271V11.1009H270.22C270.126 11.2827 269.994 11.4531 269.824 11.6122C269.656 11.7685 269.444 11.8949 269.189 11.9915C268.936 12.0852 268.639 12.1321 268.298 12.1321ZM268.699 10.9986C269.008 10.9986 269.277 10.9375 269.504 10.8153C269.731 10.6903 269.906 10.5256 270.028 10.321C270.153 10.1165 270.216 9.89347 270.216 9.65199V8.88068C270.167 8.92045 270.085 8.95739 269.968 8.99148C269.855 9.02557 269.727 9.0554 269.585 9.08097C269.443 9.10653 269.302 9.12926 269.163 9.14915C269.024 9.16903 268.903 9.18608 268.801 9.20028C268.571 9.23153 268.365 9.28267 268.183 9.35369C268.001 9.42472 267.858 9.52415 267.753 9.65199C267.647 9.77699 267.595 9.93892 267.595 10.1378C267.595 10.4219 267.699 10.6364 267.906 10.7812C268.113 10.9261 268.378 10.9986 268.699 10.9986ZM282.078 7.18466L280.672 7.33807C280.632 7.19602 280.563 7.0625 280.463 6.9375C280.367 6.8125 280.236 6.71165 280.071 6.63494C279.907 6.55824 279.705 6.51989 279.466 6.51989C279.145 6.51989 278.875 6.58949 278.657 6.72869C278.441 6.8679 278.334 7.0483 278.337 7.26989C278.334 7.46023 278.404 7.61506 278.546 7.73438C278.691 7.85369 278.929 7.9517 279.262 8.02841L280.378 8.26705C280.997 8.40057 281.458 8.61222 281.759 8.90199C282.063 9.19176 282.216 9.57102 282.219 10.0398C282.216 10.4517 282.095 10.8153 281.857 11.1307C281.621 11.4432 281.293 11.6875 280.872 11.8636C280.452 12.0398 279.969 12.1278 279.424 12.1278C278.622 12.1278 277.978 11.9602 277.489 11.625C277 11.2869 276.709 10.8168 276.615 10.2145L278.12 10.0696C278.188 10.3651 278.333 10.5881 278.554 10.7386C278.776 10.8892 279.064 10.9645 279.419 10.9645C279.786 10.9645 280.08 10.8892 280.301 10.7386C280.526 10.5881 280.638 10.402 280.638 10.1804C280.638 9.9929 280.566 9.83807 280.421 9.71591C280.279 9.59375 280.057 9.5 279.756 9.43466L278.639 9.20028C278.012 9.0696 277.547 8.84943 277.246 8.53977C276.945 8.22727 276.796 7.83239 276.799 7.35511C276.796 6.9517 276.905 6.60227 277.127 6.30682C277.351 6.00852 277.662 5.77841 278.06 5.61648C278.46 5.4517 278.922 5.36932 279.445 5.36932C280.212 5.36932 280.816 5.53267 281.256 5.85938C281.699 6.18608 281.973 6.62784 282.078 7.18466ZM288.634 8.16477V12H287.091V3.27273H288.6V6.56676H288.676C288.83 6.19744 289.067 5.90625 289.388 5.69318C289.712 5.47727 290.124 5.36932 290.624 5.36932C291.078 5.36932 291.475 5.46449 291.813 5.65483C292.151 5.84517 292.412 6.12358 292.597 6.49006C292.784 6.85653 292.878 7.30398 292.878 7.83239V12H291.335V8.07102C291.335 7.63068 291.222 7.28835 290.994 7.04403C290.77 6.79687 290.455 6.6733 290.048 6.6733C289.776 6.6733 289.531 6.73295 289.315 6.85227C289.102 6.96875 288.935 7.13778 288.813 7.35938C288.693 7.58097 288.634 7.84943 288.634 8.16477ZM298.05 12V5.45455H299.593V12H298.05ZM298.826 4.52557C298.582 4.52557 298.371 4.4446 298.195 4.28267C298.019 4.1179 297.931 3.92045 297.931 3.69034C297.931 3.45739 298.019 3.25994 298.195 3.09801C298.371 2.93324 298.582 2.85085 298.826 2.85085C299.073 2.85085 299.283 2.93324 299.457 3.09801C299.633 3.25994 299.721 3.45739 299.721 3.69034C299.721 3.92045 299.633 4.1179 299.457 4.28267C299.283 4.4446 299.073 4.52557 298.826 4.52557ZM311.424 3.27273H313.359L315.95 9.59659H316.052L318.643 3.27273H320.577V12H319.06V6.00426H318.979L316.568 11.9744H315.434L313.022 5.99148H312.941V12H311.424V3.27273ZM328.856 12H325.899V3.27273H328.916C329.783 3.27273 330.527 3.44744 331.149 3.79688C331.774 4.14347 332.254 4.64205 332.589 5.29261C332.925 5.94318 333.092 6.72159 333.092 7.62784C333.092 8.53693 332.923 9.31818 332.585 9.97159C332.25 10.625 331.766 11.1264 331.132 11.4759C330.501 11.8253 329.743 12 328.856 12ZM327.48 10.6321H328.78C329.388 10.6321 329.895 10.5213 330.301 10.2997C330.707 10.0753 331.013 9.74148 331.217 9.2983C331.422 8.85227 331.524 8.29545 331.524 7.62784C331.524 6.96023 331.422 6.40625 331.217 5.96591C331.013 5.52273 330.71 5.19176 330.31 4.97301C329.912 4.75142 329.418 4.64062 328.827 4.64062H327.48V10.6321ZM346.774 0.460227V14.8125H345.342V0.460227H346.774ZM365.095 6.05966C365.024 5.82955 364.926 5.62358 364.801 5.44176C364.679 5.2571 364.531 5.09943 364.358 4.96875C364.187 4.83807 363.991 4.74006 363.77 4.67472C363.548 4.60653 363.307 4.57244 363.045 4.57244C362.576 4.57244 362.159 4.69034 361.792 4.92614C361.426 5.16193 361.137 5.50852 360.927 5.96591C360.72 6.42045 360.616 6.97443 360.616 7.62784C360.616 8.28693 360.72 8.84517 360.927 9.30256C361.135 9.75994 361.423 10.108 361.792 10.3466C362.162 10.5824 362.591 10.7003 363.079 10.7003C363.522 10.7003 363.906 10.6151 364.23 10.4446C364.557 10.2741 364.808 10.0327 364.984 9.72017C365.16 9.40483 365.248 9.03551 365.248 8.61222L365.606 8.66761H363.237V7.43182H366.778V8.48011C366.778 9.22727 366.619 9.87358 366.301 10.419C365.983 10.9645 365.545 11.3849 364.988 11.6804C364.432 11.973 363.792 12.1193 363.071 12.1193C362.267 12.1193 361.561 11.9389 360.953 11.5781C360.348 11.2145 359.875 10.6989 359.534 10.0312C359.196 9.3608 359.027 8.56534 359.027 7.64489C359.027 6.94034 359.126 6.31108 359.325 5.7571C359.527 5.20312 359.808 4.73295 360.169 4.34659C360.53 3.95739 360.953 3.66193 361.439 3.46023C361.924 3.25568 362.453 3.15341 363.024 3.15341C363.507 3.15341 363.957 3.22443 364.375 3.36648C364.792 3.50568 365.163 3.70455 365.487 3.96307C365.814 4.22159 366.082 4.52841 366.292 4.88352C366.503 5.23864 366.64 5.63068 366.706 6.05966H365.095ZM376.011 9.24716V5.45455H377.553V12H376.057V10.8366H375.989C375.842 11.2031 375.599 11.5028 375.261 11.7358C374.925 11.9687 374.512 12.0852 374.021 12.0852C373.592 12.0852 373.212 11.9901 372.883 11.7997C372.556 11.6065 372.3 11.3267 372.116 10.9602C371.931 10.5909 371.839 10.1449 371.839 9.62216V5.45455H373.381V9.38352C373.381 9.7983 373.495 10.1278 373.722 10.3722C373.949 10.6165 374.248 10.7386 374.617 10.7386C374.844 10.7386 375.065 10.6832 375.278 10.5724C375.491 10.4616 375.665 10.2969 375.802 10.0781C375.941 9.85653 376.011 9.57955 376.011 9.24716ZM382.739 12V5.45455H384.235V6.54545H384.303C384.423 6.16761 384.627 5.87642 384.917 5.67188C385.21 5.46449 385.543 5.3608 385.918 5.3608C386.004 5.3608 386.099 5.36506 386.204 5.37358C386.312 5.37926 386.401 5.3892 386.472 5.40341V6.82244C386.407 6.79972 386.303 6.77983 386.161 6.76278C386.022 6.7429 385.887 6.73295 385.757 6.73295C385.475 6.73295 385.222 6.79403 384.998 6.91619C384.776 7.03551 384.602 7.2017 384.474 7.41477C384.346 7.62784 384.282 7.87358 384.282 8.15199V12H382.739ZM391.097 14.4545V5.45455H392.614V6.53693H392.704C392.783 6.37784 392.896 6.20881 393.04 6.02983C393.185 5.84801 393.381 5.69318 393.629 5.56534C393.876 5.43466 394.191 5.36932 394.575 5.36932C395.08 5.36932 395.536 5.49858 395.942 5.7571C396.352 6.01278 396.675 6.39205 396.914 6.89489C397.156 7.39489 397.276 8.00852 397.276 8.7358C397.276 9.45455 397.158 10.0653 396.923 10.5682C396.687 11.071 396.366 11.4545 395.96 11.7188C395.553 11.983 395.093 12.1151 394.579 12.1151C394.204 12.1151 393.893 12.0526 393.646 11.9276C393.398 11.8026 393.2 11.652 393.049 11.4759C392.901 11.2969 392.786 11.1278 392.704 10.9688H392.64V14.4545H391.097ZM392.61 8.72727C392.61 9.15057 392.67 9.52131 392.789 9.83949C392.911 10.1577 393.086 10.4062 393.313 10.5852C393.543 10.7614 393.822 10.8494 394.148 10.8494C394.489 10.8494 394.775 10.7585 395.005 10.5767C395.235 10.392 395.408 10.1406 395.525 9.82244C395.644 9.50142 395.704 9.13636 395.704 8.72727C395.704 8.32102 395.646 7.96023 395.529 7.64489C395.413 7.32955 395.239 7.08239 395.009 6.90341C394.779 6.72443 394.492 6.63494 394.148 6.63494C393.819 6.63494 393.539 6.72159 393.309 6.89489C393.079 7.06818 392.904 7.31108 392.785 7.62358C392.668 7.93608 392.61 8.30398 392.61 8.72727ZM404.081 12.1321C403.666 12.1321 403.292 12.0582 402.96 11.9105C402.631 11.7599 402.369 11.5384 402.176 11.2457C401.986 10.9531 401.89 10.5923 401.89 10.1634C401.89 9.79403 401.959 9.48864 402.095 9.24716C402.231 9.00568 402.417 8.8125 402.653 8.66761C402.889 8.52273 403.155 8.41335 403.45 8.33949C403.748 8.26278 404.057 8.20739 404.375 8.1733C404.758 8.13352 405.069 8.09801 405.308 8.06676C405.547 8.03267 405.72 7.98153 405.828 7.91335C405.939 7.84233 405.994 7.73295 405.994 7.58523V7.55966C405.994 7.23864 405.899 6.99006 405.709 6.81392C405.518 6.63778 405.244 6.54972 404.886 6.54972C404.508 6.54972 404.209 6.6321 403.987 6.79688C403.768 6.96165 403.621 7.15625 403.544 7.38068L402.104 7.17614C402.217 6.77841 402.405 6.44602 402.666 6.17898C402.927 5.90909 403.247 5.70739 403.625 5.57386C404.003 5.4375 404.42 5.36932 404.878 5.36932C405.193 5.36932 405.507 5.40625 405.819 5.48011C406.132 5.55398 406.417 5.67614 406.676 5.84659C406.935 6.0142 407.142 6.2429 407.298 6.53267C407.457 6.82244 407.537 7.18466 407.537 7.61932V12H406.054V11.1009H406.003C405.909 11.2827 405.777 11.4531 405.606 11.6122C405.439 11.7685 405.227 11.8949 404.971 11.9915C404.719 12.0852 404.422 12.1321 404.081 12.1321ZM404.481 10.9986C404.791 10.9986 405.06 10.9375 405.287 10.8153C405.514 10.6903 405.689 10.5256 405.811 10.321C405.936 10.1165 405.998 9.89347 405.998 9.65199V8.88068C405.95 8.92045 405.868 8.95739 405.751 8.99148C405.638 9.02557 405.51 9.0554 405.368 9.08097C405.226 9.10653 405.085 9.12926 404.946 9.14915C404.807 9.16903 404.686 9.18608 404.584 9.20028C404.354 9.23153 404.148 9.28267 403.966 9.35369C403.784 9.42472 403.64 9.52415 403.535 9.65199C403.43 9.77699 403.378 9.93892 403.378 10.1378C403.378 10.4219 403.481 10.6364 403.689 10.7812C403.896 10.9261 404.16 10.9986 404.481 10.9986ZM414.231 3.27273V12H412.688V3.27273H414.231ZM427.229 3.27273L429.5 10.142H429.59L431.857 3.27273H433.596L430.519 12H428.567L425.495 3.27273H427.229ZM438.277 12V5.45455H439.82V12H438.277ZM439.053 4.52557C438.808 4.52557 438.598 4.4446 438.422 4.28267C438.246 4.1179 438.158 3.92045 438.158 3.69034C438.158 3.45739 438.246 3.25994 438.422 3.09801C438.598 2.93324 438.808 2.85085 439.053 2.85085C439.3 2.85085 439.51 2.93324 439.683 3.09801C439.859 3.25994 439.947 3.45739 439.947 3.69034C439.947 3.92045 439.859 4.1179 439.683 4.28267C439.51 4.4446 439.3 4.52557 439.053 4.52557ZM445.006 12V5.45455H446.502V6.54545H446.57C446.689 6.16761 446.894 5.87642 447.183 5.67188C447.476 5.46449 447.81 5.3608 448.185 5.3608C448.27 5.3608 448.365 5.36506 448.47 5.37358C448.578 5.37926 448.668 5.3892 448.739 5.40341V6.82244C448.674 6.79972 448.57 6.77983 448.428 6.76278C448.289 6.7429 448.154 6.73295 448.023 6.73295C447.742 6.73295 447.489 6.79403 447.264 6.91619C447.043 7.03551 446.868 7.2017 446.74 7.41477C446.612 7.62784 446.549 7.87358 446.549 8.15199V12H445.006ZM455.523 12.1151C455.009 12.1151 454.549 11.983 454.142 11.7188C453.736 11.4545 453.415 11.071 453.179 10.5682C452.944 10.0653 452.826 9.45455 452.826 8.7358C452.826 8.00852 452.945 7.39489 453.184 6.89489C453.425 6.39205 453.75 6.01278 454.159 5.7571C454.569 5.49858 455.025 5.36932 455.527 5.36932C455.911 5.36932 456.226 5.43466 456.473 5.56534C456.721 5.69318 456.917 5.84801 457.061 6.02983C457.206 6.20881 457.319 6.37784 457.398 6.53693H457.462V3.27273H459.009V12H457.492V10.9688H457.398C457.319 11.1278 457.204 11.2969 457.053 11.4759C456.902 11.652 456.704 11.8026 456.456 11.9276C456.209 12.0526 455.898 12.1151 455.523 12.1151ZM455.954 10.8494C456.28 10.8494 456.559 10.7614 456.789 10.5852C457.019 10.4062 457.194 10.1577 457.313 9.83949C457.432 9.52131 457.492 9.15057 457.492 8.72727C457.492 8.30398 457.432 7.93608 457.313 7.62358C457.196 7.31108 457.023 7.06818 456.793 6.89489C456.566 6.72159 456.286 6.63494 455.954 6.63494C455.61 6.63494 455.323 6.72443 455.093 6.90341C454.863 7.08239 454.689 7.32955 454.573 7.64489C454.456 7.96023 454.398 8.32102 454.398 8.72727C454.398 9.13636 454.456 9.50142 454.573 9.82244C454.692 10.1406 454.867 10.392 455.097 10.5767C455.33 10.7585 455.615 10.8494 455.954 10.8494ZM464.253 12V5.45455H465.795V12H464.253ZM465.028 4.52557C464.784 4.52557 464.574 4.4446 464.398 4.28267C464.222 4.1179 464.133 3.92045 464.133 3.69034C464.133 3.45739 464.222 3.25994 464.398 3.09801C464.574 2.93324 464.784 2.85085 465.028 2.85085C465.275 2.85085 465.486 2.93324 465.659 3.09801C465.835 3.25994 465.923 3.45739 465.923 3.69034C465.923 3.92045 465.835 4.1179 465.659 4.28267C465.486 4.4446 465.275 4.52557 465.028 4.52557ZM477.626 3.27273H479.561L482.152 9.59659H482.254L484.845 3.27273H486.78V12H485.263V6.00426H485.182L482.77 11.9744H481.636L479.224 5.99148H479.143V12H477.626V3.27273ZM495.059 12H492.101V3.27273H495.118C495.985 3.27273 496.729 3.44744 497.351 3.79688C497.976 4.14347 498.457 4.64205 498.792 5.29261C499.127 5.94318 499.295 6.72159 499.295 7.62784C499.295 8.53693 499.126 9.31818 498.788 9.97159C498.452 10.625 497.968 11.1264 497.334 11.4759C496.704 11.8253 495.945 12 495.059 12ZM493.682 10.6321H494.982C495.59 10.6321 496.097 10.5213 496.503 10.2997C496.91 10.0753 497.215 9.74148 497.42 9.2983C497.624 8.85227 497.726 8.29545 497.726 7.62784C497.726 6.96023 497.624 6.40625 497.42 5.96591C497.215 5.52273 496.913 5.19176 496.512 4.97301C496.114 4.75142 495.62 4.64062 495.029 4.64062H493.682V10.6321Z" fill="black"/>
</svg>
