<?xml version="1.0" encoding="UTF-8"?>
<!DOCTYPE svg PUBLIC "-//W3C//DTD SVG 1.1//EN" "http://www.w3.org/Graphics/SVG/1.1/DTD/svg11.dtd">
<svg xmlns="http://www.w3.org/2000/svg" version="1.1" width="177" height="55" viewBox="0 0 3286 1542" style="shape-rendering:geometricPrecision; text-rendering:geometricPrecision; image-rendering:optimizeQuality; fill-rule:evenodd; clip-rule:evenodd" xmlns:xlink="http://www.w3.org/1999/xlink">
<g><path style="opacity:0.994" fill="#e2a534" d="M 1721.5,90.5 C 1719.02,96.7978 1716.52,103.131 1714,109.5C 1713.28,118.779 1712.11,127.945 1710.5,137C 1710.99,140.093 1711.15,143.593 1711,147.5C 1712.55,150.206 1713.71,153.04 1714.5,156C 1713.78,164.528 1713.78,173.528 1714.5,183C 1713.72,185.74 1713.22,188.574 1713,191.5C 1709.3,197.577 1706.13,203.91 1703.5,210.5C 1662.57,205.456 1621.57,204.456 1580.5,207.5C 1583.37,203.91 1585.04,199.743 1585.5,195C 1584.55,184.991 1583.55,174.991 1582.5,165C 1582.64,163.774 1582.98,162.607 1583.5,161.5C 1578.7,154.238 1574.7,146.571 1571.5,138.5C 1573.53,128.923 1575.86,119.423 1578.5,110C 1575.88,103.921 1572.88,98.0873 1569.5,92.5C 1620.13,86.4054 1670.79,85.7388 1721.5,90.5 Z"/></g>
<g><path style="opacity:0.996" fill="#e19f34" d="M 1721.5,90.5 C 1773.39,98.4651 1822.72,114.132 1869.5,137.5C 1868.62,137.369 1867.96,137.702 1867.5,138.5C 1855.72,167.339 1845.22,196.673 1836,226.5C 1831.27,231.726 1826.77,237.059 1822.5,242.5C 1784.13,226.66 1744.47,215.993 1703.5,210.5C 1706.13,203.91 1709.3,197.577 1713,191.5C 1713.22,188.574 1713.72,185.74 1714.5,183C 1713.78,173.528 1713.78,164.528 1714.5,156C 1713.71,153.04 1712.55,150.206 1711,147.5C 1711.15,143.593 1710.99,140.093 1710.5,137C 1712.11,127.945 1713.28,118.779 1714,109.5C 1716.52,103.131 1719.02,96.7978 1721.5,90.5 Z"/></g>
<g><path style="opacity:0.995" fill="#e1ab33" d="M 1569.5,92.5 C 1572.88,98.0873 1575.88,103.921 1578.5,110C 1575.86,119.423 1573.53,128.923 1571.5,138.5C 1574.7,146.571 1578.7,154.238 1583.5,161.5C 1582.98,162.607 1582.64,163.774 1582.5,165C 1583.55,174.991 1584.55,184.991 1585.5,195C 1585.04,199.743 1583.37,203.91 1580.5,207.5C 1532.12,211.374 1485.46,222.374 1440.5,240.5C 1432.32,223.32 1424.32,205.987 1416.5,188.5C 1416.71,187.914 1417.04,187.414 1417.5,187C 1416.83,182.667 1416.17,178.333 1415.5,174C 1415.42,172.093 1415.75,170.093 1416.5,168C 1415.12,162.796 1414.62,157.629 1415,152.5C 1411.6,145.939 1408.44,139.273 1405.5,132.5C 1458.44,112.264 1513.11,98.9309 1569.5,92.5 Z"/></g>
<g><path style="opacity:0.996" fill="#e2b134" d="M 1405.5,132.5 C 1408.44,139.273 1411.6,145.939 1415,152.5C 1414.62,157.629 1415.12,162.796 1416.5,168C 1415.75,170.093 1415.42,172.093 1415.5,174C 1416.17,178.333 1416.83,182.667 1417.5,187C 1417.04,187.414 1416.71,187.914 1416.5,188.5C 1424.32,205.987 1432.32,223.32 1440.5,240.5C 1419.52,249.493 1399.18,259.826 1379.5,271.5C 1362.03,281.407 1345.36,292.573 1329.5,305C 1316,316.336 1302.67,327.836 1289.5,339.5C 1286.91,332.885 1284.41,326.218 1282,319.5C 1275.59,320.478 1269.09,320.811 1262.5,320.5C 1262.23,314.369 1262.07,308.702 1262,303.5C 1246.69,291.677 1231.02,280.344 1215,269.5C 1214.33,270.252 1213.5,270.586 1212.5,270.5C 1265.33,208.569 1329.66,162.569 1405.5,132.5 Z"/></g>
<g><path style="opacity:0.997" fill="#e09933" d="M 1869.5,137.5 C 1927.89,164.884 1977.56,203.55 2018.5,253.5C 2014.08,258.753 2009.08,263.587 2003.5,268C 1995,273.084 1986.66,278.417 1978.5,284C 1975.62,288.927 1972.62,293.76 1969.5,298.5C 1966.32,302.207 1963.16,305.874 1960,309.5C 1952.85,314.568 1945.35,319.902 1937.5,325.5C 1905.39,289.273 1867.06,261.606 1822.5,242.5C 1826.77,237.059 1831.27,231.726 1836,226.5C 1845.22,196.673 1855.72,167.339 1867.5,138.5C 1867.96,137.702 1868.62,137.369 1869.5,137.5 Z"/></g>
<g><path style="opacity:0.997" fill="#e2b835" d="M 1289.5,339.5 C 1244.07,385.279 1208.07,437.612 1181.5,496.5C 1181.39,495.883 1181.06,495.383 1180.5,495C 1174.28,493.614 1168.28,491.614 1162.5,489C 1152.17,481.333 1141.83,473.667 1131.5,466C 1124.78,465.244 1118.12,465.411 1111.5,466.5C 1131.53,393.761 1165.2,328.428 1212.5,270.5C 1213.5,270.586 1214.33,270.252 1215,269.5C 1231.02,280.344 1246.69,291.677 1262,303.5C 1262.07,308.702 1262.23,314.369 1262.5,320.5C 1269.09,320.811 1275.59,320.478 1282,319.5C 1284.41,326.218 1286.91,332.885 1289.5,339.5 Z"/></g>
<g><path style="opacity:0.997" fill="#e09233" d="M 2018.5,253.5 C 2049.42,289.962 2073.75,330.628 2091.5,375.5C 2089.83,379.65 2087.5,383.483 2084.5,387C 2072.79,391.07 2061.12,395.237 2049.5,399.5C 2053.15,411.8 2056.15,424.133 2058.5,436.5C 2058.63,437.376 2058.3,438.043 2057.5,438.5C 2046.5,444 2035.5,449.5 2024.5,455C 2018.82,455.445 2013.15,455.945 2007.5,456.5C 1993.3,407.759 1969.97,364.093 1937.5,325.5C 1945.35,319.902 1952.85,314.568 1960,309.5C 1963.16,305.874 1966.32,302.207 1969.5,298.5C 1972.62,293.76 1975.62,288.927 1978.5,284C 1986.66,278.417 1995,273.084 2003.5,268C 2009.08,263.587 2014.08,258.753 2018.5,253.5 Z"/></g>
<g><path style="opacity:0.997" fill="#3e7490" d="M 1593.5,362.5 C 1666.92,359.681 1729.75,383.681 1782,434.5C 1820.12,474.94 1840.29,523.107 1842.5,579C 1841.31,621.852 1827.14,659.685 1800,692.5C 1749.43,750.782 1685.43,782.115 1608,786.5C 1534.07,783.53 1472.74,754.53 1424,699.5C 1381.16,643.83 1368.83,581.83 1387,513.5C 1410.04,441.457 1457.88,394.624 1530.5,373C 1551.29,367.313 1572.29,363.813 1593.5,362.5 Z M 1677.5,657.5 C 1649.03,686.867 1615.37,695.033 1576.5,682C 1552.45,673.409 1531.12,660.576 1512.5,643.5C 1493.28,625.731 1482.62,603.731 1480.5,577.5C 1481.17,555.81 1488.5,536.81 1502.5,520.5C 1514.2,509.318 1527.53,500.651 1542.5,494.5C 1591.12,478.991 1635.78,486.491 1676.5,517C 1705.03,541.936 1714.2,572.769 1704,609.5C 1699.04,627.771 1690.2,643.771 1677.5,657.5 Z"/></g>
<g><path style="opacity:1" fill="#3f7793" d="M 1604.5,368.5 C 1682.93,368.636 1746.1,399.302 1794,460.5C 1835.73,522.195 1842.4,587.528 1814,656.5C 1780.98,721.82 1728.48,761.986 1656.5,777C 1583.55,789.515 1518.55,772.515 1461.5,726C 1399.91,669.229 1379.08,600.062 1399,518.5C 1422.05,450.452 1467.55,404.619 1535.5,381C 1558.1,373.791 1581.1,369.624 1604.5,368.5 Z M 1677.5,657.5 C 1649.03,686.867 1615.37,695.033 1576.5,682C 1552.45,673.409 1531.12,660.576 1512.5,643.5C 1493.28,625.731 1482.62,603.731 1480.5,577.5C 1481.17,555.81 1488.5,536.81 1502.5,520.5C 1514.2,509.318 1527.53,500.651 1542.5,494.5C 1591.12,478.991 1635.78,486.491 1676.5,517C 1705.03,541.936 1714.2,572.769 1704,609.5C 1699.04,627.771 1690.2,643.771 1677.5,657.5 Z"/></g>
<g><path style="opacity:1" fill="#417a97" d="M 1598.5,375.5 C 1666.57,373.473 1724.4,396.473 1772,444.5C 1822.99,502.762 1836.32,568.762 1812,642.5C 1785.33,705.435 1739.16,746.602 1673.5,766C 1600.48,784.612 1533.81,771.612 1473.5,727C 1404.89,668.092 1383.73,595.259 1410,508.5C 1436.02,446.483 1481.19,405.317 1545.5,385C 1563.01,380.084 1580.67,376.918 1598.5,375.5 Z M 1677.5,657.5 C 1649.03,686.867 1615.37,695.033 1576.5,682C 1552.45,673.409 1531.12,660.576 1512.5,643.5C 1493.28,625.731 1482.62,603.731 1480.5,577.5C 1481.17,555.81 1488.5,536.81 1502.5,520.5C 1514.2,509.318 1527.53,500.651 1542.5,494.5C 1591.12,478.991 1635.78,486.491 1676.5,517C 1705.03,541.936 1714.2,572.769 1704,609.5C 1699.04,627.771 1690.2,643.771 1677.5,657.5 Z"/></g>
<g><path style="opacity:0.997" fill="#e38e31" d="M 2091.5,375.5 C 2100.93,397.12 2108.6,419.453 2114.5,442.5C 2113.85,442.196 2113.18,441.863 2112.5,441.5C 2108.03,444.137 2103.7,446.97 2099.5,450C 2094.94,455.381 2092.61,461.381 2092.5,468C 2088.95,475.071 2085.79,482.238 2083,489.5C 2082.67,497.106 2081.84,504.606 2080.5,512C 2080.96,512.414 2081.29,512.914 2081.5,513.5C 2079.99,521.954 2078.66,530.121 2077.5,538C 2084.09,539.106 2090.59,540.606 2097,542.5C 2097.77,542.355 2098.44,542.022 2099,541.5C 2104.64,545.643 2110.14,549.976 2115.5,554.5C 2121.75,557.461 2128.08,560.128 2134.5,562.5C 2134.5,563.833 2134.5,565.167 2134.5,566.5C 2129.62,568.528 2124.79,570.861 2120,573.5C 2111.18,567.085 2102.52,560.418 2094,553.5C 2093.44,554.022 2092.77,554.355 2092,554.5C 2080.22,551.844 2068.39,549.511 2056.5,547.5C 2062.36,515.708 2063.86,483.708 2061,451.5C 2060.7,446.272 2059.87,441.272 2058.5,436.5C 2056.15,424.133 2053.15,411.8 2049.5,399.5C 2061.12,395.237 2072.79,391.07 2084.5,387C 2087.5,383.483 2089.83,379.65 2091.5,375.5 Z"/></g>
<g><path style="opacity:1" fill="#437e9b" d="M 1589.5,385.5 C 1660.03,380.719 1719.53,403.719 1768,454.5C 1816.75,513.801 1826.75,579.134 1798,650.5C 1766.51,711.957 1716.68,749.124 1648.5,762C 1573.18,773.006 1509.02,751.506 1456,697.5C 1406.66,639.14 1395.66,574.14 1423,502.5C 1450.14,445.367 1494.31,408.534 1555.5,392C 1566.87,389.275 1578.2,387.108 1589.5,385.5 Z M 1677.5,657.5 C 1649.03,686.867 1615.37,695.033 1576.5,682C 1552.45,673.409 1531.12,660.576 1512.5,643.5C 1493.28,625.731 1482.62,603.731 1480.5,577.5C 1481.17,555.81 1488.5,536.81 1502.5,520.5C 1514.2,509.318 1527.53,500.651 1542.5,494.5C 1591.12,478.991 1635.78,486.491 1676.5,517C 1705.03,541.936 1714.2,572.769 1704,609.5C 1699.04,627.771 1690.2,643.771 1677.5,657.5 Z"/></g>
<g><path style="opacity:1" fill="#4581a0" d="M 1593.5,394.5 C 1661.18,390.874 1717.68,413.874 1763,463.5C 1809.95,524.285 1816.62,589.285 1783,658.5C 1750.13,712.96 1701.97,744.793 1638.5,754C 1568.26,761.593 1509.09,739.76 1461,688.5C 1420.58,639.387 1408.91,584.054 1426,522.5C 1448.82,461.013 1491.65,420.846 1554.5,402C 1567.47,398.619 1580.47,396.119 1593.5,394.5 Z M 1677.5,657.5 C 1649.03,686.867 1615.37,695.033 1576.5,682C 1552.45,673.409 1531.12,660.576 1512.5,643.5C 1493.28,625.731 1482.62,603.731 1480.5,577.5C 1481.17,555.81 1488.5,536.81 1502.5,520.5C 1514.2,509.318 1527.53,500.651 1542.5,494.5C 1591.12,478.991 1635.78,486.491 1676.5,517C 1705.03,541.936 1714.2,572.769 1704,609.5C 1699.04,627.771 1690.2,643.771 1677.5,657.5 Z"/></g>
<g><path style="opacity:1" fill="#4785a5" d="M 1596.5,404.5 C 1660.06,401.499 1712.89,423.499 1755,470.5C 1794.15,520.427 1803.15,575.427 1782,635.5C 1757.7,690.119 1716.54,724.952 1658.5,740C 1583.63,755.917 1520.13,736.084 1468,680.5C 1427.1,628.865 1418.43,572.198 1442,510.5C 1465.37,460.46 1503.54,427.627 1556.5,412C 1569.79,408.51 1583.13,406.01 1596.5,404.5 Z M 1677.5,657.5 C 1649.03,686.867 1615.37,695.033 1576.5,682C 1552.45,673.409 1531.12,660.576 1512.5,643.5C 1493.28,625.731 1482.62,603.731 1480.5,577.5C 1481.17,555.81 1488.5,536.81 1502.5,520.5C 1514.2,509.318 1527.53,500.651 1542.5,494.5C 1591.12,478.991 1635.78,486.491 1676.5,517C 1705.03,541.936 1714.2,572.769 1704,609.5C 1699.04,627.771 1690.2,643.771 1677.5,657.5 Z"/></g>
<g><path style="opacity:0.996" fill="#126987" d="M 1379.5,271.5 C 1318.95,343.919 1276.79,426.253 1253,518.5C 1238.52,576.499 1236.85,634.833 1248,693.5C 1256.69,733.871 1273.19,770.538 1297.5,803.5C 1289.54,813.317 1280.88,822.484 1271.5,831C 1265.62,834.106 1259.62,836.94 1253.5,839.5C 1248.04,846.278 1242.7,853.111 1237.5,860C 1227.5,867.333 1217.5,874.667 1207.5,882C 1206.07,885.468 1204.73,888.968 1203.5,892.5C 1173.46,855.765 1151.8,814.432 1138.5,768.5C 1141.28,742.583 1142.62,716.583 1142.5,690.5C 1142.51,623.135 1155.51,558.468 1181.5,496.5C 1208.07,437.612 1244.07,385.279 1289.5,339.5C 1302.67,327.836 1316,316.336 1329.5,305C 1345.36,292.573 1362.03,281.407 1379.5,271.5 Z"/></g>
<g><path style="opacity:1" fill="#4a8aab" d="M 1593.5,417.5 C 1652.31,413.592 1701.81,432.925 1742,475.5C 1781.61,524.179 1789.95,577.846 1767,636.5C 1741.55,687.59 1700.72,718.756 1644.5,730C 1580.9,740.074 1526.73,722.24 1482,676.5C 1445.48,633.742 1434.48,585.075 1449,530.5C 1468.33,475.834 1505.83,440.334 1561.5,424C 1572.16,421.101 1582.83,418.934 1593.5,417.5 Z M 1677.5,657.5 C 1649.03,686.867 1615.37,695.033 1576.5,682C 1552.45,673.409 1531.12,660.576 1512.5,643.5C 1493.28,625.731 1482.62,603.731 1480.5,577.5C 1481.17,555.81 1488.5,536.81 1502.5,520.5C 1514.2,509.318 1527.53,500.651 1542.5,494.5C 1591.12,478.991 1635.78,486.491 1676.5,517C 1705.03,541.936 1714.2,572.769 1704,609.5C 1699.04,627.771 1690.2,643.771 1677.5,657.5 Z"/></g>
<g><path style="opacity:1" fill="#4c8eaf" d="M 1603.5,429.5 C 1658.5,428.756 1703.33,449.423 1738,491.5C 1774.01,544.065 1775.68,597.732 1743,652.5C 1703.22,705.112 1650.39,726.945 1584.5,718C 1530.24,707.806 1491.07,677.972 1467,628.5C 1444.74,566.475 1457.57,512.975 1505.5,468C 1533.96,444.459 1566.62,431.626 1603.5,429.5 Z M 1677.5,657.5 C 1649.03,686.867 1615.37,695.033 1576.5,682C 1552.45,673.409 1531.12,660.576 1512.5,643.5C 1493.28,625.731 1482.62,603.731 1480.5,577.5C 1481.17,555.81 1488.5,536.81 1502.5,520.5C 1514.2,509.318 1527.53,500.651 1542.5,494.5C 1591.12,478.991 1635.78,486.491 1676.5,517C 1705.03,541.936 1714.2,572.769 1704,609.5C 1699.04,627.771 1690.2,643.771 1677.5,657.5 Z"/></g>
<g><path style="opacity:1" fill="#4e90b3" d="M 1599.5,436.5 C 1655.74,434.383 1700.91,455.383 1735,499.5C 1765.6,547.364 1766.94,596.031 1739,645.5C 1711.49,686.254 1672.99,708.754 1623.5,713C 1561.89,715.948 1514.39,691.782 1481,640.5C 1453.58,586.772 1458.25,536.106 1495,488.5C 1523,457.417 1557.83,440.083 1599.5,436.5 Z M 1677.5,657.5 C 1649.03,686.867 1615.37,695.033 1576.5,682C 1552.45,673.409 1531.12,660.576 1512.5,643.5C 1493.28,625.731 1482.62,603.731 1480.5,577.5C 1481.17,555.81 1488.5,536.81 1502.5,520.5C 1514.2,509.318 1527.53,500.651 1542.5,494.5C 1591.12,478.991 1635.78,486.491 1676.5,517C 1705.03,541.936 1714.2,572.769 1704,609.5C 1699.04,627.771 1690.2,643.771 1677.5,657.5 Z"/></g>
<g><path style="opacity:0.995" fill="#ea8d2c" d="M 2114.5,442.5 C 2117.54,453.72 2120.21,465.053 2122.5,476.5C 2115.89,483.62 2109.39,490.953 2103,498.5C 2100.96,503.867 2099.12,509.367 2097.5,515C 2097.83,515.333 2098.17,515.667 2098.5,516C 2097.28,521.265 2096.61,526.432 2096.5,531.5C 2099.15,531.892 2101.65,531.892 2104,531.5C 2105.87,533.709 2108.04,535.542 2110.5,537C 2117.5,540.167 2124.5,543.333 2131.5,546.5C 2132.39,545.675 2132.72,544.675 2132.5,543.5C 2133.64,549.641 2134.3,555.974 2134.5,562.5C 2128.08,560.128 2121.75,557.461 2115.5,554.5C 2110.14,549.976 2104.64,545.643 2099,541.5C 2098.44,542.022 2097.77,542.355 2097,542.5C 2090.59,540.606 2084.09,539.106 2077.5,538C 2078.66,530.121 2079.99,521.954 2081.5,513.5C 2081.29,512.914 2080.96,512.414 2080.5,512C 2081.84,504.606 2082.67,497.106 2083,489.5C 2085.79,482.238 2088.95,475.071 2092.5,468C 2092.61,461.381 2094.94,455.381 2099.5,450C 2103.7,446.97 2108.03,444.137 2112.5,441.5C 2113.18,441.863 2113.85,442.196 2114.5,442.5 Z"/></g>
<g><path style="opacity:0.998" fill="#5094b8" d="M 1594.5,445.5 C 1652.24,441.436 1697.74,462.77 1731,509.5C 1748.5,538.357 1753.84,569.357 1747,602.5C 1735.11,646.728 1707.94,677.561 1665.5,695C 1611.63,713.784 1562.3,705.784 1517.5,671C 1474.06,630.661 1462.22,582.494 1482,526.5C 1498.32,490.513 1525.16,466.013 1562.5,453C 1573.11,449.65 1583.77,447.15 1594.5,445.5 Z M 1677.5,657.5 C 1649.03,686.867 1615.37,695.033 1576.5,682C 1552.45,673.409 1531.12,660.576 1512.5,643.5C 1493.28,625.731 1482.62,603.731 1480.5,577.5C 1481.17,555.81 1488.5,536.81 1502.5,520.5C 1514.2,509.318 1527.53,500.651 1542.5,494.5C 1591.12,478.991 1635.78,486.491 1676.5,517C 1705.03,541.936 1714.2,572.769 1704,609.5C 1699.04,627.771 1690.2,643.771 1677.5,657.5 Z"/></g>
<g><path style="opacity:0.988" fill="#5399be" d="M 1512.5,643.5 C 1531.12,660.576 1552.45,673.409 1576.5,682C 1615.37,695.033 1649.03,686.867 1677.5,657.5C 1701.77,641.337 1716.27,618.67 1721,589.5C 1723.7,532.194 1697.86,494.361 1643.5,476C 1606.59,466.052 1572.59,472.052 1541.5,494C 1541.73,494.399 1542.06,494.565 1542.5,494.5C 1527.53,500.651 1514.2,509.318 1502.5,520.5C 1501.47,520.103 1501.31,519.437 1502,518.5C 1527.45,479.628 1563.62,459.628 1610.5,458.5C 1663.29,460.119 1701.79,484.119 1726,530.5C 1745.61,584.311 1733.45,629.478 1689.5,666C 1648.08,694.232 1604.08,698.898 1557.5,680C 1539.25,671.755 1523.92,659.755 1511.5,644C 1511.73,643.601 1512.06,643.435 1512.5,643.5 Z"/></g>
<g><path style="opacity:0.994" fill="#e3be35" d="M 1181.5,496.5 C 1155.51,558.468 1142.51,623.135 1142.5,690.5C 1134.61,691.411 1126.77,691.078 1119,689.5C 1107.58,689.991 1096.08,689.991 1084.5,689.5C 1081.61,613.601 1090.61,539.267 1111.5,466.5C 1118.12,465.411 1124.78,465.244 1131.5,466C 1141.83,473.667 1152.17,481.333 1162.5,489C 1168.28,491.614 1174.28,493.614 1180.5,495C 1181.06,495.383 1181.39,495.883 1181.5,496.5 Z"/></g>
<g><path style="opacity:0.993" fill="#569ec4" d="M 1677.5,657.5 C 1690.2,643.771 1699.04,627.771 1704,609.5C 1714.2,572.769 1705.03,541.936 1676.5,517C 1635.78,486.491 1591.12,478.991 1542.5,494.5C 1542.06,494.565 1541.73,494.399 1541.5,494C 1572.59,472.052 1606.59,466.052 1643.5,476C 1697.86,494.361 1723.7,532.194 1721,589.5C 1716.27,618.67 1701.77,641.337 1677.5,657.5 Z"/></g>
<g><path style="opacity:0.987" fill="#f08d28" d="M 2122.5,476.5 C 2127.32,498.6 2130.66,520.934 2132.5,543.5C 2132.72,544.675 2132.39,545.675 2131.5,546.5C 2124.5,543.333 2117.5,540.167 2110.5,537C 2108.04,535.542 2105.87,533.709 2104,531.5C 2101.65,531.892 2099.15,531.892 2096.5,531.5C 2096.61,526.432 2097.28,521.265 2098.5,516C 2098.17,515.667 2097.83,515.333 2097.5,515C 2099.12,509.367 2100.96,503.867 2103,498.5C 2109.39,490.953 2115.89,483.62 2122.5,476.5 Z"/></g>
<g><path style="opacity:0.992" fill="#e08e33" d="M 2058.5,436.5 C 2059.87,441.272 2060.7,446.272 2061,451.5C 2063.86,483.708 2062.36,515.708 2056.5,547.5C 2068.39,549.511 2080.22,551.844 2092,554.5C 2092.77,554.355 2093.44,554.022 2094,553.5C 2102.52,560.418 2111.18,567.085 2120,573.5C 2124.79,570.861 2129.62,568.528 2134.5,566.5C 2135.4,567.209 2135.74,568.209 2135.5,569.5C 2131.36,571.81 2127.2,574.144 2123,576.5C 2116.86,576.22 2110.36,575.72 2103.5,575C 2099.45,571.284 2095.12,567.95 2090.5,565C 2083.09,563.818 2075.76,562.318 2068.5,560.5C 2067.04,565.118 2065.71,569.784 2064.5,574.5C 2064.18,575.647 2063.52,576.481 2062.5,577C 2057.06,577.243 2051.72,578.077 2046.5,579.5C 2039.9,578.3 2033.57,576.3 2027.5,573.5C 2024.42,534.014 2017.75,495.014 2007.5,456.5C 2013.15,455.945 2018.82,455.445 2024.5,455C 2035.5,449.5 2046.5,444 2057.5,438.5C 2058.3,438.043 2058.63,437.376 2058.5,436.5 Z"/></g>
<g><path style="opacity:1" fill="#d68f3a" d="M 2135.5,569.5 C 2135.5,572.833 2135.5,576.167 2135.5,579.5C 2114.45,580.001 2093.11,580.501 2071.5,581C 2061.49,581.743 2051.49,582.576 2041.5,583.5C 2036.72,582.779 2032.05,582.446 2027.5,582.5C 2027.5,579.5 2027.5,576.5 2027.5,573.5C 2033.57,576.3 2039.9,578.3 2046.5,579.5C 2051.72,578.077 2057.06,577.243 2062.5,577C 2063.52,576.481 2064.18,575.647 2064.5,574.5C 2065.71,569.784 2067.04,565.118 2068.5,560.5C 2075.76,562.318 2083.09,563.818 2090.5,565C 2095.12,567.95 2099.45,571.284 2103.5,575C 2110.36,575.72 2116.86,576.22 2123,576.5C 2127.2,574.144 2131.36,571.81 2135.5,569.5 Z"/></g>
<g><path style="opacity:0.997" fill="#c69044" d="M 2135.5,579.5 C 2136.04,581.117 2136.37,582.784 2136.5,584.5C 2131.16,585.116 2125.83,585.782 2120.5,586.5C 2117.63,585.878 2114.8,585.211 2112,584.5C 2101.88,585.801 2091.72,585.801 2081.5,584.5C 2063.53,586.402 2045.53,587.736 2027.5,588.5C 2027.5,586.5 2027.5,584.5 2027.5,582.5C 2032.05,582.446 2036.72,582.779 2041.5,583.5C 2051.49,582.576 2061.49,581.743 2071.5,581C 2093.11,580.501 2114.45,580.001 2135.5,579.5 Z"/></g>
<g><path style="opacity:0.994" fill="#ba924d" d="M 2136.5,584.5 C 2136.5,586.167 2136.5,587.833 2136.5,589.5C 2117.7,590.178 2098.87,590.178 2080,589.5C 2062.85,590.892 2045.69,591.892 2028.5,592.5C 2028.17,591.167 2027.83,589.833 2027.5,588.5C 2045.53,587.736 2063.53,586.402 2081.5,584.5C 2091.72,585.801 2101.88,585.801 2112,584.5C 2114.8,585.211 2117.63,585.878 2120.5,586.5C 2125.83,585.782 2131.16,585.116 2136.5,584.5 Z"/></g>
<g><path style="opacity:1" fill="#ad9355" d="M 2136.5,589.5 C 2136.5,591.5 2136.5,593.5 2136.5,595.5C 2122.66,594.411 2108.83,594.411 2095,595.5C 2087.93,595.492 2080.93,594.825 2074,593.5C 2072.5,594 2071,594.5 2069.5,595C 2055.86,596.274 2042.19,597.108 2028.5,597.5C 2028.5,595.833 2028.5,594.167 2028.5,592.5C 2045.69,591.892 2062.85,590.892 2080,589.5C 2098.87,590.178 2117.7,590.178 2136.5,589.5 Z"/></g>
<g><path style="opacity:0.998" fill="#a1945e" d="M 2136.5,595.5 C 2136.5,597.167 2136.5,598.833 2136.5,600.5C 2122.16,599.426 2107.83,599.426 2093.5,600.5C 2087.66,599.87 2081.83,599.203 2076,598.5C 2060.23,600.465 2044.39,601.465 2028.5,601.5C 2028.5,600.167 2028.5,598.833 2028.5,597.5C 2042.19,597.108 2055.86,596.274 2069.5,595C 2071,594.5 2072.5,594 2074,593.5C 2080.93,594.825 2087.93,595.492 2095,595.5C 2108.83,594.411 2122.66,594.411 2136.5,595.5 Z"/></g>
<g><path style="opacity:0.998" fill="#949667" d="M 2136.5,600.5 C 2136.5,602.167 2136.5,603.833 2136.5,605.5C 2121.83,604.452 2107.16,604.452 2092.5,605.5C 2085.51,604.724 2078.51,604.057 2071.5,603.5C 2057.18,604.832 2042.85,605.832 2028.5,606.5C 2028.5,604.833 2028.5,603.167 2028.5,601.5C 2044.39,601.465 2060.23,600.465 2076,598.5C 2081.83,599.203 2087.66,599.87 2093.5,600.5C 2107.83,599.426 2122.16,599.426 2136.5,600.5 Z"/></g>
<g><path style="opacity:1" fill="#88976f" d="M 2136.5,605.5 C 2137.43,606.568 2137.77,607.901 2137.5,609.5C 2123.06,609.533 2108.56,609.866 2094,610.5C 2086.91,609.054 2079.74,608.387 2072.5,608.5C 2057.84,609.357 2043.17,610.023 2028.5,610.5C 2028.5,609.167 2028.5,607.833 2028.5,606.5C 2042.85,605.832 2057.18,604.832 2071.5,603.5C 2078.51,604.057 2085.51,604.724 2092.5,605.5C 2107.16,604.452 2121.83,604.452 2136.5,605.5 Z"/></g>
<g><path style="opacity:0.985" fill="#7b9878" d="M 2137.5,609.5 C 2137.5,611.167 2137.5,612.833 2137.5,614.5C 2121.52,614.455 2105.52,614.788 2089.5,615.5C 2083.23,614.348 2076.9,613.682 2070.5,613.5C 2056.35,614.323 2042.35,614.99 2028.5,615.5C 2028.5,613.833 2028.5,612.167 2028.5,610.5C 2043.17,610.023 2057.84,609.357 2072.5,608.5C 2079.74,608.387 2086.91,609.054 2094,610.5C 2108.56,609.866 2123.06,609.533 2137.5,609.5 Z"/></g>
<g><path style="opacity:0.98" fill="#6f9980" d="M 2137.5,614.5 C 2137.5,616.5 2137.5,618.5 2137.5,620.5C 2110.08,618.884 2082.58,617.884 2055,617.5C 2046.05,618.478 2037.21,619.811 2028.5,621.5C 2028.5,619.5 2028.5,617.5 2028.5,615.5C 2042.35,614.99 2056.35,614.323 2070.5,613.5C 2076.9,613.682 2083.23,614.348 2089.5,615.5C 2105.52,614.788 2121.52,614.455 2137.5,614.5 Z"/></g>
<g><path style="opacity:0.992" fill="#629b89" d="M 2137.5,620.5 C 2137.5,623.167 2137.5,625.833 2137.5,628.5C 2134.04,626.789 2130.37,625.455 2126.5,624.5C 2115.22,624.552 2104.06,624.552 2093,624.5C 2091.15,626.781 2089.48,626.781 2088,624.5C 2084.37,624.904 2080.54,624.904 2076.5,624.5C 2069.15,624.779 2061.82,625.279 2054.5,626C 2053.58,626.374 2052.75,626.874 2052,627.5C 2050.56,626.13 2048.89,625.13 2047,624.5C 2043.53,625.803 2040.03,625.803 2036.5,624.5C 2033.92,625.809 2031.25,626.809 2028.5,627.5C 2028.5,625.5 2028.5,623.5 2028.5,621.5C 2037.21,619.811 2046.05,618.478 2055,617.5C 2082.58,617.884 2110.08,618.884 2137.5,620.5 Z"/></g>
<g><path style="opacity:0.989" fill="#549c92" d="M 2137.5,628.5 C 2137.5,633.833 2137.5,639.167 2137.5,644.5C 2136.6,643.791 2136.26,642.791 2136.5,641.5C 2130.59,642.435 2124.76,643.769 2119,645.5C 2113.4,643.411 2107.73,642.745 2102,643.5C 2089.8,636.2 2077.8,636.2 2066,643.5C 2065.23,643.355 2064.56,643.022 2064,642.5C 2052.6,645.129 2041.43,644.129 2030.5,639.5C 2029.82,640.602 2029.16,641.602 2028.5,642.5C 2028.5,637.5 2028.5,632.5 2028.5,627.5C 2031.25,626.809 2033.92,625.809 2036.5,624.5C 2040.03,625.803 2043.53,625.803 2047,624.5C 2048.89,625.13 2050.56,626.13 2052,627.5C 2052.75,626.874 2053.58,626.374 2054.5,626C 2061.82,625.279 2069.15,624.779 2076.5,624.5C 2080.54,624.904 2084.37,624.904 2088,624.5C 2089.48,626.781 2091.15,626.781 2093,624.5C 2104.06,624.552 2115.22,624.552 2126.5,624.5C 2130.37,625.455 2134.04,626.789 2137.5,628.5 Z"/></g>
<g><path style="opacity:0.991" fill="#499d9a" d="M 2137.5,644.5 C 2137.24,652.252 2136.57,659.919 2135.5,667.5C 2120.54,665.292 2105.54,663.125 2090.5,661C 2088.22,660.767 2086.22,659.934 2084.5,658.5C 2071,658.949 2057.33,659.615 2043.5,660.5C 2039.88,659.576 2036.21,658.909 2032.5,658.5C 2030.16,658.363 2028.16,659.03 2026.5,660.5C 2027.43,654.547 2028.1,648.547 2028.5,642.5C 2029.16,641.602 2029.82,640.602 2030.5,639.5C 2041.43,644.129 2052.6,645.129 2064,642.5C 2064.56,643.022 2065.23,643.355 2066,643.5C 2077.8,636.2 2089.8,636.2 2102,643.5C 2107.73,642.745 2113.4,643.411 2119,645.5C 2124.76,643.769 2130.59,642.435 2136.5,641.5C 2136.26,642.791 2136.6,643.791 2137.5,644.5 Z"/></g>
<g><path style="opacity:0.991" fill="#3d9fa2" d="M 2135.5,667.5 C 2135.33,674.224 2134.66,680.891 2133.5,687.5C 2132.69,686.531 2131.69,685.698 2130.5,685C 2125.98,683.911 2121.48,682.745 2117,681.5C 2116.13,681.735 2115.29,682.069 2114.5,682.5C 2103.09,678.752 2091.59,675.085 2080,671.5C 2068.95,673.242 2057.78,674.408 2046.5,675C 2043.33,676.752 2040.33,678.752 2037.5,681C 2032.85,681.499 2028.18,681.666 2023.5,681.5C 2024.61,674.518 2025.61,667.518 2026.5,660.5C 2028.16,659.03 2030.16,658.363 2032.5,658.5C 2036.21,658.909 2039.88,659.576 2043.5,660.5C 2057.33,659.615 2071,658.949 2084.5,658.5C 2086.22,659.934 2088.22,660.767 2090.5,661C 2105.54,663.125 2120.54,665.292 2135.5,667.5 Z"/></g>
<g><path style="opacity:0.992" fill="#309faa" d="M 2133.5,687.5 C 2131.89,698.241 2129.89,708.907 2127.5,719.5C 2124.09,718.64 2120.76,717.474 2117.5,716C 2105.5,707 2093.5,698 2081.5,689C 2072.01,684.899 2064.01,686.899 2057.5,695C 2052.86,696.951 2048.19,698.951 2043.5,701C 2041.46,704.914 2039.29,708.748 2037,712.5C 2034.09,713.581 2031.59,715.248 2029.5,717.5C 2024.03,719.242 2018.53,720.909 2013,722.5C 2012.1,722.257 2011.26,721.923 2010.5,721.5C 2015.66,708.346 2020,695.012 2023.5,681.5C 2028.18,681.666 2032.85,681.499 2037.5,681C 2040.33,678.752 2043.33,676.752 2046.5,675C 2057.78,674.408 2068.95,673.242 2080,671.5C 2091.59,675.085 2103.09,678.752 2114.5,682.5C 2115.29,682.069 2116.13,681.735 2117,681.5C 2121.48,682.745 2125.98,683.911 2130.5,685C 2131.69,685.698 2132.69,686.531 2133.5,687.5 Z"/></g>
<g><path style="opacity:0.988" fill="#e3c235" d="M 1084.5,689.5 C 1096.08,689.991 1107.58,689.991 1119,689.5C 1126.77,691.078 1134.61,691.411 1142.5,690.5C 1142.62,716.583 1141.28,742.583 1138.5,768.5C 1137.61,783.055 1133.78,796.721 1127,809.5C 1120.77,813.033 1115.77,811.7 1112,805.5C 1103.64,790.431 1097.64,774.431 1094,757.5C 1088.82,735.108 1085.66,712.442 1084.5,689.5 Z"/></g>
<g><path style="opacity:0.998" fill="#289eae" d="M 2127.5,719.5 C 2126.32,724.56 2124.99,729.56 2123.5,734.5C 2110.26,729.919 2096.93,725.419 2083.5,721C 2079.25,718.29 2075.08,715.457 2071,712.5C 2067.92,717 2065.08,721.667 2062.5,726.5C 2063.04,727.748 2063.71,728.915 2064.5,730C 2064.17,730.333 2063.83,730.667 2063.5,731C 2065.78,734.177 2066.62,737.677 2066,741.5C 2062,748.833 2058,756.167 2054,763.5C 2049.29,767.054 2044.45,770.387 2039.5,773.5C 2035.42,773.265 2031.42,772.598 2027.5,771.5C 2022.38,765.222 2017.88,758.555 2014,751.5C 2013.67,751.833 2013.33,752.167 2013,752.5C 2009.25,750.372 2005.41,748.372 2001.5,746.5C 2000.7,746.043 2000.37,745.376 2000.5,744.5C 2003.83,736.828 2007.17,729.162 2010.5,721.5C 2011.26,721.923 2012.1,722.257 2013,722.5C 2018.53,720.909 2024.03,719.242 2029.5,717.5C 2031.59,715.248 2034.09,713.581 2037,712.5C 2039.29,708.748 2041.46,704.914 2043.5,701C 2048.19,698.951 2052.86,696.951 2057.5,695C 2064.01,686.899 2072.01,684.899 2081.5,689C 2093.5,698 2105.5,707 2117.5,716C 2120.76,717.474 2124.09,718.64 2127.5,719.5 Z"/></g>
<g><path style="opacity:0.991" fill="#229eb0" d="M 2123.5,734.5 C 2114.21,769.734 2100.54,803.067 2082.5,834.5C 2075.5,827.672 2068.34,821.005 2061,814.5C 2059.43,802.029 2057.27,789.695 2054.5,777.5C 2049.38,776.151 2044.38,774.817 2039.5,773.5C 2044.45,770.387 2049.29,767.054 2054,763.5C 2058,756.167 2062,748.833 2066,741.5C 2066.62,737.677 2065.78,734.177 2063.5,731C 2063.83,730.667 2064.17,730.333 2064.5,730C 2063.71,728.915 2063.04,727.748 2062.5,726.5C 2065.08,721.667 2067.92,717 2071,712.5C 2075.08,715.457 2079.25,718.29 2083.5,721C 2096.93,725.419 2110.26,729.919 2123.5,734.5 Z"/></g>
<g><path style="opacity:0.997" fill="#2398aa" d="M 2000.5,744.5 C 2000.37,745.376 2000.7,746.043 2001.5,746.5C 2005.41,748.372 2009.25,750.372 2013,752.5C 2013.33,752.167 2013.67,751.833 2014,751.5C 2017.88,758.555 2022.38,765.222 2027.5,771.5C 2031.42,772.598 2035.42,773.265 2039.5,773.5C 2044.38,774.817 2049.38,776.151 2054.5,777.5C 2057.27,789.695 2059.43,802.029 2061,814.5C 2068.34,821.005 2075.5,827.672 2082.5,834.5C 2065.79,866.879 2044.46,895.879 2018.5,921.5C 2014.08,913.586 2007.41,907.086 1998.5,902C 1987.03,890.527 1975.53,879.027 1964,867.5C 1962.89,864.105 1961.39,860.939 1959.5,858C 1951.71,854.226 1944.21,850.726 1937,847.5C 1934.46,843.072 1931.96,838.738 1929.5,834.5C 1958,808.095 1981.66,778.095 2000.5,744.5 Z"/></g>
<g><path style="opacity:0.995" fill="#136d8b" d="M 1297.5,803.5 C 1316.29,827.954 1338.29,848.954 1363.5,866.5C 1361.93,866.937 1360.76,867.937 1360,869.5C 1357.3,873.367 1354.8,877.367 1352.5,881.5C 1346.72,885.446 1341.72,890.279 1337.5,896C 1336.75,902.677 1335.58,909.51 1334,916.5C 1324.09,930.752 1313.76,944.752 1303,958.5C 1300.27,963.73 1297.77,969.064 1295.5,974.5C 1260.21,952.554 1229.54,925.221 1203.5,892.5C 1204.73,888.968 1206.07,885.468 1207.5,882C 1217.5,874.667 1227.5,867.333 1237.5,860C 1242.7,853.111 1248.04,846.278 1253.5,839.5C 1259.62,836.94 1265.62,834.106 1271.5,831C 1280.88,822.484 1289.54,813.317 1297.5,803.5 Z"/></g>
<g><path style="opacity:0.996" fill="#2292a5" d="M 1929.5,834.5 C 1931.96,838.738 1934.46,843.072 1937,847.5C 1944.21,850.726 1951.71,854.226 1959.5,858C 1961.39,860.939 1962.89,864.105 1964,867.5C 1975.53,879.027 1987.03,890.527 1998.5,902C 2007.41,907.086 2014.08,913.586 2018.5,921.5C 1990.56,951.776 1958.56,976.776 1922.5,996.5C 1916.39,992.562 1911.72,987.729 1908.5,982C 1901.08,973.911 1893.58,965.745 1886,957.5C 1886.74,950.724 1884.74,944.724 1880,939.5C 1876.11,926.119 1872.61,912.619 1869.5,899C 1866.36,893.888 1863.36,888.721 1860.5,883.5C 1872.1,876.024 1883.77,868.524 1895.5,861C 1907.01,852.31 1918.35,843.477 1929.5,834.5 Z"/></g>
<g><path style="opacity:0.996" fill="#15728e" d="M 1363.5,866.5 C 1378.34,875.423 1393.34,884.089 1408.5,892.5C 1404.97,899.718 1401.31,906.885 1397.5,914C 1400.81,928.374 1403.31,942.874 1405,957.5C 1391.52,964.299 1378.02,971.132 1364.5,978C 1363.98,978.561 1363.64,979.228 1363.5,980C 1368.03,988.897 1372.7,997.73 1377.5,1006.5C 1375.82,1009.19 1374.16,1011.86 1372.5,1014.5C 1345.19,1004.01 1319.52,990.681 1295.5,974.5C 1297.77,969.064 1300.27,963.73 1303,958.5C 1313.76,944.752 1324.09,930.752 1334,916.5C 1335.58,909.51 1336.75,902.677 1337.5,896C 1341.72,890.279 1346.72,885.446 1352.5,881.5C 1354.8,877.367 1357.3,873.367 1360,869.5C 1360.76,867.937 1361.93,866.937 1363.5,866.5 Z"/></g>
<g><path style="opacity:0.999" fill="#167590" d="M 1408.5,892.5 C 1426.33,900.09 1444.33,907.09 1462.5,913.5C 1460.72,918.232 1458.05,922.399 1454.5,926C 1454.83,926.333 1455.17,926.667 1455.5,927C 1454.17,930.333 1452.83,933.667 1451.5,937C 1451.83,937.333 1452.17,937.667 1452.5,938C 1451.5,939.667 1450.5,941.333 1449.5,943C 1449.83,943.333 1450.17,943.667 1450.5,944C 1446.87,952.093 1443.37,960.26 1440,968.5C 1440.07,973.944 1440.57,979.111 1441.5,984C 1440.18,997.56 1439.34,1010.73 1439,1023.5C 1436.81,1026.55 1435.14,1029.89 1434,1033.5C 1433.33,1034.25 1432.5,1034.59 1431.5,1034.5C 1411.2,1029.4 1391.54,1022.74 1372.5,1014.5C 1374.16,1011.86 1375.82,1009.19 1377.5,1006.5C 1372.7,997.73 1368.03,988.897 1363.5,980C 1363.64,979.228 1363.98,978.561 1364.5,978C 1378.02,971.132 1391.52,964.299 1405,957.5C 1403.31,942.874 1400.81,928.374 1397.5,914C 1401.31,906.885 1404.97,899.718 1408.5,892.5 Z"/></g>
<g><path style="opacity:0.995" fill="#208ca1" d="M 1860.5,883.5 C 1863.36,888.721 1866.36,893.888 1869.5,899C 1872.61,912.619 1876.11,926.119 1880,939.5C 1884.74,944.724 1886.74,950.724 1886,957.5C 1893.58,965.745 1901.08,973.911 1908.5,982C 1911.72,987.729 1916.39,992.562 1922.5,996.5C 1887.96,1016.43 1851.29,1031.43 1812.5,1041.5C 1809.56,1034.29 1806.06,1027.29 1802,1020.5C 1800.07,1009.07 1798.23,997.905 1796.5,987C 1786.58,966.395 1780.41,944.895 1778,922.5C 1777.29,921.027 1776.12,920.36 1774.5,920.5C 1804.1,910.516 1832.77,898.183 1860.5,883.5 Z"/></g>
<g><path style="opacity:0.997" fill="#177892" d="M 1462.5,913.5 C 1480.52,918.504 1498.52,923.171 1516.5,927.5C 1509.79,934.208 1503.46,941.208 1497.5,948.5C 1504.21,977.504 1512.54,1006 1522.5,1034C 1517.29,1039.71 1512.29,1045.54 1507.5,1051.5C 1481.59,1047.85 1456.26,1042.19 1431.5,1034.5C 1432.5,1034.59 1433.33,1034.25 1434,1033.5C 1435.14,1029.89 1436.81,1026.55 1439,1023.5C 1439.34,1010.73 1440.18,997.56 1441.5,984C 1440.57,979.111 1440.07,973.944 1440,968.5C 1443.37,960.26 1446.87,952.093 1450.5,944C 1450.17,943.667 1449.83,943.333 1449.5,943C 1450.5,941.333 1451.5,939.667 1452.5,938C 1452.17,937.667 1451.83,937.333 1451.5,937C 1452.83,933.667 1454.17,930.333 1455.5,927C 1455.17,926.667 1454.83,926.333 1454.5,926C 1458.05,922.399 1460.72,918.232 1462.5,913.5 Z"/></g>
<g><path style="opacity:0.997" fill="#1d869d" d="M 1774.5,920.5 C 1776.12,920.36 1777.29,921.027 1778,922.5C 1780.41,944.895 1786.58,966.395 1796.5,987C 1798.23,997.905 1800.07,1009.07 1802,1020.5C 1806.06,1027.29 1809.56,1034.29 1812.5,1041.5C 1775.37,1051.19 1737.7,1057.52 1699.5,1060.5C 1698.53,1059.69 1697.7,1058.69 1697,1057.5C 1694.56,1045.82 1692.06,1034.15 1689.5,1022.5C 1692.54,1008.24 1694.87,993.57 1696.5,978.5C 1694.66,968.08 1693,957.914 1691.5,948C 1691.66,945.508 1691.66,943.008 1691.5,940.5C 1691.94,939.261 1692.61,938.261 1693.5,937.5C 1721.01,934.205 1748.01,928.539 1774.5,920.5 Z"/></g>
<g><path style="opacity:0.997" fill="#197b94" d="M 1516.5,927.5 C 1535.07,930.817 1553.74,933.484 1572.5,935.5C 1571.39,946.641 1570.22,958.308 1569,970.5C 1566.54,978.895 1563.87,987.228 1561,995.5C 1561.4,1010.04 1562.57,1024.54 1564.5,1039C 1563.63,1045.79 1561.96,1052.29 1559.5,1058.5C 1542.09,1056.66 1524.76,1054.32 1507.5,1051.5C 1512.29,1045.54 1517.29,1039.71 1522.5,1034C 1512.54,1006 1504.21,977.504 1497.5,948.5C 1503.46,941.208 1509.79,934.208 1516.5,927.5 Z"/></g>
<g><path style="opacity:0.996" fill="#1b7f98" d="M 1572.5,935.5 C 1612.77,940.74 1653.1,941.407 1693.5,937.5C 1692.61,938.261 1691.94,939.261 1691.5,940.5C 1691.66,943.008 1691.66,945.508 1691.5,948C 1693,957.914 1694.66,968.08 1696.5,978.5C 1694.87,993.57 1692.54,1008.24 1689.5,1022.5C 1692.06,1034.15 1694.56,1045.82 1697,1057.5C 1697.7,1058.69 1698.53,1059.69 1699.5,1060.5C 1652.79,1062.29 1606.12,1061.63 1559.5,1058.5C 1561.96,1052.29 1563.63,1045.79 1564.5,1039C 1562.57,1024.54 1561.4,1010.04 1561,995.5C 1563.87,987.228 1566.54,978.895 1569,970.5C 1570.22,958.308 1571.39,946.641 1572.5,935.5 Z"/></g>
<g><path style="opacity:0.977" fill="#000000" d="M 1392.5,1113.5 C 1438.73,1110.48 1483.39,1117.32 1526.5,1134C 1540.03,1140.01 1552.86,1147.18 1565,1155.5C 1565.67,1156.5 1565.67,1157.5 1565,1158.5C 1557.06,1168.72 1548.9,1178.72 1540.5,1188.5C 1519.09,1171.29 1494.76,1160.13 1467.5,1155C 1434.29,1148.48 1400.96,1147.81 1367.5,1153C 1342.95,1155.68 1323.12,1166.52 1308,1185.5C 1298.41,1203.35 1298.07,1221.35 1307,1239.5C 1313.42,1247.14 1321.25,1252.97 1330.5,1257C 1341.9,1261.47 1353.57,1265.13 1365.5,1268C 1400.35,1275.75 1435.35,1282.75 1470.5,1289C 1491.27,1293.59 1511.6,1299.59 1531.5,1307C 1582.14,1328.8 1598.64,1365.96 1581,1418.5C 1570.78,1437.05 1556.28,1451.22 1537.5,1461C 1506.12,1475.34 1473.12,1482.68 1438.5,1483C 1375.2,1487.12 1315.2,1475.12 1258.5,1447C 1249.58,1441.63 1240.75,1436.13 1232,1430.5C 1231.33,1429.5 1231.33,1428.5 1232,1427.5C 1240.03,1417.15 1248.36,1407.15 1257,1397.5C 1286.5,1419.16 1319.33,1433.66 1355.5,1441C 1398.6,1449.98 1441.6,1449.65 1484.5,1440C 1502.75,1435.64 1517.59,1426.14 1529,1411.5C 1541.89,1382.16 1534.39,1359.66 1506.5,1344C 1493.01,1337.61 1479.01,1332.61 1464.5,1329C 1427.61,1320.82 1390.61,1313.15 1353.5,1306C 1329.44,1300.98 1306.44,1292.98 1284.5,1282C 1260.12,1268.25 1248.12,1247.25 1248.5,1219C 1249.14,1186.7 1262.81,1161.7 1289.5,1144C 1311.11,1130.87 1334.45,1122.2 1359.5,1118C 1370.6,1116.16 1381.6,1114.66 1392.5,1113.5 Z"/></g>
<g><path style="opacity:0.976" fill="#000000" d="M 2638.5,1113.5 C 2684.52,1111.07 2727.85,1120.57 2768.5,1142C 2791.41,1155.25 2810.08,1172.91 2824.5,1195C 2811.67,1202.16 2798.51,1208.66 2785,1214.5C 2766.12,1187.12 2740.62,1168.62 2708.5,1159C 2653.92,1143.16 2601.58,1148.49 2551.5,1175C 2503.23,1205.36 2479.4,1249.19 2480,1306.5C 2484.2,1345.07 2500.7,1377.23 2529.5,1403C 2583.17,1445.8 2643.17,1457.47 2709.5,1438C 2744.24,1428.41 2771.74,1408.91 2792,1379.5C 2806.11,1384.76 2819.95,1390.59 2833.5,1397C 2820.45,1419.72 2802.45,1437.38 2779.5,1450C 2714.14,1484.3 2645.81,1491.97 2574.5,1473C 2515.28,1454.1 2471.78,1416.93 2444,1361.5C 2416.43,1288.94 2430.6,1225.77 2486.5,1172C 2518.96,1143.61 2556.63,1125.61 2599.5,1118C 2612.59,1115.96 2625.59,1114.46 2638.5,1113.5 Z"/></g>
<g><path style="opacity:0.986" fill="#000000" d="M 65.5,1115.5 C 168.167,1115.5 270.833,1115.5 373.5,1115.5C 373.5,1127.5 373.5,1139.5 373.5,1151.5C 287.167,1151.5 200.833,1151.5 114.5,1151.5C 114.5,1193.5 114.5,1235.5 114.5,1277.5C 189.833,1277.5 265.167,1277.5 340.5,1277.5C 340.5,1288.83 340.5,1300.17 340.5,1311.5C 265.167,1311.5 189.833,1311.5 114.5,1311.5C 114.5,1355.83 114.5,1400.17 114.5,1444.5C 202.833,1444.5 291.167,1444.5 379.5,1444.5C 379.5,1456.5 379.5,1468.5 379.5,1480.5C 274.833,1480.5 170.167,1480.5 65.5,1480.5C 65.5,1358.83 65.5,1237.17 65.5,1115.5 Z"/></g>
<g><path style="opacity:0.975" fill="#000000" d="M 411.5,1115.5 C 430.179,1115.17 448.845,1115.5 467.5,1116.5C 517,1180.17 566.5,1243.83 616,1307.5C 666.357,1243.98 716.524,1180.31 766.5,1116.5C 784.833,1115.17 803.167,1115.17 821.5,1116.5C 761.857,1192.64 702.024,1268.64 642,1344.5C 641.5,1389.83 641.333,1435.17 641.5,1480.5C 624.833,1480.5 608.167,1480.5 591.5,1480.5C 591.667,1434.83 591.5,1389.17 591,1343.5C 533.333,1270.83 475.667,1198.17 418,1125.5C 415.563,1122.28 413.397,1118.95 411.5,1115.5 Z"/></g>
<g><path style="opacity:0.982" fill="#000000" d="M 883.5,1115.5 C 986.167,1115.5 1088.83,1115.5 1191.5,1115.5C 1191.5,1127.5 1191.5,1139.5 1191.5,1151.5C 1105.5,1151.5 1019.5,1151.5 933.5,1151.5C 933.5,1193.5 933.5,1235.5 933.5,1277.5C 1008.5,1277.5 1083.5,1277.5 1158.5,1277.5C 1158.5,1288.83 1158.5,1300.17 1158.5,1311.5C 1083.5,1311.5 1008.5,1311.5 933.5,1311.5C 933.5,1355.83 933.5,1400.17 933.5,1444.5C 1021.5,1444.5 1109.5,1444.5 1197.5,1444.5C 1197.5,1456.5 1197.5,1468.5 1197.5,1480.5C 1092.83,1480.5 988.167,1480.5 883.5,1480.5C 883.5,1358.83 883.5,1237.17 883.5,1115.5 Z"/></g>
<g><path style="opacity:0.978" fill="#000000" d="M 1663.5,1115.5 C 1730.5,1115.33 1797.5,1115.5 1864.5,1116C 1915.98,1118.64 1955.48,1141.48 1983,1184.5C 2003.04,1224.72 1999.37,1262.72 1972,1298.5C 1946.5,1328.34 1914,1344.5 1874.5,1347C 1820.83,1347.5 1767.17,1347.67 1713.5,1347.5C 1713.5,1391.83 1713.5,1436.17 1713.5,1480.5C 1696.83,1480.5 1680.17,1480.5 1663.5,1480.5C 1663.5,1358.83 1663.5,1237.17 1663.5,1115.5 Z M 1713.5,1151.5 C 1762.83,1151.33 1812.17,1151.5 1861.5,1152C 1892.32,1154.86 1916.82,1168.69 1935,1193.5C 1951,1222.85 1949.33,1251.18 1930,1278.5C 1914.53,1297.82 1894.36,1308.66 1869.5,1311C 1817.5,1311.5 1765.5,1311.67 1713.5,1311.5C 1713.5,1258.17 1713.5,1204.83 1713.5,1151.5 Z"/></g>
<g><path style="opacity:0.979" fill="#000000" d="M 2181.5,1115.5 C 2195.17,1115.33 2208.84,1115.5 2222.5,1116C 2287.29,1237.09 2351.96,1358.25 2416.5,1479.5C 2398.84,1480.67 2381.18,1480.83 2363.5,1480C 2343.25,1442.83 2323.25,1405.49 2303.5,1368C 2235.5,1367.33 2167.5,1367.33 2099.5,1368C 2079.71,1405.09 2060.04,1442.25 2040.5,1479.5C 2022.5,1480.83 2004.5,1480.83 1986.5,1479.5C 2051.51,1358.14 2116.51,1236.81 2181.5,1115.5 Z M 2201.5,1165.5 C 2231.39,1221.61 2261.06,1277.95 2290.5,1334.5C 2230.84,1335.67 2171.17,1335.83 2111.5,1335C 2141.64,1278.55 2171.64,1222.05 2201.5,1165.5 Z"/></g>
<g><path style="opacity:0.981" fill="#000000" d="M 2905.5,1115.5 C 3008.5,1115.5 3111.5,1115.5 3214.5,1115.5C 3214.5,1127.5 3214.5,1139.5 3214.5,1151.5C 3128.17,1151.5 3041.83,1151.5 2955.5,1151.5C 2955.5,1193.5 2955.5,1235.5 2955.5,1277.5C 3030.5,1277.5 3105.5,1277.5 3180.5,1277.5C 3180.5,1288.83 3180.5,1300.17 3180.5,1311.5C 3105.5,1311.5 3030.5,1311.5 2955.5,1311.5C 2955.5,1355.83 2955.5,1400.17 2955.5,1444.5C 3043.5,1444.5 3131.5,1444.5 3219.5,1444.5C 3219.5,1456.5 3219.5,1468.5 3219.5,1480.5C 3114.83,1480.5 3010.17,1480.5 2905.5,1480.5C 2905.5,1358.83 2905.5,1237.17 2905.5,1115.5 Z"/></g>
</svg>
