<?xml version="1.0" encoding="UTF-8"?>
<svg id="Layer_2" data-name="Layer 2" xmlns="http://www.w3.org/2000/svg" xmlns:xlink="http://www.w3.org/1999/xlink" viewBox="0 0 1308.36 1133.39">
  <defs>
    <style>
      .cls-1 {
        stroke: url(#linear-gradient);
      }

      .cls-1, .cls-2, .cls-3, .cls-4, .cls-5, .cls-6, .cls-7, .cls-8, .cls-9, .cls-10, .cls-11, .cls-12, .cls-13, .cls-14, .cls-15, .cls-16, .cls-17, .cls-18, .cls-19, .cls-20, .cls-21, .cls-22, .cls-23, .cls-24, .cls-25, .cls-26, .cls-27, .cls-28, .cls-29, .cls-30, .cls-31, .cls-32, .cls-33, .cls-34, .cls-35, .cls-36, .cls-37, .cls-38, .cls-39, .cls-40, .cls-41, .cls-42, .cls-43, .cls-44, .cls-45, .cls-46, .cls-47, .cls-48, .cls-49, .cls-50, .cls-51, .cls-52, .cls-53, .cls-54, .cls-55, .cls-56, .cls-57, .cls-58, .cls-59, .cls-60, .cls-61, .cls-62, .cls-63, .cls-64, .cls-65, .cls-66, .cls-67, .cls-68, .cls-69, .cls-70, .cls-71, .cls-72, .cls-73, .cls-74, .cls-75, .cls-76, .cls-77, .cls-78, .cls-79, .cls-80, .cls-81, .cls-82, .cls-83, .cls-84, .cls-85, .cls-86, .cls-87, .cls-88, .cls-89, .cls-90, .cls-91, .cls-92, .cls-93, .cls-94, .cls-95, .cls-96, .cls-97, .cls-98, .cls-99, .cls-100, .cls-101, .cls-102, .cls-103, .cls-104, .cls-105, .cls-106, .cls-107, .cls-108, .cls-109, .cls-110, .cls-111, .cls-112, .cls-113, .cls-114, .cls-115, .cls-116, .cls-117, .cls-118, .cls-119, .cls-120, .cls-121, .cls-122, .cls-123 {
        fill: none;
        stroke-miterlimit: 10;
        stroke-width: 3px;
      }

      .cls-2 {
        stroke: url(#linear-gradient-117);
      }

      .cls-3 {
        stroke: url(#linear-gradient-110);
      }

      .cls-4 {
        stroke: url(#linear-gradient-113);
      }

      .cls-5 {
        stroke: url(#linear-gradient-116);
      }

      .cls-6 {
        stroke: url(#linear-gradient-115);
      }

      .cls-7 {
        stroke: url(#linear-gradient-114);
      }

      .cls-8 {
        stroke: url(#linear-gradient-118);
      }

      .cls-9 {
        stroke: url(#linear-gradient-112);
      }

      .cls-10 {
        stroke: url(#linear-gradient-111);
      }

      .cls-11 {
        stroke: url(#linear-gradient-119);
      }

      .cls-12 {
        stroke: url(#linear-gradient-105);
      }

      .cls-13 {
        stroke: url(#linear-gradient-107);
      }

      .cls-14 {
        stroke: url(#linear-gradient-100);
      }

      .cls-15 {
        stroke: url(#linear-gradient-101);
      }

      .cls-16 {
        stroke: url(#linear-gradient-106);
      }

      .cls-17 {
        stroke: url(#linear-gradient-102);
      }

      .cls-18 {
        stroke: url(#linear-gradient-103);
      }

      .cls-19 {
        stroke: url(#linear-gradient-109);
      }

      .cls-20 {
        stroke: url(#linear-gradient-104);
      }

      .cls-21 {
        stroke: url(#linear-gradient-108);
      }

      .cls-22 {
        stroke: url(#linear-gradient-121);
      }

      .cls-23 {
        stroke: url(#linear-gradient-123);
      }

      .cls-24 {
        stroke: url(#linear-gradient-120);
      }

      .cls-25 {
        stroke: url(#linear-gradient-122);
      }

      .cls-26 {
        stroke: url(#linear-gradient-3);
      }

      .cls-27 {
        stroke: url(#linear-gradient-4);
      }

      .cls-28 {
        stroke: url(#linear-gradient-2);
      }

      .cls-29 {
        stroke: url(#linear-gradient-7);
      }

      .cls-30 {
        stroke: url(#linear-gradient-6);
      }

      .cls-31 {
        stroke: url(#linear-gradient-5);
      }

      .cls-32 {
        stroke: url(#linear-gradient-9);
      }

      .cls-33 {
        stroke: url(#linear-gradient-8);
      }

      .cls-34 {
        stroke: url(#linear-gradient-39);
      }

      .cls-35 {
        stroke: url(#linear-gradient-36);
      }

      .cls-36 {
        stroke: url(#linear-gradient-37);
      }

      .cls-37 {
        stroke: url(#linear-gradient-27);
      }

      .cls-38 {
        stroke: url(#linear-gradient-25);
      }

      .cls-39 {
        stroke: url(#linear-gradient-28);
      }

      .cls-40 {
        stroke: url(#linear-gradient-29);
      }

      .cls-41 {
        stroke: url(#linear-gradient-26);
      }

      .cls-42 {
        stroke: url(#linear-gradient-24);
      }

      .cls-43 {
        stroke: url(#linear-gradient-35);
      }

      .cls-44 {
        stroke: url(#linear-gradient-34);
      }

      .cls-45 {
        stroke: url(#linear-gradient-38);
      }

      .cls-46 {
        stroke: url(#linear-gradient-33);
      }

      .cls-47 {
        stroke: url(#linear-gradient-30);
      }

      .cls-48 {
        stroke: url(#linear-gradient-32);
      }

      .cls-49 {
        stroke: url(#linear-gradient-31);
      }

      .cls-50 {
        stroke: url(#linear-gradient-66);
      }

      .cls-51 {
        stroke: url(#linear-gradient-53);
      }

      .cls-52 {
        stroke: url(#linear-gradient-65);
      }

      .cls-53 {
        stroke: url(#linear-gradient-62);
      }

      .cls-54 {
        stroke: url(#linear-gradient-68);
      }

      .cls-55 {
        stroke: url(#linear-gradient-67);
      }

      .cls-56 {
        stroke: url(#linear-gradient-63);
      }

      .cls-57 {
        stroke: url(#linear-gradient-61);
      }

      .cls-58 {
        stroke: url(#linear-gradient-64);
      }

      .cls-59 {
        stroke: url(#linear-gradient-60);
      }

      .cls-60 {
        stroke: url(#linear-gradient-51);
      }

      .cls-61 {
        stroke: url(#linear-gradient-52);
      }

      .cls-62 {
        stroke: url(#linear-gradient-50);
      }

      .cls-63 {
        stroke: url(#linear-gradient-55);
      }

      .cls-64 {
        stroke: url(#linear-gradient-56);
      }

      .cls-65 {
        stroke: url(#linear-gradient-54);
      }

      .cls-66 {
        stroke: url(#linear-gradient-59);
      }

      .cls-67 {
        stroke: url(#linear-gradient-69);
      }

      .cls-68 {
        stroke: url(#linear-gradient-57);
      }

      .cls-69 {
        stroke: url(#linear-gradient-58);
      }

      .cls-70 {
        stroke: url(#linear-gradient-70);
      }

      .cls-71 {
        stroke: url(#linear-gradient-71);
      }

      .cls-72 {
        stroke: url(#linear-gradient-77);
      }

      .cls-73 {
        stroke: url(#linear-gradient-78);
      }

      .cls-74 {
        stroke: url(#linear-gradient-79);
      }

      .cls-75 {
        stroke: url(#linear-gradient-72);
      }

      .cls-76 {
        stroke: url(#linear-gradient-73);
      }

      .cls-77 {
        stroke: url(#linear-gradient-74);
      }

      .cls-78 {
        stroke: url(#linear-gradient-75);
      }

      .cls-79 {
        stroke: url(#linear-gradient-76);
      }

      .cls-80 {
        stroke: url(#linear-gradient-23);
      }

      .cls-81 {
        stroke: url(#linear-gradient-20);
      }

      .cls-82 {
        stroke: url(#linear-gradient-14);
      }

      .cls-83 {
        stroke: url(#linear-gradient-16);
      }

      .cls-84 {
        stroke: url(#linear-gradient-18);
      }

      .cls-85 {
        stroke: url(#linear-gradient-15);
      }

      .cls-86 {
        stroke: url(#linear-gradient-17);
      }

      .cls-87 {
        stroke: url(#linear-gradient-19);
      }

      .cls-88 {
        stroke: url(#linear-gradient-10);
      }

      .cls-89 {
        stroke: url(#linear-gradient-12);
      }

      .cls-90 {
        stroke: url(#linear-gradient-13);
      }

      .cls-91 {
        stroke: url(#linear-gradient-11);
      }

      .cls-92 {
        stroke: url(#linear-gradient-22);
      }

      .cls-93 {
        stroke: url(#linear-gradient-21);
      }

      .cls-94 {
        stroke: url(#linear-gradient-87);
      }

      .cls-95 {
        stroke: url(#linear-gradient-86);
      }

      .cls-96 {
        stroke: url(#linear-gradient-88);
      }

      .cls-97 {
        stroke: url(#linear-gradient-89);
      }

      .cls-98 {
        stroke: url(#linear-gradient-93);
      }

      .cls-99 {
        stroke: url(#linear-gradient-92);
      }

      .cls-100 {
        stroke: url(#linear-gradient-90);
      }

      .cls-101 {
        stroke: url(#linear-gradient-95);
      }

      .cls-102 {
        stroke: url(#linear-gradient-94);
      }

      .cls-103 {
        stroke: url(#linear-gradient-97);
      }

      .cls-104 {
        stroke: url(#linear-gradient-96);
      }

      .cls-105 {
        stroke: url(#linear-gradient-91);
      }

      .cls-106 {
        stroke: url(#linear-gradient-98);
      }

      .cls-107 {
        stroke: url(#linear-gradient-99);
      }

      .cls-108 {
        stroke: url(#linear-gradient-82);
      }

      .cls-109 {
        stroke: url(#linear-gradient-83);
      }

      .cls-110 {
        stroke: url(#linear-gradient-80);
      }

      .cls-111 {
        stroke: url(#linear-gradient-81);
      }

      .cls-112 {
        stroke: url(#linear-gradient-84);
      }

      .cls-113 {
        stroke: url(#linear-gradient-85);
      }

      .cls-114 {
        stroke: url(#linear-gradient-40);
      }

      .cls-115 {
        stroke: url(#linear-gradient-41);
      }

      .cls-116 {
        stroke: url(#linear-gradient-42);
      }

      .cls-117 {
        stroke: url(#linear-gradient-43);
      }

      .cls-118 {
        stroke: url(#linear-gradient-47);
      }

      .cls-119 {
        stroke: url(#linear-gradient-48);
      }

      .cls-120 {
        stroke: url(#linear-gradient-45);
      }

      .cls-121 {
        stroke: url(#linear-gradient-46);
      }

      .cls-122 {
        stroke: url(#linear-gradient-49);
      }

      .cls-123 {
        stroke: url(#linear-gradient-44);
      }
    </style>
    <linearGradient id="linear-gradient" x1="294.06" y1="498.53" x2="1284.65" y2="498.53" gradientUnits="userSpaceOnUse">
      <stop offset="0" stop-color="#e4c432"/>
      <stop offset="1" stop-color="#e08f32"/>
    </linearGradient>
    <linearGradient id="linear-gradient-2" x1="308.81" y1="482.36" x2="1299.48" y2="482.36" xlink:href="#linear-gradient"/>
    <linearGradient id="linear-gradient-3" x1="304.7" y1="480.02" x2="1307.77" y2="480.02" xlink:href="#linear-gradient"/>
    <linearGradient id="linear-gradient-4" x1="285.79" y1="505.79" x2="1287.39" y2="505.79" xlink:href="#linear-gradient"/>
    <linearGradient id="linear-gradient-5" x1="296.22" y1="501.22" x2="1285.26" y2="501.22" xlink:href="#linear-gradient"/>
    <linearGradient id="linear-gradient-6" x1="310.97" y1="485.06" x2="1300.09" y2="485.06" xlink:href="#linear-gradient"/>
    <linearGradient id="linear-gradient-7" x1="306.65" y1="482.92" x2="1308.36" y2="482.92" xlink:href="#linear-gradient"/>
    <linearGradient id="linear-gradient-8" x1="283.84" y1="502.89" x2="1286.8" y2="502.89" xlink:href="#linear-gradient"/>
    <linearGradient id="linear-gradient-9" x1="286.83" y1="504.12" x2="1287.06" y2="504.12" xlink:href="#linear-gradient"/>
    <linearGradient id="linear-gradient-10" x1="567.79" y1="437.6" x2="1125.8" y2="437.6" xlink:href="#linear-gradient"/>
    <linearGradient id="linear-gradient-11" x1="850.85" y1="382.53" x2="946.13" y2="382.53" xlink:href="#linear-gradient"/>
    <linearGradient id="linear-gradient-12" x1="687.25" y1="405.9" x2="1066.06" y2="405.9" xlink:href="#linear-gradient"/>
    <linearGradient id="linear-gradient-13" x1="398.43" y1="481.72" x2="1215.35" y2="481.72" xlink:href="#linear-gradient"/>
    <linearGradient id="linear-gradient-14" x1="465.35" y1="441.58" x2="1221.89" y2="441.58" xlink:href="#linear-gradient"/>
    <linearGradient id="linear-gradient-15" x1="752.26" y1="373.29" x2="1061.08" y2="373.29" xlink:href="#linear-gradient"/>
    <linearGradient id="linear-gradient-16" x1="843" y1="351.16" x2="1010.19" y2="351.16" xlink:href="#linear-gradient"/>
    <linearGradient id="linear-gradient-17" x1="557.96" y1="416.28" x2="1175.87" y2="416.28" xlink:href="#linear-gradient"/>
    <linearGradient id="linear-gradient-18" x1="898.12" y1="319.24" x2="1081.77" y2="319.24" xlink:href="#linear-gradient"/>
    <linearGradient id="linear-gradient-19" x1="788.25" y1="222.71" x2="936.01" y2="222.71" xlink:href="#linear-gradient"/>
    <linearGradient id="linear-gradient-20" x1="518.86" y1="192.41" x2="931.89" y2="192.41" xlink:href="#linear-gradient"/>
    <linearGradient id="linear-gradient-21" x1="333.05" y1="236.59" x2="932.2" y2="236.59" xlink:href="#linear-gradient"/>
    <linearGradient id="linear-gradient-22" x1="290.36" y1="341.56" x2="932.29" y2="341.56" xlink:href="#linear-gradient"/>
    <linearGradient id="linear-gradient-23" x1="404.17" y1="472.86" x2="932.48" y2="472.86" xlink:href="#linear-gradient"/>
    <linearGradient id="linear-gradient-24" x1="640.77" y1="594.68" x2="933.22" y2="594.68" xlink:href="#linear-gradient"/>
    <linearGradient id="linear-gradient-25" x1="897.72" y1="658.83" x2="957.31" y2="658.83" xlink:href="#linear-gradient"/>
    <linearGradient id="linear-gradient-26" x1="898.34" y1="650.16" x2="1186.41" y2="650.16" xlink:href="#linear-gradient"/>
    <linearGradient id="linear-gradient-27" x1="898.55" y1="571.08" x2="1303.07" y2="571.08" xlink:href="#linear-gradient"/>
    <linearGradient id="linear-gradient-28" x1="898.72" y1="377.22" x2="910.05" y2="377.22" xlink:href="#linear-gradient"/>
    <linearGradient id="linear-gradient-29" x1="924.55" y1="348.99" x2="935.87" y2="348.99" xlink:href="#linear-gradient"/>
    <linearGradient id="linear-gradient-30" x1="308.91" y1="482.21" x2="1299.48" y2="482.21" xlink:href="#linear-gradient"/>
    <linearGradient id="linear-gradient-31" x1="296.61" y1="501.29" x2="1285.18" y2="501.29" xlink:href="#linear-gradient"/>
    <linearGradient id="linear-gradient-32" x1="898.68" y1="377.23" x2="909.76" y2="377.23" xlink:href="#linear-gradient"/>
    <linearGradient id="linear-gradient-33" x1="924.5" y1="349" x2="935.58" y2="349" xlink:href="#linear-gradient"/>
    <linearGradient id="linear-gradient-34" x1="311.36" y1="485.12" x2="1300" y2="485.12" xlink:href="#linear-gradient"/>
    <linearGradient id="linear-gradient-35" x1="294.16" y1="498.38" x2="1284.65" y2="498.38" xlink:href="#linear-gradient"/>
    <linearGradient id="linear-gradient-36" x1="297.09" y1="499.56" x2="1284.97" y2="499.56" xlink:href="#linear-gradient"/>
    <linearGradient id="linear-gradient-37" x1="437.25" y1="470.04" x2="1201.29" y2="470.04" xlink:href="#linear-gradient"/>
    <linearGradient id="linear-gradient-38" x1="584.34" y1="429.81" x2="1124.67" y2="429.81" xlink:href="#linear-gradient"/>
    <linearGradient id="linear-gradient-39" x1="729.06" y1="397.3" x2="1038.96" y2="397.3" xlink:href="#linear-gradient"/>
    <linearGradient id="linear-gradient-40" x1="868.72" y1="377.65" x2="936.72" y2="377.65" xlink:href="#linear-gradient"/>
    <linearGradient id="linear-gradient-41" x1="869.86" y1="352.22" x2="984.99" y2="352.22" xlink:href="#linear-gradient"/>
    <linearGradient id="linear-gradient-42" x1="723.56" y1="380.57" x2="1076.46" y2="380.57" xlink:href="#linear-gradient"/>
    <linearGradient id="linear-gradient-43" x1="577.51" y1="415.57" x2="1156.54" y2="415.57" xlink:href="#linear-gradient"/>
    <linearGradient id="linear-gradient-44" x1="432.34" y1="449.83" x2="1243.82" y2="449.83" xlink:href="#linear-gradient"/>
    <linearGradient id="linear-gradient-45" x1="903.2" y1="318.96" x2="1076.51" y2="318.96" xlink:href="#linear-gradient"/>
    <linearGradient id="linear-gradient-46" x1="792.3" y1="224.83" x2="929.84" y2="224.83" xlink:href="#linear-gradient"/>
    <linearGradient id="linear-gradient-47" x1="526.15" y1="193.91" x2="928.38" y2="193.91" xlink:href="#linear-gradient"/>
    <linearGradient id="linear-gradient-48" x1="342.85" y1="238.56" x2="927.47" y2="238.56" xlink:href="#linear-gradient"/>
    <linearGradient id="linear-gradient-49" x1="300.64" y1="342.05" x2="927.68" y2="342.05" xlink:href="#linear-gradient"/>
    <linearGradient id="linear-gradient-50" x1="412.54" y1="471.95" x2="930.32" y2="471.95" xlink:href="#linear-gradient"/>
    <linearGradient id="linear-gradient-51" x1="645.84" y1="590.52" x2="932.21" y2="590.52" xlink:href="#linear-gradient"/>
    <linearGradient id="linear-gradient-52" x1="901.75" y1="655.99" x2="952.94" y2="655.99" xlink:href="#linear-gradient"/>
    <linearGradient id="linear-gradient-53" x1="903.02" y1="647.48" x2="1179.53" y2="647.48" xlink:href="#linear-gradient"/>
    <linearGradient id="linear-gradient-54" x1="903.44" y1="568.24" x2="1294.88" y2="568.24" xlink:href="#linear-gradient"/>
    <linearGradient id="linear-gradient-55" x1="226.47" y1="926.81" x2="228.64" y2="926.81" gradientUnits="userSpaceOnUse">
      <stop offset="0" stop-color="#166585"/>
      <stop offset="1" stop-color="#2ba6b5"/>
    </linearGradient>
    <linearGradient id="linear-gradient-56" x1="358.75" y1="782.21" x2="360.93" y2="782.21" xlink:href="#linear-gradient-55"/>
    <linearGradient id="linear-gradient-57" x1="356" y1="783.05" x2="361.34" y2="783.05" xlink:href="#linear-gradient-55"/>
    <linearGradient id="linear-gradient-58" x1="225.75" y1="925.43" x2="231.08" y2="925.43" xlink:href="#linear-gradient-55"/>
    <linearGradient id="linear-gradient-59" x1="226.47" y1="926.82" x2="228.49" y2="926.82" xlink:href="#linear-gradient-55"/>
    <linearGradient id="linear-gradient-60" x1="358.75" y1="782.22" x2="360.78" y2="782.22" xlink:href="#linear-gradient-55"/>
    <linearGradient id="linear-gradient-61" x1="355.88" y1="783.08" x2="361.13" y2="783.08" xlink:href="#linear-gradient-55"/>
    <linearGradient id="linear-gradient-62" x1="225.62" y1="925.46" x2="230.87" y2="925.46" xlink:href="#linear-gradient-55"/>
    <linearGradient id="linear-gradient-63" x1="3.92" y1="851.55" x2="590.24" y2="851.55" xlink:href="#linear-gradient-55"/>
    <linearGradient id="linear-gradient-64" x1="6.01" y1="850.94" x2="589.26" y2="850.94" xlink:href="#linear-gradient-55"/>
    <linearGradient id="linear-gradient-65" x1="30.95" y1="895.72" x2="481.12" y2="895.72" xlink:href="#linear-gradient-55"/>
    <linearGradient id="linear-gradient-66" x1="112.35" y1="811.15" x2="554.91" y2="811.15" xlink:href="#linear-gradient-55"/>
    <linearGradient id="linear-gradient-67" x1="101.69" y1="916.14" x2="374.18" y2="916.14" xlink:href="#linear-gradient-55"/>
    <linearGradient id="linear-gradient-68" x1="219.45" y1="790.89" x2="485.69" y2="790.89" xlink:href="#linear-gradient-55"/>
    <linearGradient id="linear-gradient-69" x1="188.64" y1="923.98" x2="273.64" y2="923.98" xlink:href="#linear-gradient-55"/>
    <linearGradient id="linear-gradient-70" x1="320.7" y1="782.14" x2="400.81" y2="782.14" xlink:href="#linear-gradient-55"/>
    <linearGradient id="linear-gradient-71" x1="260.69" y1="889.28" x2="264.09" y2="889.28" xlink:href="#linear-gradient-55"/>
    <linearGradient id="linear-gradient-72" x1="319.52" y1="822.79" x2="325" y2="822.79" xlink:href="#linear-gradient-55"/>
    <linearGradient id="linear-gradient-73" x1="322.29" y1="821.95" x2="325.69" y2="821.95" xlink:href="#linear-gradient-55"/>
    <linearGradient id="linear-gradient-74" x1="258.73" y1="889.25" x2="264.2" y2="889.25" xlink:href="#linear-gradient-55"/>
    <linearGradient id="linear-gradient-75" x1="321.65" y1="781.11" x2="401.35" y2="781.11" xlink:href="#linear-gradient-55"/>
    <linearGradient id="linear-gradient-76" x1="187.9" y1="922.73" x2="276.85" y2="922.73" xlink:href="#linear-gradient-55"/>
    <linearGradient id="linear-gradient-77" x1="219.69" y1="789.83" x2="487.23" y2="789.83" xlink:href="#linear-gradient-55"/>
    <linearGradient id="linear-gradient-78" x1="102.2" y1="914.87" x2="375.76" y2="914.87" xlink:href="#linear-gradient-55"/>
    <linearGradient id="linear-gradient-79" x1="111.15" y1="810.42" x2="557.81" y2="810.42" xlink:href="#linear-gradient-55"/>
    <linearGradient id="linear-gradient-80" x1="32.33" y1="894.67" x2="481.88" y2="894.67" xlink:href="#linear-gradient-55"/>
    <linearGradient id="linear-gradient-81" x1="227.13" y1="816.75" x2="466.08" y2="816.75" xlink:href="#linear-gradient-55"/>
    <linearGradient id="linear-gradient-82" x1="229" y1="816.48" x2="464.79" y2="816.48" xlink:href="#linear-gradient-55"/>
    <linearGradient id="linear-gradient-83" x1="226.56" y1="765.43" x2="362.14" y2="765.43" xlink:href="#linear-gradient-55"/>
    <linearGradient id="linear-gradient-84" x1="227.59" y1="764.76" x2="361.08" y2="764.76" xlink:href="#linear-gradient-55"/>
    <linearGradient id="linear-gradient-85" x1="128.07" y1="747.06" x2="362.13" y2="747.06" xlink:href="#linear-gradient-55"/>
    <linearGradient id="linear-gradient-86" x1="130.71" y1="746.39" x2="360.29" y2="746.39" xlink:href="#linear-gradient-55"/>
    <linearGradient id="linear-gradient-87" x1="24.9" y1="772.04" x2="362.36" y2="772.04" xlink:href="#linear-gradient-55"/>
    <linearGradient id="linear-gradient-88" x1="27.34" y1="771.17" x2="359.95" y2="771.17" xlink:href="#linear-gradient-55"/>
    <linearGradient id="linear-gradient-89" x1="0" y1="829.42" x2="362.82" y2="829.42" xlink:href="#linear-gradient-55"/>
    <linearGradient id="linear-gradient-90" x1="3.75" y1="828.19" x2="360.28" y2="828.19" xlink:href="#linear-gradient-55"/>
    <linearGradient id="linear-gradient-91" x1="66.37" y1="860.64" x2="364.66" y2="860.64" xlink:href="#linear-gradient-55"/>
    <linearGradient id="linear-gradient-92" x1="69.02" y1="863.22" x2="362.5" y2="863.22" xlink:href="#linear-gradient-55"/>
    <linearGradient id="linear-gradient-93" x1="191.38" y1="916.12" x2="365.02" y2="916.12" xlink:href="#linear-gradient-55"/>
    <linearGradient id="linear-gradient-94" x1="190.84" y1="916.81" x2="363.64" y2="916.81" xlink:href="#linear-gradient-55"/>
    <linearGradient id="linear-gradient-95" x1="226.49" y1="956.44" x2="399.47" y2="956.44" xlink:href="#linear-gradient-55"/>
    <linearGradient id="linear-gradient-96" x1="227.95" y1="955.9" x2="399.78" y2="955.9" xlink:href="#linear-gradient-55"/>
    <linearGradient id="linear-gradient-97" x1="226.27" y1="951.75" x2="526.05" y2="951.75" xlink:href="#linear-gradient-55"/>
    <linearGradient id="linear-gradient-98" x1="228.47" y1="951.61" x2="525.61" y2="951.61" xlink:href="#linear-gradient-55"/>
    <linearGradient id="linear-gradient-99" x1="225.96" y1="907.79" x2="592.25" y2="907.79" xlink:href="#linear-gradient-55"/>
    <linearGradient id="linear-gradient-100" x1="228.52" y1="907.32" x2="590.94" y2="907.32" xlink:href="#linear-gradient-55"/>
    <linearGradient id="linear-gradient-101" x1="225.75" y1="925.43" x2="231.08" y2="925.43" xlink:href="#linear-gradient-55"/>
    <linearGradient id="linear-gradient-102" x1="356" y1="783.05" x2="361.34" y2="783.05" xlink:href="#linear-gradient-55"/>
    <linearGradient id="linear-gradient-103" x1="225.62" y1="925.46" x2="230.87" y2="925.46" xlink:href="#linear-gradient-55"/>
    <linearGradient id="linear-gradient-104" x1="355.88" y1="783.08" x2="361.13" y2="783.08" xlink:href="#linear-gradient-55"/>
    <linearGradient id="linear-gradient-105" x1="5.53" y1="851.49" x2="588.74" y2="851.49" xlink:href="#linear-gradient-55"/>
    <linearGradient id="linear-gradient-106" x1="32.99" y1="894.88" x2="481.44" y2="894.88" xlink:href="#linear-gradient-55"/>
    <linearGradient id="linear-gradient-107" x1="102.62" y1="914.98" x2="375.36" y2="914.98" xlink:href="#linear-gradient-55"/>
    <linearGradient id="linear-gradient-108" x1="187.65" y1="922.89" x2="275.88" y2="922.89" xlink:href="#linear-gradient-55"/>
    <linearGradient id="linear-gradient-109" x1="259.23" y1="888.7" x2="264.7" y2="888.7" xlink:href="#linear-gradient-55"/>
    <linearGradient id="linear-gradient-110" x1="320.02" y1="822.25" x2="325.5" y2="822.25" xlink:href="#linear-gradient-55"/>
    <linearGradient id="linear-gradient-111" x1="319.47" y1="782.2" x2="401.58" y2="782.2" xlink:href="#linear-gradient-55"/>
    <linearGradient id="linear-gradient-112" x1="218.55" y1="790.98" x2="486.17" y2="790.98" xlink:href="#linear-gradient-55"/>
    <linearGradient id="linear-gradient-113" x1="111.38" y1="811.19" x2="554.73" y2="811.19" xlink:href="#linear-gradient-55"/>
    <linearGradient id="linear-gradient-114" x1="229" y1="816.48" x2="464.79" y2="816.48" xlink:href="#linear-gradient-55"/>
    <linearGradient id="linear-gradient-115" x1="227.58" y1="765.03" x2="361.11" y2="765.03" xlink:href="#linear-gradient-55"/>
    <linearGradient id="linear-gradient-116" x1="129.38" y1="746.67" x2="360.29" y2="746.67" xlink:href="#linear-gradient-55"/>
    <linearGradient id="linear-gradient-117" x1="26.59" y1="771.69" x2="359.95" y2="771.69" xlink:href="#linear-gradient-55"/>
    <linearGradient id="linear-gradient-118" x1="1.89" y1="829.21" x2="360.28" y2="829.21" xlink:href="#linear-gradient-55"/>
    <linearGradient id="linear-gradient-119" x1="67.85" y1="860.84" x2="362.5" y2="860.84" xlink:href="#linear-gradient-55"/>
    <linearGradient id="linear-gradient-120" x1="192.18" y1="916.4" x2="363.66" y2="916.4" xlink:href="#linear-gradient-55"/>
    <linearGradient id="linear-gradient-121" x1="227.95" y1="956.82" x2="398.39" y2="956.82" xlink:href="#linear-gradient-55"/>
    <linearGradient id="linear-gradient-122" x1="228.47" y1="952.11" x2="524.5" y2="952.11" xlink:href="#linear-gradient-55"/>
    <linearGradient id="linear-gradient-123" x1="228.52" y1="908.13" x2="590.41" y2="908.13" xlink:href="#linear-gradient-55"/>
  </defs>
  <g id="Layer_1-2" data-name="Layer 1">
    <g id="path21746">
      <g>
        <path class="cls-1" d="m1252.07,569.16c-73.97-183.69-212.47-336.8-381.37-439.04-142.9-86.5-406.3-178.55-528.48-9.18-116.76,161.85,9.72,396.07,116.2,527.34,121.17,149.39,294.67,277.24,486.43,314.27,92.45,17.85,202.53,11.45,272.96-58.74,69.83-69.59,75.68-175.42,54.62-266.64-5.35-23.17-12.7-45.52-20.34-68.01h0Z"/>
        <path class="cls-28" d="m1266.88,553.06c-74-183.71-212.52-336.83-381.44-439.09-142.88-86.5-406.31-178.62-528.49-9.24-116.76,161.86,9.79,396.1,116.27,527.35,121.19,149.4,294.7,277.27,486.48,314.33,92.44,17.86,202.53,11.48,272.95-58.7,69.83-69.58,75.66-175.42,54.59-266.63-5.35-23.17-12.71-45.52-20.35-68.02h0Z"/>
        <path class="cls-26" d="m1274.75,551.7c-74.94-186.03-215.21-341.08-386.26-444.63-143.97-87.16-410.27-180.84-534.08-10.75-120.38,165.37,9.52,403.8,118.7,537.95,122.59,150.63,299.06,279.74,492.86,316.15,93.65,17.6,203.58,10.47,274.78-60.42,70.39-70.08,75.78-177.75,54.61-269.42-5.42-23.47-12.87-46.09-20.61-68.87h0Z"/>
        <path class="cls-27" d="m1240.94,542.54c36.33,90.21,63.21,193.21,29.58,288.71-32.35,91.83-117.94,141.63-211.85,149.16-198.92,15.96-398.31-110.35-534.35-244.09-130.7-128.48-269.73-331.92-230.18-525.67C340.82-18.06,613.26,8.92,776.29,81.97c179.01,80.21,336.33,224.01,432.17,395.21,11.91,21.28,22.21,43.25,32.47,65.35h0Z"/>
        <path class="cls-31" d="m1239.37,537.61c35.88,89.1,62.43,190.79,29.2,285.1-32.55,92.41-119.04,140.9-213.28,147.45-196.98,13.69-393.24-111.73-527.41-244.91-127.34-126.41-261.49-325.08-223.66-514.45C349.17-14.16,616.47,9.85,777.45,81.44c178.05,79.18,334.34,221.32,429.69,391.36,11.83,21.1,22.05,42.89,32.23,64.82h0Z"/>
        <path class="cls-30" d="m1254.17,521.51c35.89,89.09,62.46,190.78,29.24,285.11-32.54,92.41-119.03,140.88-213.27,147.42-197,13.67-393.27-111.78-527.45-244.98-127.35-126.41-261.54-325.09-223.73-514.47C363.89-30.41,631.23-6.32,792.18,65.28c178.07,79.21,334.37,221.36,429.75,391.41,11.84,21.1,22.05,42.9,32.24,64.82h0Z"/>
        <path class="cls-29" d="m1261.88,519.75c36.34,90.2,63.25,193.21,29.63,288.71-32.33,91.83-117.93,141.61-211.83,149.12-198.95,15.93-398.35-110.43-534.41-244.18-130.7-128.49-269.8-331.93-230.28-525.71C361.65-41.04,634.14-13.95,797.13,59.11c179.03,80.24,336.37,224.07,432.26,395.28,11.92,21.28,22.21,43.26,32.49,65.36h0Z"/>
        <path class="cls-33" d="m1253.8,574.48c-74.9-186.01-215.14-341.04-386.17-444.56-144-87.17-410.25-180.73-534.06-10.65-120.38,165.36,9.42,403.76,118.6,537.93,122.56,150.61,299.01,279.69,492.79,316.07,93.66,17.58,203.59,10.42,274.79-60.47,70.39-70.08,75.82-177.75,54.65-269.44-5.42-23.46-12.86-46.09-20.6-68.87h0Z"/>
        <path class="cls-32" d="m1240.94,542.54h0l12.87,31.95h0l10.75,31.63h0l8.59,31.18h0l6.38,30.58h0l4.15,29.84h0l1.89,28.97h0l-.38,27.96h0l-2.64,26.83h0l-4.9,25.57h0l-7.13,24.2h0l-9.34,22.72h0l-11.5,21.13h0l-13.61,19.44h0l-15.66,17.67h0l-17.65,15.81h0l-19.55,13.88h0l-21.37,11.88h0l-23.09,9.83h0l-24.7,7.73h0c-8.73,1.86-17.47,3.73-26.2,5.59h0c-9.2,1.14-18.39,2.28-27.59,3.43h0l-28.85,1.24h0l-29.98-.94h0c-10.32-1.04-20.64-2.09-30.97-3.13h0c-10.6-1.77-21.21-3.54-31.81-5.3h0l-32.52-7.45h0l-33.07-9.57h0l-33.47-11.64h0l-33.72-13.66h0l-33.81-15.62h0l-33.75-17.51h0l-33.53-19.32h0l-33.15-21.04h0l-32.62-22.66h0l-31.94-24.18h0l-31.12-25.58h0l-30.15-26.87h0l-29.04-28.04h0l-27.79-29.07h0l-26.42-29.97h0l-24.93-30.73h0l-23.32-31.35h0l-21.6-31.83h0l-19.79-32.16h0l-17.88-32.34h0l-15.9-32.37h0l-13.84-32.25h0l-11.72-31.98h0l-9.54-31.56h0l-7.32-31h0l-5.07-30.3h0l-2.8-29.46h0l-.52-28.49h0l1.76-27.38h0l4.04-26.15h0l6.29-24.8h0l8.52-23.34h0l10.7-21.77h0l12.83-20.11h0l14.9-18.35h0l16.9-16.52h0l18.82-14.6h0l20.66-12.63h0l22.4-10.6h0l24.04-8.52h0c8.52-2.13,17.04-4.27,25.56-6.4h0l26.97-4.26h0c9.42-.7,18.84-1.4,28.26-2.1h0c9.8.02,19.61.05,29.41.07h0c10.14.75,20.29,1.49,30.43,2.24h0c10.44,1.47,20.88,2.93,31.32,4.4h0c10.69,2.18,21.37,4.35,32.06,6.53h0c10.89,2.88,21.77,5.76,32.66,8.63h0l33.1,10.7h0l33.4,12.71h0l33.55,14.67h0l33.54,16.56h0l33.39,18.37h0l33.08,20.1h0l32.63,21.74h0l32.03,23.28h0l31.28,24.71h0l30.39,26.04h0l29.37,27.24h0l28.21,28.33h0l26.93,29.28h0l25.52,30.11h0l24,30.8h0l22.37,31.35h0l20.64,31.75h0l18.82,32.02h0l16.91,32.14h0l14.92,32.12h0Z"/>
        <path class="cls-88" d="m1102.56,458.59c38.97,96.9,35.4,227.49-93.67,243.49-111.76,13.85-226.19-57.59-303.12-131.87-74.57-72-154.06-186.1-133.06-295.96,23.48-122.77,165.73-116.28,256.32-79.43,106.1,43.16,200.14,127.79,255.72,227.79,6.53,11.74,12.16,23.81,17.81,35.98h0Z"/>
        <path class="cls-91" d="m939.63,387.97c23.4,52.23-41.6,42.74-65.98,20.03-26.86-25.02-35.67-84.75,18.04-65.38,20.71,7.47,39.07,25.33,47.95,45.35h0Z"/>
        <path class="cls-89" d="m1049.22,420.06c27.28,62.89,24.04,150.13-58.4,163.94-74.39,12.46-152.72-35.18-204.81-83.69-51.84-48.27-106.01-123.68-96.07-198.74,11.02-83.21,102.23-86.57,165.28-63.38,83.35,30.66,158.44,100.35,193.99,181.88h0Z"/>
        <path class="cls-90" d="m1180.93,511.77c51.88,128.91,59.71,309.56-106.57,351.6-162.53,41.1-342.49-66.36-457.35-171.2-115.93-105.82-241.31-277.23-213.04-444.49,28.12-166.4,210.76-179.14,342.61-134.46,168.9,57.24,319.42,188.06,406.54,342.94,10.19,18.11,19.06,36.78,27.81,55.61h0Z"/>
        <path class="cls-82" d="m1189.89,469.54c48.07,119.4,55.28,286.27-98.52,325.32-151.45,38.45-319.57-62.89-426.08-160.97-106.27-97.86-221.58-256.7-194.41-410.56,27.11-153.53,196.55-164.05,318.13-122.42,155.71,53.31,294.96,174.13,375.19,317.27,9.38,16.74,17.6,33.97,25.68,51.36h0Z"/>
        <path class="cls-85" d="m1046.75,384.82c19.28,45.21,22.92,109.82-32.8,129.47-59.41,20.95-129.59-19.5-172.88-57.06-45.74-39.68-96.13-105.74-86-170.55,8.96-57.27,67.65-68.01,115.93-55.39,75.8,19.8,144.35,82.45,175.75,153.53h0Z"/>
        <path class="cls-83" d="m1002.06,357.42c12.67,29.39,9.21,66.94-28.35,71.8-32.79,4.24-66.89-17.72-89.37-39.68-21.63-21.14-46.07-55.7-38.42-87.73,8.8-36.83,51.69-32.73,78.96-20.75,33.19,14.58,62.52,43.17,77.17,76.36h0Z"/>
        <path class="cls-86" d="m1149.56,439.28c39.29,97.65,44.98,235.13-81.81,265.74-123.56,29.83-259.16-51.41-346.15-131.49-85.94-79.12-176.47-203.73-160.24-327.79,16.98-129.79,156.63-142.51,258.72-108.23,127.94,42.96,242.49,142.21,308.32,259.49,7.73,13.78,14.51,27.95,21.16,42.28h0Z"/>
        <path class="cls-84" d="m1078.89,257.29c-14.7,16.06-30.02,29.77-46.49,43.94-33.17.99-68.62,30.78-93.55,49.18-13.33,9.84-26.27,20.18-39.12,30.65-.03.01-.07.02-.1.03v-.07c29.09-32.59,86.28-75.82,130.24-84.17,2.57-.49,4.99-.79,7.58-.87,12.83-10.83,24.66-21.26,36.01-33.66-7.07-.97-13.89,3.6-20.41,6.91-22.32,11.33-44.49,24.3-66.25,36.7-20.59,11.74-38.84,27.57-57.17,42.45-.03.01-.07.02-.1.03v-.07c21.23-23.93,51.24-41.49,79.34-56.17,18.92-9.89,42.76-32.39,64.48-35.11,2.64-.33,3.41-.21,5.54.24h0Z"/>
        <path class="cls-87" d="m808.9,67.34c-6.32,6.93-12.63,13.86-18.95,20.78-.36,13.11.15,26.23-.19,39.34,48.57,44.01,83.13,107.46,98.84,170.49,6.75,27.08,9.29,54.48,9.99,82.28.06.08.12.16.19.24l.25.11c.1,0,.2,0,.3-.01,16.15-17.57-4.95-83.06-10.78-102.87-13.99-47.51-38.16-92.1-70.01-130.02-7.72-9.19-15.85-18.08-24.71-26.19.25-10.88-.04-21.77.16-32.65,4.91-5.39,9.82-10.78,14.74-16.16,21.77,14.02,34.1,42,45.04,64.26,19.5,39.66,42.49,79.7,59.99,120.08,12.47,28.77,13.98,59.64,14.74,90.53.06.08.12.16.19.24.08.04.17.08.25.11.1,0,.2,0,.3-.01,11.65-13.24.95-54.79-3.02-71.07-5.63-23.08-17.16-42.28-29.01-62.54-23.96-40.94-36.36-88.39-64.51-127.02-6.19-8.49-12.85-16.45-21.89-22l-1.9,2.08h0Z"/>
        <path class="cls-81" d="m541.53,4.51c-6.94,7.64-13.88,15.27-20.83,22.91,8.56,15,16.82,30.16,25.38,45.16,50.32,25.95,98.36,57.32,143.97,90.78,55.51,40.72,108.15,86.24,152.64,138.94,19.23,22.78,34.6,59.61,56.23,78.18.17-.03.33-.07.5-.1,6.6-10.86-19.4-39.18-26.3-48.79-19.24-26.79-40.98-51.78-64.1-75.28-54.06-54.96-115.92-102.12-180.78-143.58-25.74-16.45-52.01-32.22-79.1-46.35-7.19-12.4-13.91-25.06-21.06-37.48,4.91-5.4,9.82-10.8,14.72-16.2,44.03,18.42,82.46,50.84,118.9,80.8,32.04,26.35,62.28,54.9,94.65,80.82,34.03,27.25,71.23,50.68,102.49,81.27,16.69,16.33,31.55,34.42,44.75,53.67,8.05,11.74,14.92,29.57,25.22,38.54.17-.03.33-.07.5-.1,7.93-13.09-31.09-56.69-40.17-67.96-30.35-37.68-68.8-65.13-107.14-93.91-66.24-49.74-123.93-110.12-193.43-155.76-14.99-9.84-30.46-18.72-47.06-25.55h0Z"/>
        <path class="cls-93" d="m352.23,98.52c-5.68,6.26-11.37,12.52-17.05,18.77,14.14,12.5,28.98,24.18,43.09,36.7,57.63,13.55,114.52,30.93,170.53,50,101.59,34.58,203.46,75.93,293.15,135.61,6.35,4.22,57.68,44.37,58.94,38.82,2.37-10.44-54.59-43.15-62.56-48.31-76.99-49.85-162.07-86.95-248.06-118.27-65.56-23.88-132.49-44.68-200.23-61.46-3.13-.77-6.26-1.53-9.39-2.28-11.75-10.36-24.04-20.07-35.76-30.46,4.91-5.41,9.82-10.81,14.73-16.22,59.09,10.49,116.05,34.07,171.3,56.69,51.17,20.95,101.17,44.77,152.8,64.57,42.85,16.44,86.77,30.28,128.3,49.98,23.17,10.99,45.47,23.76,66.6,38.29,8.23,5.66,41.74,39.09,49.98,36.95,9.64-2.49-17.11-20.13-18.82-21.47-21.77-17.07-44.71-32.58-68.96-45.92-41.66-22.92-86.54-38.37-131.05-54.68-51.01-18.7-100.24-41.37-150.27-62.47-62.3-26.27-126.7-54.11-193.41-67.18-3.35-.66-6.72-1.27-10.09-1.85l-3.79,4.17h0Z"/>
        <path class="cls-92" d="m313.91,307.45c-6.96,7.65-13.92,15.3-20.87,22.95,15.86,5.14,31.34,11.33,47.19,16.45,69.8-5.76,140.18-7.72,210.21-7.27,88.55.57,178.09,4.29,265.25,20.94,15.26,2.92,74.38,26.97,85.13,18.39.02-.16.04-.32.06-.48-.03-.15-.05-.31-.08-.46l-.21-.43c-59.07-28.71-139.77-32.25-204.18-37.46-85.36-6.9-171.39-6.97-256.94-3.71-32.36,1.23-64.73,2.82-97.02,5.38-13.16-4.26-26-9.4-39.16-13.65,4.92-5.41,9.84-10.82,14.76-16.23,66.95-8.19,135.4-4.73,202.55-1.45,94.91,4.65,191.85,2.8,286.32,12,27.83,2.71,55.39,7.52,82.4,14.81,9.89,2.67,32.77,16.28,41.39,8.99.02-.16.04-.32.06-.48-.03-.15-.05-.31-.08-.46-.07-.14-.14-.29-.21-.43-80.2-38.61-180.73-29.46-267.07-31.81-90.96-2.47-181.52-11.9-272.64-10.56-25.72.38-51.35,1.75-76.87,4.96h0Z"/>
        <path class="cls-80" d="m423.64,582.56c-5.07,5.56-10.15,11.12-15.22,16.68,12.2-2.6,24.04-6.58,36.24-9.19,56.59-31.3,114.03-61.19,171.93-90.01,67.14-33.42,135.13-65.85,205.19-92.72,21.3-8.17,43.37-14.09,64.68-22,6.15-2.28,10.37-1.83,14.58-6.48,0-.09,0-.17.01-.26-.03-.06-.07-.12-.1-.18-.07-.03-.14-.07-.21-.1-59.94,13.24-118.36,41.09-173.99,66.4-69.13,31.46-136.98,65.58-204.23,100.86-25.19,13.22-50.28,26.65-75.2,40.39-10.11,2.23-19.96,5.4-30.07,7.63,4.93-5.4,9.86-10.81,14.79-16.21,54.01-31.26,110.64-57.99,167.13-84.4,80.26-37.51,159.52-79.01,241.07-113.55,21.04-8.91,42.44-16.89,64.34-23.41,8.67-2.58,20.07-2.92,26.35-9.85,0-.09,0-.17.01-.26-.03-.06-.07-.12-.1-.18-.07-.03-.14-.07-.21-.1-74.37,16.4-142.68,55.43-210.62,88.36-76.56,37.1-154.76,70.68-230.47,109.57-20.33,10.44-40.43,21.3-60.2,32.77l-5.71,6.26h0Z"/>
        <path class="cls-42" d="m665.94,814.95c-6.99,7.63-13.98,15.26-20.98,22.89,22.17-58.3,62.51-111.04,94.4-164.28,47.4-79.14,94.59-158.94,135.81-241.51,8.09-16.21,13.7-39.89,26.42-52.94l.12.04s.02.1.04.15c-24.95,61.84-59.9,120.8-93.01,178.47-37.89,66-76.71,131.45-116.55,196.29-15.14,24.63-30.95,48-41.35,75.13,41.67-45.48,69.96-106.26,100.53-159.44,45.63-79.38,93.12-158.08,137-238.44,13.5-24.73,23.64-65.2,43.12-84.88.04.01.08.02.12.04.01.05.02.1.04.15-28.3,69.53-69.7,133.36-107.3,198.07-40.78,70.19-79.89,141.34-121.67,210.96-11.97,19.94-24.18,39.73-36.74,59.31h0Z"/>
        <path class="cls-38" d="m940.2,954.96c-4.46,4.85-8.91,9.69-13.37,14.54-4.3-14.88-8.95-29.63-13.25-44.51,6.98-67.34,10.59-135.16,12.44-202.82,2.35-86.23,1.74-173.46-10.42-259-2.32-16.31-23.01-71.29-14.22-83.67l.43-.11.41.03.38.16c.11.1.22.19.34.29,22.09,63.31,24.85,136.77,27.28,203.11,3.01,82.19.54,164.48-4.63,246.53-1.95,30.96-4.29,61.91-7.4,92.78,3.46,12.38,7.53,24.56,11,36.94,4.95-5.38,9.9-10.77,14.85-16.15,9.27-66.77,8.06-134.93,7.11-202.15-1.37-97.5,5.46-198.18-3.77-295.12-2.13-22.39-5.71-44.63-10.93-66.52-2.26-9.46-10.67-23.8-5.15-32.46.14-.04.28-.07.43-.11.14,0,.27.02.41.03.13.05.25.11.38.16.11.1.22.19.34.29,28.65,82.12,20.71,171.38,20.19,256.69-.54,89.16,5.34,178.14,1.44,267.33-1.11,25.26-3.08,50.42-6.62,75.46l-7.64,8.31h0Z"/>
        <path class="cls-41" d="m1184.8,929.89c-7,7.6-14.01,15.2-21.01,22.8-12.12-14.12-23.63-28.75-35.79-42.83-14.46-59.42-32.62-118.12-52.48-175.93-30.4-88.51-65.59-176.39-112.35-257.66-12.23-21.26-25.33-42.06-39.7-61.95-4.72-6.53-24.7-24.37-23.58-32.46,1.3-9.41,28.63,29.32,30.73,32.28,59.51,84.04,101.16,180.97,136.3,277.26,24.69,67.66,46.42,136.59,64.22,206.39.79,3.1,1.57,6.2,2.33,9.3,10.06,11.71,19.65,23.82,29.7,35.54,4.95-5.37,9.9-10.75,14.85-16.12-10.89-57.27-33.12-112.43-54.82-166.26-21.33-52.9-45.67-104.57-66.3-157.75-17.26-44.48-31.56-90.19-51.62-133.54-11.15-24.1-24.08-47.34-38.89-69.38-5.37-8-38.81-42.54-36.6-50.42,2.87-10.19,19.52,16.72,21.23,18.95,17.21,22.44,32.72,46.1,46.05,71.05,22.96,42.96,38.53,89.08,55.33,134.66,19.47,52.83,43.06,103.89,64.66,155.86,25.5,61.35,52.1,124.34,65.68,189.68.73,3.5,1.41,7.01,2.07,10.52h0Z"/>
        <path class="cls-37" d="m1291.76,780.67c-3.82,4.14-7.63,8.28-11.44,12.42-15.58-9.22-31.21-18.35-46.79-27.57-24.99-46.01-53.92-90.16-84.21-132.82-49.11-69.15-104.03-135.43-168.43-190.93-8.53-7.35-81.63-54.43-80.83-60.15,1.28-9.12,34.48,16.47,37.77,18.79,75.81,53.22,139.01,123.93,194.43,197.54,37.38,49.65,72.03,101.76,102.55,155.93,1.55,2.75,3.09,5.51,4.61,8.28,12.93,7.65,25.9,15.23,38.83,22.88,4.95-5.37,9.89-10.74,14.83-16.1-26.74-58.74-72.32-109.49-113.73-158.21-51.48-60.58-97.52-128.91-152.66-185.97-14.93-15.45-31.15-29.59-48.35-42.46-6.39-4.78-48.38-26.95-48.35-33.11.04-6.37,74.26,45.68,83.01,53.58,58.13,52.5,100.69,122.29,151.94,181.34,47.38,54.59,99.98,111.49,132.02,176.94,1.5,3.06,2.94,6.16,4.33,9.27l-9.54,10.35h0Z"/>
      </g>
      <g>
        <path class="cls-39" d="m905.62,378.2c-9-5.05-5.13.88,0,0h0Z"/>
        <path class="cls-40" d="m931.45,349.97c-9.01-5.05-5.13.88,0,0h0Z"/>
        <path class="cls-47" d="m1267.01,553.4c-73.77-183.27-212.23-337.7-381.26-439.24-143.12-85.98-402.63-178.26-526.66-11.78-120.46,161.69,7.5,399.23,115.13,531.23,121.79,149.37,298.44,280.15,491.74,313.81,90.75,15.81,195.76,9.26,265.45-58.38,70.89-68.81,76.9-175.8,56.06-266.91-5.36-23.42-12.76-46-20.46-68.73h0Z"/>
        <path class="cls-49" d="m1239.37,537.61c36,89.48,62.43,191.23,28.85,285.84-32.66,92-119.56,140.77-213.68,146.95-193.94,12.73-387.53-108.9-520.66-239.32-130.57-127.9-267.14-327.42-229.38-520.32C348.97-16.47,620.66,10.65,781.51,83.11c175.89,79.23,331.17,220.8,425.39,389.26,11.89,21.26,22.2,43.17,32.46,65.24h0Z"/>
        <path class="cls-48" d="m905.53,377.98c-4.85,1.33-9.13-4.46,0,0h0Z"/>
        <path class="cls-46" d="m931.36,349.76c-4.85,1.33-9.13-4.46,0,0h0Z"/>
        <path class="cls-44" d="m1254.17,521.51c36.01,89.48,62.46,191.23,28.89,285.84-32.65,92-119.55,140.75-213.66,146.92-193.96,12.71-387.55-108.96-520.7-239.39-130.58-127.91-267.19-327.44-229.46-520.35C363.69-32.71,635.42-5.51,796.25,66.95c175.9,79.25,331.2,220.83,425.45,389.31,11.89,21.26,22.21,43.17,32.47,65.25h0Z"/>
        <path class="cls-43" d="m1252.2,569.5c-73.74-183.26-212.19-337.67-381.2-439.19-143.14-85.98-402.62-178.18-526.65-11.71-120.46,161.68,7.43,399.2,115.06,531.21,121.77,149.36,298.41,280.11,491.69,313.75,90.76,15.8,195.77,9.23,265.45-58.42,70.89-68.81,76.92-175.79,56.1-266.92-5.35-23.42-12.75-46-20.45-68.73h0Z"/>
        <path class="cls-35" d="m1239.37,537.61h0l12.83,31.89h0l10.7,31.57h0l8.51,31.11h0l6.29,30.5h0l4.03,29.75h0l1.75,28.86h0l-.54,27.84h0l-2.82,26.68h0l-5.1,25.41h0l-7.35,24.01h0l-9.57,22.5h0l-11.75,20.89h0l-13.87,19.17h0l-15.93,17.37h0l-17.92,15.48h0l-19.83,13.52h0l-21.64,11.49h0l-23.36,9.41h0l-24.97,7.28h0c-8.82,1.71-17.64,3.41-26.46,5.12h0c-9.28.98-18.55,1.96-27.83,2.93h0c-9.69.24-19.38.49-29.07.73h0c-10.06-.49-20.12-.99-30.18-1.48h0c-10.38-1.23-20.76-2.45-31.14-3.68h0c-10.65-1.96-21.31-3.91-31.96-5.87h0c-10.88-2.68-21.75-5.35-32.63-8.03h0l-33.14-10.16h0l-33.5-12.23h0l-33.7-14.25h0l-33.75-16.21h0l-33.63-18.09h0l-33.35-19.88h0l-32.92-21.58h0l-32.33-23.18h0l-31.59-24.68h0l-30.7-26.05h0l-29.67-27.3h0l-28.5-28.42h0l-27.19-29.41h0l-25.75-30.26h0l-24.19-30.97h0l-22.52-31.53h0l-20.74-31.94h0l-18.87-32.2h0l-16.9-32.31h0l-14.86-32.27h0l-12.75-32.07h0l-10.58-31.73h0l-8.36-31.23h0l-6.11-30.59h0l-3.82-29.81h0l-1.52-28.88h0l.78-27.82h0l3.08-26.63h0l5.36-25.32h0l7.62-23.89h0l9.84-22.35h0l12.01-20.71h0l14.13-18.97h0l16.17-17.14h0l18.14-15.24h0l20.02-13.27h0l21.81-11.23h0l23.5-9.15h0l25.07-7.02h0c8.84-1.62,17.69-3.25,26.53-4.87h0c9.29-.9,18.58-1.79,27.86-2.69h0c9.69-.17,19.38-.34,29.07-.5h0l30.13,1.68h0l31.06,3.86h0c10.61,2.01,21.23,4.02,31.84,6.02h0c10.83,2.72,21.65,5.44,32.48,8.15h0l32.96,10.25h0l33.3,12.29h0l33.48,14.28h0l33.5,16.2h0l33.37,18.04h0l33.09,19.8h0l32.65,21.47h0l32.06,23.04h0l31.33,24.5h0l30.45,25.85h0l29.43,27.08h0l28.28,28.18h0l26.99,29.16h0l25.58,30h0l24.06,30.71h0l22.42,31.27h0l20.67,31.69h0l18.84,31.96h0l16.91,32.08h0l14.91,32.06h0Z"/>
        <path class="cls-36" d="m1165.78,498.18c26.28,65.36,45.36,137.34,26.27,207.4-19.31,70.87-78.98,114.42-149.98,124.58-151.01,21.62-308.53-75.55-413.04-174.98-102.02-97.06-209.07-248.62-187.48-397.92,24.22-167.55,211.2-172.09,337.84-123.74,150.39,57.41,283.37,174.71,361.81,315.08,9.01,16.13,16.8,32.84,24.58,49.58h0Z"/>
        <path class="cls-45" d="m1101.51,449.86c34.28,85.31,39.19,204.53-70.87,231.96-108.73,27.1-228.77-45.8-304.99-116.69-75.04-69.8-156.29-182.07-136.9-291.03,19.61-110.19,141.15-116.59,228.08-86.87,109.41,37.41,207.28,122.77,264.43,222.67,7.44,13.01,13.94,26.37,20.25,39.96h0Z"/>
        <path class="cls-34" d="m1025.28,409.07c23.82,55.81,16.52,128.75-56.35,134.8-60.63,5.03-121.88-33.53-163.65-74.21s-87.22-106.13-71.59-167.04c17.87-69.67,103.12-57.31,152.77-33.82,59.72,28.25,112.1,79.61,138.83,140.28h0Z"/>
        <path class="cls-114" d="m931.58,381.31c16.5,35.03-27.35,30.22-44.45,15.25-17.28-15.13-29.98-56.01,6.96-48.15,16.13,3.43,30.94,18.31,37.49,32.9h0Z"/>
        <path class="cls-115" d="m978.71,356.85c8.94,20.25,6.73,45.74-18.63,50.49-22.31,4.18-47.09-11.64-62.48-26.03-31.4-29.35-45.15-102.6,20.03-80.97,26.35,8.74,49.93,31.27,61.08,56.5h0Z"/>
        <path class="cls-116" d="m1060.34,393.72c21.91,51.8,26.31,126.08-37.86,148.36-68.98,23.95-150.37-23.73-200.1-67.68-50.94-45.01-106.46-118.96-96.04-191.55,9.56-66.57,77.39-79.47,133.37-64.7,86.67,22.88,164.53,94.39,200.63,175.57h0Z"/>
        <path class="cls-117" d="m1132.46,437.25c39.88,99.2,37.48,234.81-94.84,252.47-115.85,15.46-235.18-58.23-315.35-135.03-77.38-74.13-159.53-191.19-140.47-304.67,21.75-129.53,169.03-125.58,264.83-87.29,110.03,43.98,207.73,131.52,265.81,234.54,7.35,13.04,13.72,26.41,20.02,39.97h0Z"/>
        <path class="cls-123" d="m1205.96,479.72c26.76,66.51,47.19,140.27,30.07,212.04-18.36,76.96-79.26,128.22-156.8,139.99-159.25,24.17-324.17-74.66-436.05-178.48-110.91-102.92-225.34-261.96-207.48-422.17,20.01-179.57,213.94-190.63,350.46-142.21,163.06,57.83,308.62,186.41,392.86,336.77,9.86,17.6,18.45,35.78,26.94,54.06h0Z"/>
        <path class="cls-120" d="m1073.48,262.3c-11.38,12.43-23.48,22.5-36.01,33.66-31.85.98-64.61,28.25-88.89,45.84-15.13,10.96-29.88,22.49-44.27,34.43,32-34.98,64.78-59.92,105.62-82.03,17.15-9.28,38.43-29.03,58.37-31.96,2.29-.34,3.26-.2,5.18.06h0Z"/>
        <path class="cls-121" d="m804.7,77.2c-3.57,3.92-7.14,7.84-10.72,11.75-.35,10.88.2,21.75-.16,32.64,52.13,47.73,87.92,116.04,101.83,184.82,4.56,22.53,6.99,45.54,6.85,68.54,8.61-9.41,17.22-18.82,25.83-28.23.25-58.78-19.99-94.98-45.37-145.07-19.04-37.59-31.01-81.19-58.49-114.11-4.69-5.62-9.58-10.77-15.76-14.75l-4.02,4.41h0Z"/>
        <path class="cls-118" d="m542.72,12.55c-4.91,5.4-9.82,10.8-14.72,16.2,7.17,12.41,13.85,25.11,21.07,37.49,36.11,18.84,70.9,40.39,104.65,63.14,67.81,45.71,132.21,98.07,185.9,160.01,22.91,26.44,43.84,54.68,61.09,85.16,8.61-9.41,17.22-18.82,25.83-28.23-41.89-74.25-100.98-117.3-166.13-168.8-57.11-45.16-108.67-96.96-169.28-137.77-15.38-10.36-31.27-20.01-48.42-27.19h0Z"/>
        <path class="cls-119" d="m359.73,101.52c-4.91,5.41-9.82,10.81-14.73,16.22,11.94,10.13,23.81,20.32,35.75,30.45,51.59,12.3,102.59,27.47,152.94,44.08,96.24,31.75,191.7,69.84,278.93,121.89,30.4,18.14,59.84,38.07,86.86,60.99,8.61-9.41,17.22-18.82,25.83-28.23-69.11-58.52-146.68-88.65-230.25-119.92-82.97-31.04-162.34-70.81-245.97-100.32-29.19-10.3-58.83-19.75-89.36-25.16h0Z"/>
        <path class="cls-122" d="m315.32,314.81c-4.02,4.43-8.05,8.85-12.07,13.28,12.96,4.81,26.21,8.81,39.17,13.66,58.36-4.55,116.97-6.7,175.5-7.22,88.36-.79,177.48,2.11,264.98,15.21,39.32,5.89,78.71,13.74,116.32,26.83,8.61-9.41,17.22-18.82,25.83-28.23-88.2-30.55-177.4-27.83-269.27-30.51-88.52-2.58-176.66-11.74-265.33-10.41-24.21.36-48.39,1.5-72.43,4.45l-2.68,2.95h0Z"/>
        <path class="cls-62" d="m432.01,577.37c-4.93,5.4-9.86,10.81-14.79,16.21,56.3-16.06,106.65-49.12,158.88-75.82,76.52-39.1,154-77.12,233.94-108.77,29.45-11.66,59.24-22.73,89.95-30.64,8.61-9.41,17.22-18.82,25.83-28.23-76.22,19.55-145.14,57.43-215.62,91.31-71.88,34.55-145.01,66.34-216.14,102.47-20.95,10.64-41.71,21.67-62.04,33.47h0Z"/>
        <path class="cls-60" d="m658.96,820.29c-2.7,2.94-5.39,5.89-8.09,8.83,22.16-50.39,54.48-96.28,82.85-143.48,44.63-74.26,88.62-149.07,128.92-225.78,13.77-26.22,27.25-52.68,38.92-79.92,8.61-9.41,17.22-18.82,25.83-28.23-27.13,63.63-63.47,122.63-98.35,182.18-40.55,69.21-79.12,139.54-120.05,208.53-14.65,24.69-28.86,57.81-50.02,77.87h0Z"/>
        <path class="cls-61" d="m942.73,944.68c-4.5,4.89-9,9.79-13.5,14.68-3.46-12.37-7.53-24.58-11-36.95,5.22-51.72,8.59-103.7,10.79-155.63,3.93-92.88,4.87-186.69-5.58-279.21-4.06-35.93-9.66-72.04-20-106.76,8.61-9.41,17.22-18.82,25.83-28.23,26.16,87.49,19.14,176.15,19.32,266.09.17,85.76,5.35,171.4,1.37,257.17-1.05,22.53-2.75,45.02-5.86,67.36l-1.35,1.47h0Z"/>
        <path class="cls-51" d="m1177.92,926.39c-4.95,5.37-9.9,10.75-14.85,16.12-10.11-11.67-19.58-23.87-29.69-35.53-14.46-58.49-32.08-116.3-51.57-173.31-30.18-88.27-65.35-175.61-111.59-256.82-19.15-33.63-40.36-66.41-65.21-96.14,8.61-9.41,17.22-18.82,25.83-28.23,61.95,74.59,91.14,159.64,125.5,248.59,32.52,84.21,72.39,165.29,101.25,251,8.2,24.37,15.53,49.03,20.34,74.31h0Z"/>
        <path class="cls-65" d="m1287.7,774.8c-3.15,3.42-6.29,6.83-9.44,10.25-12.85-7.79-25.96-15.13-38.83-22.88-26.56-48.49-57.03-95.05-89.29-139.93-47.18-65.63-99.9-128.13-160.94-181.35-26.03-22.69-53.7-43.58-83.41-61.23,8.61-9.41,17.22-18.82,25.83-28.23,78.54,46.65,126.26,112.66,182.27,182.81,49.81,62.38,105.96,119.32,150.86,185.65,10.61,15.67,20.5,31.81,28.35,49.06l-5.4,5.86h0Z"/>
      </g>
    </g>
    <g>
      <g>
        <path class="cls-63" d="m228.32,926.87c-.7-.15-.17-.04,0,0h0Z"/>
        <path class="cls-64" d="m360.61,782.27c-.7-.15-.16-.04,0,0h0Z"/>
        <path class="cls-68" d="m361.08,783.64c-1.34-.24-1.16-2.43-3.28-1.67,1.06,4.05,2.51,1.53,3.28,1.67h0Z"/>
        <path class="cls-69" d="m230.82,926.01c-1.34-.23-1.15-2.43-3.28-1.66,1.05,4.05,2.5,1.52,3.28,1.66h0Z"/>
        <path class="cls-66" d="m228.31,926.85c-.13-.02-.7-.09,0,0h0Z"/>
        <path class="cls-59" d="m360.6,782.25c-.13-.02-.7-.09,0,0h0Z"/>
        <path class="cls-57" d="m361.01,783.47c-.71-.06-1.81,2.75-3.28-1.39,2.04-1.03,1.94,1.29,3.28,1.39h0Z"/>
        <path class="cls-53" d="m230.76,925.85c-.71-.05-1.82,2.76-3.28-1.39,2.04-1.04,1.94,1.28,3.28,1.39h0Z"/>
        <path class="cls-56" d="m562.68,874.01h0l10.68,27.53h0l7.95,27.04h0l5.15,26.29h0l2.29,25.28h0l-.6,24.01h0l-3.48,22.51h0l-6.34,20.78h0l-9.13,18.84h0l-11.84,16.72h0l-14.43,14.42h0l-16.88,11.98h0l-19.17,9.42h0l-21.26,6.76h0c-7.72,1.34-15.43,2.68-23.15,4.03h0c-8.27.42-16.54.84-24.81,1.25h0c-8.74-.51-17.48-1.02-26.22-1.54h0l-27.37-4.31h0c-9.42-2.35-18.83-4.7-28.25-7.05h0l-28.85-9.72h0l-29.15-12.29h0l-29.16-14.74h0l-28.88-17.04h0l-28.31-19.18h0l-27.46-21.12h0l-26.33-22.85h0l-24.93-24.34h0l-23.28-25.6h0l-21.4-26.59h0l-19.3-27.32h0l-17.01-27.78h0l-14.55-27.95h0l-11.95-27.84h0l-9.23-27.46h0l-6.42-26.8h0l-3.54-25.87h0l-.64-24.68h0l2.27-23.25h0l5.15-21.59h0l7.98-19.71h0l10.73-17.64h0l13.36-15.4h0l15.86-13.01h0l18.2-10.49h0l20.36-7.87h0l22.31-5.17h0c8.01-.81,16.03-1.62,24.04-2.43h0c8.51.11,17.02.22,25.53.33h0c8.92,1.03,17.84,2.06,26.76,3.09h0l27.74,5.82h0l28.43,8.48h0l28.85,11.06h0l28.98,13.53h0l28.83,15.86h0l28.4,18.04h0l27.68,20.04h0l26.7,21.84h0l25.45,23.43h0l23.95,24.79h0l22.22,25.9h0l20.27,26.76h0l18.12,27.36h0l15.79,27.69h0l13.3,27.75h0Z"/>
        <path class="cls-58" d="m561.83,873.29h0l10.62,27.39h0l7.91,26.9h0l5.12,26.15h0l2.27,25.14h0l-.6,23.88h0l-3.47,22.39h0l-6.3,20.67h0l-9.08,18.74h0l-11.77,16.63h0l-14.35,14.34h0l-16.79,11.92h0l-19.06,9.37h0l-21.15,6.72h0c-7.68,1.33-15.35,2.67-23.03,4h0l-24.68,1.25h0c-8.69-.51-17.39-1.02-26.08-1.53h0l-27.23-4.29h0c-9.37-2.34-18.73-4.68-28.1-7.01h0l-28.69-9.67h0l-29-12.23h0l-29.01-14.66h0l-28.73-16.95h0l-28.16-19.08h0l-27.31-21.01h0l-26.19-22.73h0l-24.8-24.22h0l-23.16-25.46h0l-21.29-26.45h0l-19.2-27.18h0l-16.92-27.63h0l-14.48-27.8h0l-11.89-27.7h0l-9.18-27.31h0l-6.38-26.66h0l-3.53-25.73h0l-.63-24.55h0l2.26-23.13h0l5.13-21.47h0l7.94-19.61h0l10.67-17.55h0l13.29-15.32h0l15.78-12.94h0l18.11-10.43h0l20.25-7.83h0c7.4-1.72,14.79-3.43,22.19-5.15h0l23.91-2.42h0c8.46.11,16.93.22,25.39.33h0l26.62,3.07h0c9.2,1.93,18.39,3.86,27.59,5.79h0l28.28,8.44h0l28.7,11h0l28.83,13.46h0l28.68,15.78h0l28.25,17.95h0l27.54,19.93h0l26.56,21.73h0l25.31,23.31h0l23.83,24.66h0l22.1,25.77h0l20.16,26.62h0l18.02,27.22h0l15.7,27.54h0l13.23,27.6h0Z"/>
        <path class="cls-52" d="m462.01,912.17c28.14,72.76,32.29,172.62-62.15,194.13-89.28,20.34-187.03-38.48-249.86-96.25-62.82-57.76-130.63-151.93-115.39-242.76,15.44-91.99,117.26-98.65,189.75-73.93,104.76,35.72,190.47,120.18,237.65,218.8h0Z"/>
        <path class="cls-50" d="m535.95,827.37c27.15,69.99,32.65,167.97-58.4,190.18-88.25,21.52-185.81-37.2-248-94.4-62.3-57.29-130.03-151.17-113.04-241.06s118.28-93.19,189.07-68.62c101.49,35.21,184.57,118.32,230.38,213.9h0Z"/>
        <path class="cls-55" d="m361.6,926.03c16.81,40.76,19.89,97.03-29.86,114.51-52.48,18.44-114.58-17.84-152.62-51.08-39.61-34.63-83.31-92.18-74.87-148.51,7.7-51.41,60.09-61.49,103.52-49.84,67.09,17.99,125.21,72.59,153.83,134.92h0Z"/>
        <path class="cls-54" d="m473.22,800.72c16.45,39.32,19.68,94.13-28.25,111.43-51.53,18.6-112.86-17.54-150.13-50.24-38.58-33.85-81.17-90.04-72.83-144.99,7.56-49.84,58.4-59.28,100.41-48.21,65.32,17.21,123.34,71.1,150.8,132h0Z"/>
        <path class="cls-67" d="m267.59,928.77c21.5,47.51-38.9,37.23-60.07,16.5-24.68-24.16-27.17-74.7,19.79-55.84,17.43,7,32.66,22.28,40.29,39.34h0Z"/>
        <path class="cls-70" d="m395.09,786.62c19.6,43.02-34.25,35.69-54.57,16.97-21.53-19.83-31.58-68.99,12.86-55.38,18.02,5.52,34.12,21.46,41.71,38.4h0Z"/>
        <path class="cls-71" d="m262.58,889.39c.14.02-.72-.27-.24-.21.11.01.18.2.24.21h0Z"/>
        <path class="cls-75" d="m324.66,823.21c-.41-.09-1.83,2.7-3.28-1.39,2.04-1.03,1.82,1.05,3.28,1.39h0Z"/>
        <path class="cls-76" d="m324.18,822.06c.14.02-.72-.27-.24-.21.11.01.18.2.24.21h0Z"/>
        <path class="cls-77" d="m263.86,889.66c-.41-.1-1.83,2.71-3.28-1.39,2.04-1.03,1.82,1.05,3.28,1.39h0Z"/>
        <path class="cls-78" d="m395.72,785.47c19.01,41.88-32.7,35.78-53.06,17.58-19.41-17.35-35.07-65.81,8.01-56.7,19.41,4.11,37.13,21.52,45.06,39.12h0Z"/>
        <path class="cls-79" d="m270.63,927.7c22.31,49.75-40.65,39.29-63.09,17.33-27.7-27.11-26.46-79.76,23.14-57.54,17.25,7.73,32.28,23.01,39.95,40.22h0Z"/>
        <path class="cls-72" d="m474.88,799.76c18.28,42.83,18.06,102.16-37.09,114.55-52.51,11.8-109.77-23.03-146.75-56.8-36.75-33.57-76.09-87.64-69.03-140.56,7.51-56.32,66.92-61.69,111.38-46.94,60.94,20.21,115.68,71.15,141.48,129.75h0Z"/>
        <path class="cls-73" d="m363.54,924.82c20.18,47.63,15.73,111.71-47.12,119.08-52.28,6.13-106.55-26.86-143.07-61.06-36.16-33.87-72.9-84.85-69.42-137.1,4.21-63.22,70.38-69.68,118.49-52.39,61.23,22,114.51,72.28,141.12,131.47h0Z"/>
        <path class="cls-74" d="m538.22,826.92c25.77,66.43,34.87,160.01-48.19,188.43-87.31,29.87-189.07-28.84-252.4-84.5-65.6-57.66-136.73-151.59-123.33-244.91,12.18-84.78,99.48-100.08,170.19-81.41,111.73,29.5,204.77,120.25,253.73,222.4h0Z"/>
        <path class="cls-110" d="m462.7,911.05c27.58,71.28,33,170.71-59.57,193.4-89.65,21.97-188.88-37.6-251.95-95.67-62.97-57.98-131.34-152.77-114.85-243.88,16.44-90.86,117.16-96.75,189.1-72.32,104.62,35.54,190.21,120.06,237.28,218.46h0Z"/>
        <path class="cls-111" d="m455.97,720.09c-53.79,58.09-115.33,110.36-175.14,162.03-17.39,15.03-34.84,30.01-52.59,44.62,59.79-65.35,115.61-133.74,185.8-187.86,10.45-8.06,21.05-16.44,32.32-23.34,4.81-2.94,9.5-5.81,14.71-7.92l.18-.09c.09-.02.17-.04.26-.05l.17-.08c.08-.02.16-.03.25-.04l.16-.07c.08-.01.15-.02.23-.02l.15-.06c.07,0,.14-.01.22-.01l.13-.05c.07,0,.14,0,.2,0l.12-.04c.06,0,.12,0,.19.02l.11-.02c.06,0,.11.01.17.03h.09c.05,0,.1.01.15.04h.08c.32.1.55.32.64.63v.08s.03.1.03.15l-.02.1c.01.05.01.11,0,.17l-.03.11c-2.05,4.3-5.04,8.36-8.57,11.68h0Z"/>
        <path class="cls-108" d="m454.91,721.01c3.42-3.22,6.32-7.14,8.33-11.3l.04-.11c0-.05,0-.11,0-.16l.02-.1s0-.1-.03-.14v-.08c-.07-.3-.27-.53-.57-.63h-.07s-.09-.05-.13-.06h-.08s-.1-.02-.15-.03l-.09.02c-.05-.01-.11-.02-.16-.02l-.1.03c-.06,0-.12-.01-.17,0l-.11.04c-.06,0-.12,0-.18,0l-.12.04c-.06,0-.13,0-.19.01l-.13.05c-.07,0-.13.01-.2.02l-.13.06c-.07,0-.14.02-.21.03l-.14.07c-.08.01-.16.03-.24.04l-.18.09c-.09.02-.18.04-.27.06l-.19.1c-8.89,3.76-16.8,9.39-24.73,14.91-16.79,11.71-32.8,24.62-48.71,37.51-58.09,47.09-105.47,108.35-155.89,163.46,64.83-53.33,127.68-109.68,188.42-167.68,12.37-11.81,24.72-23.7,36.38-36.22h0Z"/>
        <path class="cls-109" d="m299.35,607.79c-.18.2-.36.4-.54.61-25.78,31.26-35.31,78.33-44.48,116.88-10.38,43.63-17.7,88.05-22.1,132.68-2.25,22.84-3.74,45.75-4.12,68.7,44.1-48.2,88.19-96.4,132.29-144.6.63-38.28.54-77.81-8.34-115.29-4.44-18.73-10.37-41.57-24.32-55.65-8.17-8.24-19.19-14.48-28.4-3.32h0Z"/>
        <path class="cls-112" d="m298.85,609.64c17.24-22.08,37.59,15.51,43.05,28.56,8.16,19.53,12.22,41.21,14.6,62.12,3.08,27.01,3.35,54.39,2.91,81.53-43.42,47.46-86.83,94.92-130.25,142.38.79-42.24,5.07-84.42,11.67-126.13,6.74-42.56,15.72-85.13,29.07-126.14,6.92-21.27,14.51-44.78,28.95-62.33h0Z"/>
        <path class="cls-113" d="m141.85,572.07c-.18.2-.35.41-.53.61h0c-19.88,26.65-9.67,75.07-4.38,104.8,9.87,55.52,27.8,109.83,49.37,161.84,12.37,29.82,26.3,58.94,41.7,87.32,44.1-48.2,88.19-96.4,132.29-144.6-24.74-45.24-51.56-90.13-85.51-129.16-23.3-26.77-49.16-52.26-79.57-70.89-13.5-8.27-38.81-24.02-53.36-9.91h0Z"/>
        <path class="cls-95" d="m142.2,574.11c22.65-24.11,77.82,26.56,93.64,40.79,25.68,23.1,48.4,49.96,68.3,78.11,20,28.31,37.71,58.23,54.31,88.63-43.42,47.46-86.83,94.92-130.25,142.38-48.42-89-94.15-197.58-95.93-300.58-.28-16.31-.24-35.67,9.92-49.34h0Z"/>
        <path class="cls-94" d="m33.24,624.65c-18.72,23.68,5.65,67.73,16.98,89.3,27.04,51.51,64.23,97.93,103.5,140.56,23.38,25.38,48.15,49.52,74.21,72.16,44.1-48.2,88.19-96.4,132.29-144.6-42.79-37.46-87.75-73.23-137.02-101.86-37.62-21.86-77.21-40.95-118.99-53.4-19.15-5.71-53.96-18.09-70.96-2.16h0Z"/>
        <path class="cls-96" d="m34.28,626.3c26.38-25.89,100.82,11.79,128.19,24.05,38.19,17.11,74.71,38.62,108.84,62.75,30.11,21.28,58.71,44.64,86.5,68.85-43.42,47.46-86.84,94.92-130.25,142.38-74.92-65.44-167.4-156.27-194.72-255.64-3.71-13.5-7.33-30.09,1.45-42.4h0Z"/>
        <path class="cls-97" d="m8.64,749.55c-43.82,52.59,127.15,137.66,157.79,151.93,20.09,9.36,40.63,17.8,61.49,25.28,44.1-48.2,88.19-96.4,132.29-144.6-51.25-18.7-103.81-34.3-157.86-42.34-40.99-6.1-82.46-9.39-123.92-7.4-21.45,1.03-53.28.9-69.78,17.13h0Z"/>
        <path class="cls-100" d="m10.08,750.22c27.97-27.61,99.11-18.03,134.28-15.68,36.58,2.45,73.3,8.01,108.97,16.4,35.43,8.33,70.1,19.46,104.33,31.78-43.42,47.46-86.84,94.92-130.25,142.38-38.27-14.02-75.67-30.74-110.99-51.15-36.89-21.32-84.78-49.66-105.05-89.24-5.55-10.84-9.81-23.96-1.29-34.5h0Z"/>
        <path class="cls-105" d="m76.31,906.51c-40.23,39.73,75.77,33.91,87.97,32.39,21.46-2.68,42.67-6.95,63.69-12.03,44.1-48.2,88.19-96.4,132.29-144.6-41.76,9.97-82.88,22.58-122.78,38.47-34.31,13.66-67.97,28.96-100.6,46.28-20.79,11.03-43.97,22.41-60.57,39.5h0Z"/>
        <path class="cls-99" d="m77.02,906.75c28.22-29.94,75.18-47.86,111.9-64.65,28.08-12.84,56.83-24.52,86.05-34.5,27.3-9.32,55.09-17.11,83.11-23.93-43.42,47.46-86.84,94.92-130.26,142.38-23.99,5.88-142.48,37.54-156.5-.84-2.4-6.56.98-13.72,5.7-18.46h0Z"/>
        <path class="cls-98" d="m214.56,1046.16c-.18.19-.36.39-.54.58h0s0,0,0,0h0c-11.1,13.82-18.46,11.08-20.69-4.22-3.05-20.87,10.01-49.78,16.74-69.04,5.48-15.7,11.57-31.16,17.99-46.5,44.1-48.2,88.19-96.4,132.29-144.6-15.68,37.73-32.99,74.79-52.08,110.93-16.93,32.06-34.76,63.64-53.71,94.55-12.23,19.94-24.41,40.74-40,58.3h0Z"/>
        <path class="cls-102" d="m214.52,1045.63c27.81-30.99,48.07-70.81,68.51-106.85,15.47-27.27,30.23-55.01,43.91-83.22,11.34-23.37,21.89-47.11,31.95-71.06-43.42,47.46-86.84,94.92-130.26,142.38-5.86,14.05-52.7,116.57-30.27,127.58,5.41,2.65,13.3-5.16,16.15-8.84h0Z"/>
        <path class="cls-101" d="m379.37,1123.26c-.15.16-.3.31-.45.47h0c-43.82,43.78-113.8-101.74-124.31-125.56-10.21-23.14-19.04-46.96-26.43-71.14,44.1-48.2,88.19-96.4,132.29-144.6,14.91,47.48,26.87,96.01,32.54,145.51,4.65,40.56,6.37,81.44,3.7,122.2-1.5,22.88-1.92,54.47-17.33,73.12h0Z"/>
        <path class="cls-104" d="m378.63,1122.12c26.02-30.56,19.17-97.73,17.87-134.81-1.25-35.84-5.23-71.84-12.07-107.04-6.27-32.24-14.84-63.93-24.53-95.3-43.42,47.46-86.84,94.92-130.26,142.38,18.77,60.95,53.65,165.82,117,196.24,10.6,5.09,22.77,7.83,31.99-1.48h0Z"/>
        <path class="cls-103" d="m517.64,1113.37c-.1.1-.2.21-.3.31h0c-28.24,24.79-85.96-13.44-110.74-28.75-42.56-26.29-81.43-58.69-117.43-93.3-21.35-20.52-41.64-42.13-60.89-64.62,44.1-48.2,88.19-96.4,132.29-144.6,38.79,45.2,75.5,92.74,104.32,145.02,20.59,37.36,38.69,76.3,50.45,117.41,5.36,18.72,16.45,51.19,2.3,68.53h0Z"/>
        <path class="cls-106" d="m516.44,1111.99c23.49-29.4-13.36-101.78-25.78-130.02-15.55-35.36-34.78-69.52-56.28-101.56s-47.52-64.94-73.65-95.49c-43.42,47.46-86.84,94.92-130.26,142.38,34.46,40.09,72.28,77.45,113.39,110.72,35.29,28.56,74.38,57.2,117.36,73,15.99,5.88,40.58,14.22,55.21.97h0Z"/>
        <path class="cls-107" d="m586.17,1019.95c-25.05,23.66-78.41,10.68-107.94,4.82-55.78-11.06-110.17-30.46-162.08-53.42-29.99-13.27-59.41-28.01-87.82-44.4,44.1-48.2,88.19-96.4,132.29-144.6,49.15,28.02,97.65,58.83,139.51,97.15,27.64,25.3,53.84,52.87,73.55,84.93,8.55,13.91,25.13,39.62,12.49,55.51h0Z"/>
        <path class="cls-14" d="m584.12,1019.57c22.14-25.51-31.01-82.65-46.27-100.04-23.15-26.37-49.91-50.18-77.89-71.27-31.34-23.61-64.79-44.38-98.8-63.91-43.42,47.46-86.84,94.92-130.26,142.38,88.43,50.8,196.78,99.54,300.39,103.66,17.13.68,39.06,1.2,52.83-10.82h0Z"/>
      </g>
      <g>
        <path class="cls-15" d="m230.82,926.01c-1.34-.23-1.15-2.43-3.28-1.66,1.05,4.05,2.5,1.52,3.28,1.66h0Z"/>
        <path class="cls-17" d="m361.08,783.64c-1.34-.24-1.16-2.43-3.28-1.67,1.06,4.05,2.51,1.53,3.28,1.67h0Z"/>
        <path class="cls-18" d="m230.76,925.85c-.71-.05-1.82,2.76-3.28-1.39,2.04-1.04,1.94,1.28,3.28,1.39h0Z"/>
        <path class="cls-20" d="m361.01,783.47c-.71-.06-1.81,2.75-3.28-1.39,2.04-1.03,1.94,1.29,3.28,1.39h0Z"/>
        <path class="cls-12" d="m561.31,873.84h0l10.62,27.38h0l7.91,26.9h0l5.12,26.15h0l2.27,25.14h0l-.6,23.88h0l-3.47,22.39h0l-6.3,20.67h0l-9.08,18.74h0l-11.77,16.63h0l-14.35,14.34h0l-16.79,11.92h0l-19.06,9.37h0l-21.15,6.72h0c-7.68,1.33-15.35,2.67-23.03,4h0c-8.23.42-16.45.83-24.68,1.25h0c-8.69-.51-17.39-1.02-26.08-1.53h0l-27.23-4.29h0c-9.37-2.34-18.73-4.68-28.1-7.01h0l-28.69-9.67h0l-28.99-12.22h0l-29.01-14.66h0l-28.73-16.95h0l-28.16-19.07h0l-27.31-21h0l-26.18-22.72h0l-24.79-24.21h0l-23.16-25.46h0l-21.28-26.45h0l-19.2-27.18h0l-16.92-27.63h0l-14.48-27.8h0l-11.89-27.69h0l-9.18-27.31h0l-6.38-26.65h0l-3.53-25.73h0l-.63-24.55h0l2.26-23.13h0l5.13-21.47h0l7.94-19.61h0l10.67-17.55h0l13.29-15.32h0l15.78-12.94h0l18.11-10.43h0l20.25-7.83h0c7.4-1.72,14.79-3.43,22.19-5.15h0c7.97-.81,15.94-1.61,23.91-2.42h0c8.46.11,16.93.22,25.39.33h0c8.87,1.02,17.75,2.05,26.62,3.07h0c9.2,1.93,18.39,3.86,27.59,5.78h0l28.28,8.44h0l28.7,11h0l28.83,13.46h0l28.68,15.78h0l28.24,17.94h0l27.53,19.93h0l26.55,21.73h0l25.31,23.31h0l23.82,24.66h0l22.1,25.76h0l20.16,26.62h0l18.02,27.21h0l15.7,27.54h0l13.23,27.6h0Z"/>
        <path class="cls-16" d="m461.86,911.22c25.84,66.79,34.79,160.67-48.51,189.35-87.7,30.2-190.01-28.68-253.65-84.64-65.86-57.91-137.14-152.26-123.53-245.94,12.35-85.05,99.91-100.62,170.98-81.95,112.22,29.49,205.64,120.6,254.71,223.19h0Z"/>
        <path class="cls-13" d="m362.75,924.88c16.74,40.6,20.01,96.89-29.54,114.5-52.7,18.73-115.11-17.77-153.3-51.2-39.57-34.65-83.3-92.32-74.7-148.63,7.82-51.27,59.99-61.27,103.36-49.76,67.25,17.84,125.53,72.72,154.19,135.1h0Z"/>
        <path class="cls-21" d="m269.9,927.68c20.73,46.38-35.89,40.17-58.79,20.01-21.63-19.05-39.52-74.01,8.69-63.49,21.58,4.71,41.31,23.77,50.09,43.48h0Z"/>
        <path class="cls-19" d="m264.36,889.12c-.41-.1-1.83,2.71-3.28-1.39,2.04-1.03,1.82,1.05,3.28,1.39h0Z"/>
        <path class="cls-3" d="m325.16,822.66c-.41-.09-1.83,2.7-3.28-1.39,2.04-1.03,1.82,1.05,3.28,1.39h0Z"/>
        <path class="cls-10" d="m395.77,786.7c19.94,43.8-34.61,36.5-55.35,17.55s-34.86-67.45,9.22-57.78c19.88,4.36,38.02,22.12,46.13,40.22h0Z"/>
        <path class="cls-9" d="m473.81,800.88c18.03,42.32,18.33,101.32-36,114.33-52.72,12.63-111.17-22.87-148.16-56.92-36.79-33.87-77.08-89.12-68.42-142.48,8.92-54.91,68.11-59.01,111.47-44.54,60.73,20.26,115.41,71.15,141.1,129.61h0Z"/>
        <path class="cls-4" d="m536.38,827.65c30.12,77.66,28.19,182.34-76.01,193.79-85.46,9.38-172.86-43.27-232.9-99.2-61.34-57.14-127.34-148.71-112.46-237.82,16.83-100.75,133-95.77,206.4-65.16,94.69,39.49,170.96,116.58,214.97,208.39h0Z"/>
        <path class="cls-7" d="m455.15,720.76c-52.46,56.65-112.47,107.5-170.76,157.94-17.97,15.55-35.94,31.1-54.28,46.21,59.39-64.92,115.02-132.87,184.9-186.46,9.85-7.55,19.85-15.42,30.46-21.87,4.72-2.87,9.33-5.65,14.43-7.71l.18-.09c.08-.02.16-.03.24-.04l.14-.07c.07-.01.14-.02.21-.03l.13-.06c.07-.01.13-.02.2-.02l.13-.05c.06,0,.13-.01.19-.01l.12-.04c.06,0,.12,0,.18,0l.11-.04c.06,0,.12,0,.17,0l.1-.03c.05,0,.11,0,.16.02l.09-.02c.05,0,.1.02.15.03h.08s.09.02.14.04h.07c.3.12.5.34.57.64v.08s.02.1.02.14l-.02.1c0,.05.01.11,0,.16l-.04.11c-1.94,4.07-4.76,7.9-8.09,11.05h0Z"/>
        <path class="cls-6" d="m299.35,609.08c-25.78,30.38-34.93,77.44-43.95,115.22-10.18,42.6-17.37,85.96-21.85,129.53-2.4,23.4-3.95,46.89-4.39,70.41,43.42-47.46,86.83-94.92,130.25-142.38.6-38.13.4-77.49-8.59-114.79-4.43-18.37-10.36-41.1-24.26-54.74-7.87-7.72-18.32-13.9-27.2-3.25h0Z"/>
        <path class="cls-5" d="m142.69,573.55c-19.69,24.96-9.91,71.85-5.04,100.15,9.35,54.41,26.51,107.61,47.32,158.64,12.77,31.31,27.07,61.98,43.23,91.69,43.42-47.46,86.83-94.92,130.25-142.38-25.05-46.04-52.7-91.64-87.63-130.94-22.95-25.83-48.31-50.54-78.17-68.32-12.84-7.64-36.33-21.88-49.97-8.83h0Z"/>
        <path class="cls-2" d="m34.67,625.84c-18.3,23.41,6.22,67.11,17.4,88.3,25.89,49.05,61.05,93.5,98.21,134.43,24.26,26.71,50.09,52.04,77.26,75.78,43.42-47.46,86.84-94.92,130.25-142.38-43.33-37.74-88.76-73.76-138.74-102.37-35.85-20.52-73.34-38.53-112.93-50.59-18.89-5.76-54.3-18.75-71.46-3.15h0Z"/>
        <path class="cls-8" d="m10.21,750.07c-42.45,51.49,126.07,135.71,155.26,149.37,20.26,9.47,40.93,17.99,61.93,25.67,43.42-47.46,86.84-94.92,130.25-142.38-51.33-18.49-103.76-34.09-157.84-41.97-40.58-5.91-81.59-9.11-122.61-7.05-20.67,1.04-51.05.91-66.99,16.36h0Z"/>
        <path class="cls-11" d="m77.5,906.2c-38.83,37.97,73.01,33.39,84.64,32.03,22.09-2.57,44.09-6.84,65.67-12.18,43.42-47.46,86.84-94.92,130.26-142.38-42.23,10.26-83.78,22.99-124.12,39.23-33.67,13.55-66.72,28.58-98.76,45.66-19.8,10.55-41.84,21.41-57.68,37.65h0Z"/>
        <path class="cls-24" d="m215.02,1045.1c-10.11,12.91-17.54,12.09-20.58-2.37-4.11-19.52,9.45-49.29,15.63-67.39,5.59-16.37,11.93-32.48,18.58-48.45,43.42-47.46,86.84-94.92,130.26-142.38-15.88,37.68-33.07,74.74-52.19,110.89-16.39,30.99-33.62,61.52-51.92,91.43-12.17,19.9-24.27,40.7-39.77,58.26h0Z"/>
        <path class="cls-22" d="m378.95,1121.78c-41.71,43.81-111.42-98.45-121.62-121.06-10.75-23.83-19.99-48.38-27.7-73.36,43.42-47.46,86.84-94.92,130.26-142.38,15.1,48.54,27.16,98.08,32.59,148.69,4.25,39.65,5.8,79.6,2.97,119.42-1.54,21.63-2.11,51.04-16.5,68.7h0Z"/>
        <path class="cls-25" d="m516.49,1111.94c-26.66,24.34-82.86-12.37-106.53-26.78-42.21-25.71-80.82-57.51-116.54-91.55-22.08-21.03-43.07-43.19-62.94-66.31,43.42-47.46,86.84-94.92,130.26-142.38,38.67,45.22,75.22,92.74,103.85,145.05,20.18,36.88,38,75.28,49.51,115.83,5.17,18.23,15.79,49.25,2.4,66.14h0Z"/>
        <path class="cls-23" d="m584.64,1019.04c-24.89,23.4-78.42,9.94-107.63,4.03-54.28-10.98-107-29.79-157.66-51.91-30.23-13.2-59.85-28-88.45-44.43,43.42-47.46,86.84-94.92,130.26-142.38,49.24,28.39,97.77,59.18,139.66,97.89,26.87,24.84,52.37,51.83,71.56,83.19,8.28,13.53,24.19,38.17,12.27,53.6h0Z"/>
      </g>
    </g>
  </g>
</svg>