<?xml version="1.0" encoding="utf-8"?>
<!-- Generator: Adobe Illustrator 27.8.1, SVG Export Plug-In . SVG Version: 6.00 Build 0)  -->
<svg version="1.1" id="Layer_2_00000016074630030391183660000004857342724727667590_"
	 xmlns="http://www.w3.org/2000/svg" xmlns:xlink="http://www.w3.org/1999/xlink" x="0px" y="0px"  width="280px" height="280px" viewBox="0 0 1392.4 419"
	 style="enable-background:new 0 0 1392.4 419;" xml:space="preserve">
<style type="text/css">
	.st0{enable-background:new    ;}
</style>
<g id="svg2144">
	<g>
		<g>
			<path d="M105.8,312.9c-57,0-103.4-46.4-103.4-103.4c0-57,46.4-103.4,103.4-103.4s103.4,46.4,103.4,103.4
				C209.1,266.5,162.7,312.9,105.8,312.9z M105.8,111.2c-54.2,0-98.4,44.1-98.4,98.4c0,54.2,44.1,98.4,98.4,98.4
				s98.4-44.1,98.4-98.4C204.1,155.3,160,111.2,105.8,111.2z"/>
		</g>
		<g id="NUqmZM.tif">
			<g>
				<path d="M209.1,212.3l-5-0.1c0.1-4.7,0.2-9.5,0.3-14.2c0.8-33,1.5-64.2-3.5-95.6c-7.4-46.8-38.1-83.5-79.9-95.9
					c-9.1-2.7-11.7-1.2-12-0.4c-0.3,1,1.1,3.3,2.6,3.8c18.4,5.9,41.3,13.2,61.2,41.7c11.8,16.9,18.7,40.9,19.3,55.8
					c0.4,8.8-2.6,15.9-8.5,19.9c-5.9,4.1-14.2,4.4-22.6,0.8l2-4.6c6.8,2.9,13.3,2.8,17.8-0.3c4.4-3,6.6-8.6,6.3-15.6
					c-0.6-14.2-7.1-37-18.4-53.2c-19-27.1-41-34.1-58.7-39.8c-3.7-1.2-7.1-5.9-5.9-10c0.9-2.8,4.4-7,18.2-2.9
					c43.7,12.9,75.7,51.2,83.4,99.9c5.1,31.9,4.4,63.3,3.6,96.5C209.3,202.9,209.2,207.6,209.1,212.3z"/>
			</g>
		</g>
		<g id="NUqmZM.tif-2">
			<g>
				<path d="M99,418.9c-2.5,0-5.7-0.5-9.8-1.7C45.4,404.3,13.5,366,5.7,317.3c-5.1-31.9-4.4-63.3-3.6-96.5c0.1-4.7,0.2-9.4,0.3-14.2
					l5,0.1c-0.1,4.7-0.2,9.5-0.3,14.2c-0.8,33-1.5,64.2,3.5,95.6c7.4,46.8,38.1,83.5,79.9,95.9c9.1,2.7,11.7,1.2,12,0.4
					c0.3-1-1.1-3.3-2.6-3.8c-18.4-5.9-41.3-13.2-61.2-41.7c-11.8-16.9-18.7-40.9-19.3-55.8c-0.4-8.8,2.6-15.9,8.5-19.9
					c5.9-4.1,14.2-4.4,22.6-0.8l-2,4.6c-6.8-2.9-13.3-2.8-17.8,0.3c-4.4,3-6.6,8.6-6.3,15.6c0.6,14.2,7.1,37,18.4,53.2
					c19,27.1,41,34.1,58.7,39.8c3.7,1.2,7.1,5.9,5.9,10C106.7,416.3,104.8,418.9,99,418.9z"/>
			</g>
		</g>
	</g>
	<g class="st0">
		<path d="M105.8,116.3c12.7,0,24.7,2.4,35.9,7.3c11.2,4.9,21,11.5,29.4,19.9c8.4,8.4,15,18.2,19.9,29.4c4.9,11.2,7.3,23.3,7.3,36.2
			c0,12.7-2.4,24.7-7.3,36.1c-4.9,11.3-11.5,21.2-19.9,29.6c-8.4,8.4-18.2,15-29.4,19.9c-11.2,4.9-23.2,7.3-35.9,7.3
			c-12.9,0-25-2.4-36.2-7.3c-11.2-4.9-21-11.5-29.4-19.9c-8.4-8.4-15-18.2-19.9-29.6c-4.9-11.3-7.3-23.3-7.3-36.1
			c0-12.9,2.4-25,7.3-36.2c4.9-11.2,11.5-21,19.9-29.4c8.4-8.4,18.2-15,29.4-19.9C80.9,118.7,92.9,116.3,105.8,116.3z M186.2,209.1
			c0-11.2-2.1-21.7-6.4-31.5c-4.2-9.8-10-18.3-17.3-25.6c-7.3-7.3-15.8-13-25.6-17.3c-9.8-4.2-20.2-6.4-31.2-6.4
			c-11.2,0-21.7,2.1-31.5,6.4c-9.8,4.2-18.3,10-25.6,17.3c-7.3,7.3-13,15.8-17.3,25.6c-4.2,9.8-6.4,20.3-6.4,31.5
			c0,11.1,2.1,21.5,6.4,31.4c4.2,9.9,10,18.4,17.3,25.7c7.3,7.3,15.8,13,25.6,17.3c9.8,4.2,20.3,6.4,31.5,6.4
			c11.1,0,21.5-2.1,31.2-6.4c9.8-4.2,18.3-10,25.6-17.3c7.3-7.3,13-15.8,17.3-25.7C184.1,230.6,186.2,220.2,186.2,209.1z"/>
		<path d="M234.6,300V154.7h47.7c6.1,0,11.8,1.2,17,3.5c5.3,2.3,9.9,5.5,13.9,9.5c4,4.1,7.1,8.8,9.4,14.4c2.3,5.5,3.5,11.4,3.5,17.7
			c0,6.1-1.2,11.8-3.5,17.3c-2.3,5.4-5.4,10.1-9.3,14.1c-3.9,4-8.4,7.1-13.7,9.4c-5.2,2.3-10.9,3.5-17,3.5h-35.9V300H234.6z
			 M246.7,166.8v64.9h35.8c4.4,0,8.5-0.9,12.2-2.6c3.8-1.7,7.1-4,9.9-6.8c2.8-2.8,5.1-6.2,6.7-10.1c1.6-3.9,2.5-8.1,2.5-12.5
			c0-4.6-0.8-8.9-2.5-12.9c-1.7-4-3.9-7.5-6.7-10.4c-2.8-2.9-6.2-5.2-10-7s-8-2.6-12.4-2.6H246.7z"/>
		<path d="M457.2,154.7v12.2h-56.4V300h-12.2V166.8h-56.6v-12.2H457.2z"/>
		<path d="M490.4,154.7V300h-12.2V154.7H490.4z"/>
	</g>
	<g class="st0">
		<path d="M687.3,277.9c-9,7.6-18.8,13.4-29.3,17.5c-10.5,4.1-21.5,6.2-33.2,6.2c-12.9,0-25-2.5-36.2-7.5c-11.2-5-21-11.6-29.4-20
			c-8.4-8.4-15-18.2-19.8-29.6c-4.8-11.3-7.2-23.3-7.2-36.1c0-12.9,2.4-25,7.2-36.2c4.8-11.2,11.4-21,19.8-29.4
			c8.4-8.4,18.2-15,29.4-19.9c11.2-4.9,23.3-7.3,36.2-7.3c9.9,0,19.8,1.7,29.4,5.1c9.7,3.4,19,8.3,28,14.8l-9.7,7.5
			c-7-5-14.6-8.7-22.7-11.3c-8.1-2.6-16.5-3.9-25.1-3.9c-11.2,0-21.7,2.1-31.5,6.3c-9.8,4.2-18.3,10-25.6,17.2
			c-7.3,7.3-13,15.8-17.1,25.7s-6.2,20.4-6.2,31.6c0,11,2.1,21.5,6.2,31.3c4.1,9.8,9.9,18.4,17.1,25.6c7.3,7.3,15.8,13.1,25.6,17.4
			c9.8,4.3,20.3,6.5,31.5,6.5c9.9,0,19.5-1.9,28.7-5.7c9.2-3.8,17.9-9.1,26-15.9L687.3,277.9z"/>
	</g>
	<g class="st0">
		<path d="M758.3,153.3c10.1,23.8,20.2,47.5,30.1,71.1c9.9,23.7,20,48,30.1,73.1l-10.5,2.8l-23.8-54.4h-50.8l-23.8,55l-11.1-2.8
			L758.3,153.3z M779.6,235.6l-21.3-54.7c-1.3,3.3-2.6,6.8-4,10.4c-1.4,3.6-2.9,7.6-4.4,11.9c-1.6,4.3-3.4,9.1-5.4,14.4
			c-2,5.2-4.2,11.3-6.6,18.1H779.6z"/>
		<path d="M939.8,287.8V300h-95.3V154.7h12.2v133.2H939.8z"/>
		<path d="M1076.6,280.9c-7.7,6.4-15.9,11.5-24.6,15.1c-8.7,3.6-17.5,5.4-26.5,5.4c-10.3,0-20-1.9-29-5.8c-9-3.9-16.9-9.2-23.6-15.9
			c-6.7-6.7-12.1-14.5-16-23.5c-4-8.9-5.9-18.6-5.9-28.9c0-10.3,2-20,5.9-29c4-9,9.3-16.9,16-23.8c6.7-6.8,14.6-12.2,23.6-16
			c9-3.9,18.7-5.8,29-5.8c7.4,0,15.1,1.5,23.1,4.4c8,2.9,16,7.1,23.9,12.4l-9.7,7.5c-12-8.1-24.4-12.2-37.3-12.2
			c-8.7,0-16.8,1.6-24.3,4.8c-7.6,3.2-14.2,7.7-19.9,13.4c-5.7,5.7-10.2,12.3-13.4,19.9c-3.2,7.6-4.8,15.7-4.8,24.3
			c0,8.7,1.6,16.7,4.8,24.2c3.2,7.5,7.7,14,13.4,19.6c5.7,5.6,12.3,10,19.9,13.3c7.6,3.2,15.7,4.8,24.3,4.8c7.4,0,14.7-1.5,22.1-4.4
			c7.4-2.9,14.3-7.1,20.7-12.4L1076.6,280.9z"/>
		<path d="M1252.3,114.6l74.9,184.8c-2,0.4-3.9,0.9-5.7,1.5c-1.8,0.6-3.6,1.1-5.7,1.5l-31.2-74h-65.2l-15.2,37.3
			c-2.6,6.3-5.2,12.6-7.7,18.9c-2.6,6.4-5.1,12.5-7.5,18.4c-0.9-0.2-1.9-0.4-2.9-0.6c-1-0.2-2.1-0.5-3.2-0.8l-5.2-1.4L1252.3,114.6z
			 M1279.9,218.2c-0.7-1.7-1.5-3.6-2.2-5.8c-0.7-2.2-1.5-4.3-2.2-6.4c-2-5.2-4-10.2-5.8-15.1c-1.8-4.9-3.7-9.8-5.5-14.8l-11.9-32.7
			l-28.5,74.9H1279.9z"/>
		<path d="M1363.9,117.9V300h-12.7V117.9H1363.9z"/>
	</g>
</g>
</svg>
