<?xml version="1.0" encoding="UTF-8"?>
<!DOCTYPE svg PUBLIC "-//W3C//DTD SVG 1.1//EN" "http://www.w3.org/Graphics/SVG/1.1/DTD/svg11.dtd">
<svg xmlns="http://www.w3.org/2000/svg" version="1.1" width="120" height="120" viewBox="0 0 2700 2700" style="shape-rendering:geometricPrecision; text-rendering:geometricPrecision; image-rendering:optimizeQuality; fill-rule:evenodd; clip-rule:evenodd" xmlns:xlink="http://www.w3.org/1999/xlink">
<g><path style="opacity:0.989" fill="#000000" d="M 290.5,1929.5 C 276.892,1903.28 263.559,1876.95 250.5,1850.5C 143.628,1610.48 115.794,1361.48 167,1103.5C 227.512,827.821 365.345,599.988 580.5,420C 816.751,229.693 1087.42,139.026 1392.5,148C 1709.58,164.703 1979.74,284.536 2203,507.5C 2399.38,711.317 2512.04,954.983 2541,1238.5C 2565.93,1547.2 2486.93,1825.53 2304,2073.5C 2137.35,2290.17 1921.85,2435.67 1657.5,2510C 1479.34,2556.73 1299.67,2563.39 1118.5,2530C 834.338,2472.58 599.838,2333.41 415,2112.5C 368.099,2054.57 326.599,1993.57 290.5,1929.5 Z"/></g>
<g><path style="opacity:1" fill="#fefefe" d="M 362.5,1951.5 C 331.23,1900.63 303.897,1847.63 280.5,1792.5C 190.493,1569.91 169.659,1340.91 218,1105.5C 277.804,843.243 410.638,626.743 616.5,456C 858.73,262.982 1135.06,178.316 1445.5,202C 1733.45,230.57 1977.61,348.07 2178,554.5C 2373.96,764.471 2479.63,1013.8 2495,1302.5C 2502.89,1568.1 2430.23,1808.77 2277,2024.5C 2109.29,2251.2 1888.12,2399.37 1613.5,2469C 1368.58,2525.52 1129.91,2506.18 897.5,2411C 689.382,2321.54 520.882,2183.71 392,1997.5C 381.907,1982.31 372.073,1966.97 362.5,1951.5 Z"/></g>
<g><path style="opacity:1" fill="#28ae54" d="M 2244.5,1067.5 C 2116.5,1067.5 1988.5,1067.5 1860.5,1067.5C 1860.3,1069.69 1859.63,1071.69 1858.5,1073.5C 1849.97,1085.88 1838.3,1093.05 1823.5,1095C 1507.5,1095.67 1191.5,1095.67 875.5,1095C 858.762,1092.96 846.429,1084.46 838.5,1069.5C 711.504,1067.5 584.171,1066.84 456.5,1067.5C 455.85,1060.24 455.516,1052.91 455.5,1045.5C 455.519,1038.1 456.186,1030.93 457.5,1024C 584.501,1023.83 711.501,1023.33 838.5,1022.5C 846.911,1006.1 860.244,997.269 878.5,996C 1192.5,995.333 1506.5,995.333 1820.5,996C 1839.43,997.111 1852.77,1006.28 1860.5,1023.5C 1988.17,1023.33 2115.83,1023.5 2243.5,1024C 2244.81,1030.93 2245.48,1038.1 2245.5,1045.5C 2245.48,1052.91 2245.15,1060.24 2244.5,1067.5 Z"/></g>
<g><path style="opacity:1" fill="#e7f5ec" d="M 456.5,1067.5 C 584.171,1066.84 711.504,1067.5 838.5,1069.5C 711.069,1068.84 583.736,1068.17 456.5,1067.5 Z"/></g>
<g><path style="opacity:1" fill="#e7f5ec" d="M 2244.5,1067.5 C 2117,1068.5 1989.33,1068.83 1861.5,1068.5C 1861.73,1070.93 1860.73,1072.6 1858.5,1073.5C 1859.63,1071.69 1860.3,1069.69 1860.5,1067.5C 1988.5,1067.5 2116.5,1067.5 2244.5,1067.5 Z"/></g>
<g><path style="opacity:1" fill="#28ae54" d="M 1397.5,1224.5 C 1365.5,1224.5 1333.5,1224.5 1301.5,1224.5C 1316.78,1195.38 1332.28,1166.38 1348,1137.5C 1349.01,1136.66 1350.18,1136.33 1351.5,1136.5C 1351.34,1137.87 1351.51,1139.21 1352,1140.5C 1367.83,1168.19 1383,1196.19 1397.5,1224.5 Z"/></g>
<g><path style="opacity:1" fill="#38ac54" d="M 1301.5,1224.5 C 1333.5,1224.5 1365.5,1224.5 1397.5,1224.5C 1400.56,1228.9 1403.23,1233.57 1405.5,1238.5C 1368.17,1238.5 1330.83,1238.5 1293.5,1238.5C 1296.2,1233.77 1298.86,1229.1 1301.5,1224.5 Z"/></g>
<g><path style="opacity:1" fill="#46a953" d="M 1293.5,1238.5 C 1330.83,1238.5 1368.17,1238.5 1405.5,1238.5C 1407.9,1242.25 1409.9,1246.25 1411.5,1250.5C 1370.17,1250.5 1328.83,1250.5 1287.5,1250.5C 1289.07,1246.27 1291.07,1242.27 1293.5,1238.5 Z"/></g>
<g><path style="opacity:1" fill="#52a652" d="M 1287.5,1250.5 C 1328.83,1250.5 1370.17,1250.5 1411.5,1250.5C 1413.85,1253.54 1415.85,1256.88 1417.5,1260.5C 1372.5,1260.5 1327.5,1260.5 1282.5,1260.5C 1283.65,1256.93 1285.32,1253.6 1287.5,1250.5 Z"/></g>
<g><path style="opacity:1" fill="#5ea351" d="M 1282.5,1260.5 C 1327.5,1260.5 1372.5,1260.5 1417.5,1260.5C 1419.69,1264.41 1421.69,1268.41 1423.5,1272.5C 1374.17,1272.5 1324.83,1272.5 1275.5,1272.5C 1277.09,1268.03 1279.43,1264.03 1282.5,1260.5 Z"/></g>
<g><path style="opacity:1" fill="#67a151" d="M 1275.5,1272.5 C 1324.83,1272.5 1374.17,1272.5 1423.5,1272.5C 1425.57,1274.35 1426.9,1276.68 1427.5,1279.5C 1375.5,1279.5 1323.5,1279.5 1271.5,1279.5C 1272.9,1277.12 1274.24,1274.79 1275.5,1272.5 Z"/></g>
<g><path style="opacity:1" fill="#709e50" d="M 1271.5,1279.5 C 1323.5,1279.5 1375.5,1279.5 1427.5,1279.5C 1429.66,1282.48 1431.33,1285.82 1432.5,1289.5C 1376.83,1289.5 1321.17,1289.5 1265.5,1289.5C 1267.5,1286.17 1269.5,1282.83 1271.5,1279.5 Z"/></g>
<g><path style="opacity:1" fill="#789a4f" d="M 1265.5,1289.5 C 1321.17,1289.5 1376.83,1289.5 1432.5,1289.5C 1435,1292.5 1437,1295.83 1438.5,1299.5C 1379.5,1299.5 1320.5,1299.5 1261.5,1299.5C 1262.63,1296.1 1263.97,1292.77 1265.5,1289.5 Z"/></g>
<g><path style="opacity:1" fill="#80974e" d="M 1261.5,1299.5 C 1320.5,1299.5 1379.5,1299.5 1438.5,1299.5C 1440.2,1301.9 1441.53,1304.57 1442.5,1307.5C 1380.5,1307.5 1318.5,1307.5 1256.5,1307.5C 1257.7,1304.41 1259.37,1301.74 1261.5,1299.5 Z"/></g>
<g><path style="opacity:1" fill="#86944e" d="M 1256.5,1307.5 C 1318.5,1307.5 1380.5,1307.5 1442.5,1307.5C 1444.2,1309.57 1445.53,1311.9 1446.5,1314.5C 1381.83,1314.5 1317.17,1314.5 1252.5,1314.5C 1253.81,1312.18 1255.14,1309.85 1256.5,1307.5 Z"/></g>
<g><path style="opacity:1" fill="#8c914d" d="M 1252.5,1314.5 C 1317.17,1314.5 1381.83,1314.5 1446.5,1314.5C 1448.6,1317.27 1450.27,1320.27 1451.5,1323.5C 1383.83,1323.5 1316.17,1323.5 1248.5,1323.5C 1249.44,1320.34 1250.78,1317.34 1252.5,1314.5 Z"/></g>
<g><path style="opacity:1" fill="#938d4c" d="M 1248.5,1323.5 C 1316.17,1323.5 1383.83,1323.5 1451.5,1323.5C 1452.91,1325.6 1453.91,1327.94 1454.5,1330.5C 1384.5,1330.5 1314.5,1330.5 1244.5,1330.5C 1244.35,1329.45 1244.52,1328.45 1245,1327.5C 1245.74,1325.68 1246.91,1324.35 1248.5,1323.5 Z"/></g>
<g><path style="opacity:1" fill="#988a4b" d="M 1244.5,1330.5 C 1314.5,1330.5 1384.5,1330.5 1454.5,1330.5C 1456.73,1333.29 1458.73,1336.29 1460.5,1339.5C 1386.83,1339.5 1313.17,1339.5 1239.5,1339.5C 1240.41,1336.01 1242.08,1333.01 1244.5,1330.5 Z"/></g>
<g><path style="opacity:1" fill="#9f854a" d="M 1239.5,1339.5 C 1313.17,1339.5 1386.83,1339.5 1460.5,1339.5C 1461.91,1342.66 1463.58,1345.66 1465.5,1348.5C 1388.17,1348.5 1310.83,1348.5 1233.5,1348.5C 1235.25,1345.34 1237.25,1342.34 1239.5,1339.5 Z"/></g>
<g><path style="opacity:1" fill="#a58149" d="M 1233.5,1348.5 C 1310.83,1348.5 1388.17,1348.5 1465.5,1348.5C 1466.83,1351.5 1468.17,1354.5 1469.5,1357.5C 1389.5,1357.5 1309.5,1357.5 1229.5,1357.5C 1230.83,1354.5 1232.17,1351.5 1233.5,1348.5 Z"/></g>
<g><path style="opacity:1" fill="#ab7c49" d="M 1229.5,1357.5 C 1309.5,1357.5 1389.5,1357.5 1469.5,1357.5C 1471.93,1360.59 1473.93,1363.92 1475.5,1367.5C 1391.83,1367.5 1308.17,1367.5 1224.5,1367.5C 1225.64,1363.88 1227.31,1360.55 1229.5,1357.5 Z"/></g>
<g><path style="opacity:1" fill="#b07848" d="M 1224.5,1367.5 C 1308.17,1367.5 1391.83,1367.5 1475.5,1367.5C 1477.27,1369.94 1478.61,1372.61 1479.5,1375.5C 1392.83,1375.5 1306.17,1375.5 1219.5,1375.5C 1220.38,1372.3 1222.05,1369.63 1224.5,1367.5 Z"/></g>
<g><path style="opacity:1" fill="#b47547" d="M 1219.5,1375.5 C 1306.17,1375.5 1392.83,1375.5 1479.5,1375.5C 1480.34,1376.67 1481.01,1378 1481.5,1379.5C 1393.5,1379.5 1305.5,1379.5 1217.5,1379.5C 1217.99,1378 1218.66,1376.67 1219.5,1375.5 Z"/></g>
<g><path style="opacity:1" fill="#b77247" d="M 1217.5,1379.5 C 1305.5,1379.5 1393.5,1379.5 1481.5,1379.5C 1483.57,1381.35 1484.9,1383.68 1485.5,1386.5C 1395.17,1386.5 1304.83,1386.5 1214.5,1386.5C 1215.09,1383.94 1216.09,1381.6 1217.5,1379.5 Z"/></g>
<g><path style="opacity:1" fill="#ba6f46" d="M 1214.5,1386.5 C 1304.83,1386.5 1395.17,1386.5 1485.5,1386.5C 1486.31,1388.22 1487.31,1389.89 1488.5,1391.5C 1395.83,1391.5 1303.17,1391.5 1210.5,1391.5C 1211.49,1389.45 1212.82,1387.78 1214.5,1386.5 Z"/></g>
<g><path style="opacity:1" fill="#bd6c46" d="M 1210.5,1391.5 C 1303.17,1391.5 1395.83,1391.5 1488.5,1391.5C 1489.53,1393.52 1490.53,1395.52 1491.5,1397.5C 1396.83,1397.5 1302.17,1397.5 1207.5,1397.5C 1208.5,1395.5 1209.5,1393.5 1210.5,1391.5 Z"/></g>
<g><path style="opacity:1" fill="#c16645" d="M 1207.5,1397.5 C 1302.17,1397.5 1396.83,1397.5 1491.5,1397.5C 1493.22,1400.34 1494.56,1403.34 1495.5,1406.5C 1466.83,1406.5 1438.17,1406.5 1409.5,1406.5C 1409.5,1407.5 1409.5,1408.5 1409.5,1409.5C 1369.5,1409.5 1329.5,1409.5 1289.5,1409.5C 1289.5,1408.5 1289.5,1407.5 1289.5,1406.5C 1260.83,1406.5 1232.17,1406.5 1203.5,1406.5C 1204.44,1403.34 1205.78,1400.34 1207.5,1397.5 Z"/></g>
<g><path style="opacity:1" fill="#c76044" d="M 1289.5,1409.5 C 1329.5,1409.5 1369.5,1409.5 1409.5,1409.5C 1409.5,1413.17 1409.5,1416.83 1409.5,1420.5C 1369.5,1420.5 1329.5,1420.5 1289.5,1420.5C 1289.5,1416.83 1289.5,1413.17 1289.5,1409.5 Z"/></g>
<g><path style="opacity:1" fill="#ca5a43" d="M 1289.5,1420.5 C 1329.5,1420.5 1369.5,1420.5 1409.5,1420.5C 1409.5,1424.17 1409.5,1427.83 1409.5,1431.5C 1369.5,1431.5 1329.5,1431.5 1289.5,1431.5C 1289.5,1427.83 1289.5,1424.17 1289.5,1420.5 Z"/></g>
<g><path style="opacity:1" fill="#cf5442" d="M 1289.5,1431.5 C 1329.5,1431.5 1369.5,1431.5 1409.5,1431.5C 1409.5,1435.17 1409.5,1438.83 1409.5,1442.5C 1369.5,1442.5 1329.5,1442.5 1289.5,1442.5C 1289.5,1438.83 1289.5,1435.17 1289.5,1431.5 Z"/></g>
<g><path style="opacity:1" fill="#d24d41" d="M 1289.5,1442.5 C 1329.5,1442.5 1369.5,1442.5 1409.5,1442.5C 1409.5,1446.83 1409.5,1451.17 1409.5,1455.5C 1369.5,1455.5 1329.5,1455.5 1289.5,1455.5C 1289.5,1451.17 1289.5,1446.83 1289.5,1442.5 Z"/></g>
<g><path style="opacity:1" fill="#f4d7d4" d="M 1203.5,1406.5 C 1232.17,1406.5 1260.83,1406.5 1289.5,1406.5C 1289.5,1407.5 1289.5,1408.5 1289.5,1409.5C 1289.5,1413.17 1289.5,1416.83 1289.5,1420.5C 1289.5,1424.17 1289.5,1427.83 1289.5,1431.5C 1289.5,1435.17 1289.5,1438.83 1289.5,1442.5C 1289.5,1446.83 1289.5,1451.17 1289.5,1455.5C 1289.5,1459.5 1289.5,1463.5 1289.5,1467.5C 1289.5,1499.17 1289.5,1530.83 1289.5,1562.5C 1288.5,1511 1288.17,1459.34 1288.5,1407.5C 1260,1407.83 1231.66,1407.5 1203.5,1406.5 Z"/></g>
<g><path style="opacity:1" fill="#f4d7d4" d="M 1495.5,1406.5 C 1467.34,1407.5 1439,1407.83 1410.5,1407.5C 1410.83,1459.34 1410.5,1511 1409.5,1562.5C 1409.5,1530.83 1409.5,1499.17 1409.5,1467.5C 1409.5,1463.5 1409.5,1459.5 1409.5,1455.5C 1409.5,1451.17 1409.5,1446.83 1409.5,1442.5C 1409.5,1438.83 1409.5,1435.17 1409.5,1431.5C 1409.5,1427.83 1409.5,1424.17 1409.5,1420.5C 1409.5,1416.83 1409.5,1413.17 1409.5,1409.5C 1409.5,1408.5 1409.5,1407.5 1409.5,1406.5C 1438.17,1406.5 1466.83,1406.5 1495.5,1406.5 Z"/></g>
<g><path style="opacity:1" fill="#d64741" d="M 1289.5,1455.5 C 1329.5,1455.5 1369.5,1455.5 1409.5,1455.5C 1409.5,1459.5 1409.5,1463.5 1409.5,1467.5C 1369.5,1467.5 1329.5,1467.5 1289.5,1467.5C 1289.5,1463.5 1289.5,1459.5 1289.5,1455.5 Z"/></g>
<g><path style="opacity:1" fill="#d84140" d="M 1289.5,1467.5 C 1329.5,1467.5 1369.5,1467.5 1409.5,1467.5C 1409.5,1499.17 1409.5,1530.83 1409.5,1562.5C 1369.5,1563.83 1329.5,1563.83 1289.5,1562.5C 1289.5,1530.83 1289.5,1499.17 1289.5,1467.5 Z"/></g>
<g><path style="opacity:1" fill="#d94141" d="M 876.5,1601.5 C 1191.5,1601.33 1506.5,1601.5 1821.5,1602C 1829.48,1603 1836.82,1605.66 1843.5,1610C 1848.79,1610.79 1853.95,1610.29 1859,1608.5C 1989.75,1608.34 2120.59,1608.51 2251.5,1609C 2277.68,1611.68 2292.01,1626.18 2294.5,1652.5C 2293.04,1674.12 2282.04,1688.28 2261.5,1695C 2123.32,1695.83 1985.15,1695.66 1847,1694.5C 1840.63,1696.62 1834.46,1699.12 1828.5,1702C 1509.17,1702.67 1189.83,1702.67 870.5,1702C 864.617,1699.3 858.617,1696.8 852.5,1694.5C 714.181,1695.66 575.848,1695.83 437.5,1695C 412.352,1685.96 401.852,1668.13 406,1641.5C 412.39,1621.77 425.89,1610.94 446.5,1609C 577.833,1608.33 709.167,1608.33 840.5,1609C 845.442,1610.33 850.442,1610.66 855.5,1610C 862.135,1606.01 869.135,1603.17 876.5,1601.5 Z"/></g>
<g><path style="opacity:1" fill="#0c0c0c" d="M 280.5,1792.5 C 303.897,1847.63 331.23,1900.63 362.5,1951.5C 360.61,1951.7 359.11,1951.04 358,1949.5C 357.667,1949.83 357.333,1950.17 357,1950.5C 354.754,1946.93 351.587,1944.43 347.5,1943C 345.667,1941.83 344.167,1940.33 343,1938.5C 341.927,1939.28 340.76,1939.11 339.5,1938C 339.833,1937.67 340.167,1937.33 340.5,1937C 336,1934.5 332.5,1931 330,1926.5C 329.667,1926.83 329.333,1927.17 329,1927.5C 324.628,1923.36 320.461,1919.02 316.5,1914.5C 315.052,1912.33 313.885,1910 313,1907.5C 312.667,1907.83 312.333,1908.17 312,1908.5C 310.45,1904.59 307.617,1901.09 303.5,1898C 305.398,1896.02 304.732,1894.36 301.5,1893C 301.833,1892.67 302.167,1892.33 302.5,1892C 301.5,1891.67 300.5,1891.33 299.5,1891C 299.254,1889.94 299.254,1888.77 299.5,1887.5C 298.289,1885.58 296.956,1883.74 295.5,1882C 295.833,1881.67 296.167,1881.33 296.5,1881C 294.49,1877.97 292.49,1874.97 290.5,1872C 290.957,1871.59 291.291,1871.09 291.5,1870.5C 289.439,1865.38 287.439,1860.22 285.5,1855C 286.634,1853.98 286.301,1853.32 284.5,1853C 284.957,1852.59 285.291,1852.09 285.5,1851.5C 284.473,1847.81 283.14,1844.31 281.5,1841C 281.833,1840.67 282.167,1840.33 282.5,1840C 280.572,1831.19 279.239,1822.53 278.5,1814C 279.649,1812.4 279.649,1810.73 278.5,1809C 280.663,1806.48 280.663,1804.14 278.5,1802C 279.167,1801.67 279.833,1801.33 280.5,1801C 280.271,1798.22 280.271,1795.39 280.5,1792.5 Z"/></g>
<g><path style="opacity:0.004" fill="#fefffe" d="M 248.5,1848.5 C 247.833,1847.17 247.833,1847.17 248.5,1848.5 Z"/></g>
<g><path style="opacity:0.004" fill="#fefffe" d="M 248.5,1848.5 C 249.833,1849.17 249.833,1849.17 248.5,1848.5 Z"/></g>
<g><path style="opacity:0.004" fill="#fefefe" d="M 250.5,1850.5 C 263.559,1876.95 276.892,1903.28 290.5,1929.5C 286.753,1925.14 282.92,1920.8 279,1916.5C 276.844,1911.34 274.511,1906.34 272,1901.5C 271,1900.17 270,1900.17 269,1901.5C 268.79,1900.2 268.957,1898.86 269.5,1897.5C 269.182,1896.35 268.516,1895.52 267.5,1895C 267.957,1894.59 268.291,1894.09 268.5,1893.5C 267.726,1892.29 266.893,1892.29 266,1893.5C 265.51,1892.21 265.343,1890.87 265.5,1889.5C 264.5,1889.5 263.5,1889.5 262.5,1889.5C 262.554,1885.22 260.554,1882.89 256.5,1882.5C 258.351,1881.13 258.684,1879.47 257.5,1877.5C 256.808,1878.03 256.308,1878.69 256,1879.5C 255.696,1877.56 254.863,1875.89 253.5,1874.5C 254.167,1873.5 254.833,1872.5 255.5,1871.5C 253.627,1872.09 251.96,1871.42 250.5,1869.5C 253.044,1868.06 253.044,1866.56 250.5,1865C 251.687,1863.98 252.687,1862.81 253.5,1861.5C 252.975,1860.81 252.308,1860.31 251.5,1860C 252.38,1858.64 252.714,1857.14 252.5,1855.5C 248.649,1854.82 247.982,1853.15 250.5,1850.5 Z M 270.5,1897.5 C 272.337,1897.64 272.67,1898.31 271.5,1899.5C 270.702,1899.04 270.369,1898.38 270.5,1897.5 Z"/></g>
<g><path style="opacity:0.004" fill="#fefffe" d="M 248.5,1856.5 C 249.833,1857.17 249.833,1857.17 248.5,1856.5 Z"/></g>
<g><path style="opacity:0.004" fill="#fefffe" d="M 256.5,1882.5 C 255.833,1883.17 255.833,1883.17 256.5,1882.5 Z"/></g>
<g><path style="opacity:0.004" fill="#fefffe" d="M 269.5,1906.5 C 270.833,1907.17 270.833,1907.17 269.5,1906.5 Z"/></g>
<g><path style="opacity:0.004" fill="#fefffe" d="M 289.5,1932.5 C 290.833,1933.17 290.833,1933.17 289.5,1932.5 Z"/></g>
<g><path style="opacity:0.004" fill="#fefffe" d="M 290.5,1934.5 C 291.833,1935.17 291.833,1935.17 290.5,1934.5 Z"/></g>
</svg>
