<?xml version="1.0" encoding="UTF-8"?>
<!DOCTYPE svg PUBLIC "-//W3C//DTD SVG 1.1//EN" "http://www.w3.org/Graphics/SVG/1.1/DTD/svg11.dtd">
<svg xmlns="http://www.w3.org/2000/svg" version="1.1" width="120" height="120" viewBox="0 0 2700 2700" style="shape-rendering:geometricPrecision; text-rendering:geometricPrecision; image-rendering:optimizeQuality; fill-rule:evenodd; clip-rule:evenodd" xmlns:xlink="http://www.w3.org/1999/xlink">
<g><path style="opacity:0.993" fill="#010101" d="M 1398.5,2549.5 C 1391.99,2549.87 1385.66,2550.54 1379.5,2551.5C 1355.17,2551.5 1330.83,2551.5 1306.5,2551.5C 1301.02,2550.48 1295.35,2549.82 1289.5,2549.5C 1273.47,2549.36 1257.47,2548.69 1241.5,2547.5C 1238.34,2546.57 1235.01,2545.9 1231.5,2545.5C 1222.13,2545.27 1212.79,2544.61 1203.5,2543.5C 1200.66,2542.66 1197.66,2541.99 1194.5,2541.5C 926.868,2506.18 696.202,2395.01 502.5,2208C 418.186,2124.54 347.52,2031.71 290.5,1929.5C 276.892,1903.28 263.559,1876.95 250.5,1850.5C 211.093,1762.79 181.927,1672.12 163,1578.5C 162.056,1571.84 161.223,1565.17 160.5,1558.5C 160.449,1553.81 159.449,1549.48 157.5,1545.5C 154.779,1532.73 153.112,1519.73 152.5,1506.5C 152.34,1504.85 151.674,1503.51 150.5,1502.5C 149.773,1492.5 149.106,1482.5 148.5,1472.5C 148.932,1469.12 148.265,1466.12 146.5,1463.5C 146.5,1462.5 146.5,1461.5 146.5,1460.5C 147.139,1459.9 147.472,1459.07 147.5,1458C 147.028,1454.32 146.362,1450.82 145.5,1447.5C 144.76,1439.19 144.427,1430.85 144.5,1422.5C 144.153,1417.32 143.487,1412.32 142.5,1407.5C 142.5,1369.5 142.5,1331.5 142.5,1293.5C 143.305,1287.98 143.972,1282.32 144.5,1276.5C 144.768,1262.48 145.435,1248.48 146.5,1234.5C 147.268,1232.29 147.935,1229.95 148.5,1227.5C 176.49,965.517 277.99,736.85 453,541.5C 655.673,322.067 906.173,193.233 1204.5,155C 1505.2,123.258 1780.2,191.925 2029.5,361C 2241.94,511.163 2392.1,708.997 2480,954.5C 2548.21,1155.51 2563.54,1360.51 2526,1569.5C 2474.98,1830.46 2353.14,2051.3 2160.5,2232C 1944.72,2428.13 1690.72,2533.97 1398.5,2549.5 Z"/></g>
<g><path style="opacity:1" fill="#fefefe" d="M 1343.5,197.5 C 1343.5,503.5 1343.5,809.5 1343.5,1115.5C 1182.83,1115.5 1022.17,1115.5 861.5,1115.5C 861.833,1017.83 861.5,920.164 860.5,822.5C 859.893,822.624 859.56,822.957 859.5,823.5C 859.167,824.167 858.833,824.833 858.5,825.5C 693.035,990.465 527.701,1155.63 362.5,1321C 529.154,1487.93 694.154,1653.26 857.5,1817C 858.527,1817.51 859.527,1818.01 860.5,1818.5C 861.499,1721.33 861.833,1624 861.5,1526.5C 1022.17,1526.5 1182.83,1526.5 1343.5,1526.5C 1343.5,1851.17 1343.5,2175.83 1343.5,2500.5C 1068.54,2498.14 824.872,2410.98 612.5,2239C 587.401,2218.07 563.068,2196.24 539.5,2173.5C 533.167,2166.5 526.5,2159.83 519.5,2153.5C 459.58,2091.57 406.914,2024.23 361.5,1951.5C 350.497,1932.16 339.497,1912.83 328.5,1893.5C 321.418,1879 314.085,1864.67 306.5,1850.5C 297.816,1831.42 289.149,1812.42 280.5,1793.5C 183.648,1554.18 166.481,1309.18 229,1058.5C 281.719,861.306 378.552,689.973 519.5,544.5C 526.5,538.167 533.167,531.5 539.5,524.5C 750.462,322.414 1002.8,213.581 1296.5,198C 1312.16,197.5 1327.83,197.333 1343.5,197.5 Z"/></g>
<g><path style="opacity:1" fill="#e51f28" d="M 1345.5,197.5 C 1346.5,197.5 1347.5,197.5 1348.5,197.5C 1348.5,498.167 1348.5,798.833 1348.5,1099.5C 1348.46,1103.07 1348.79,1106.74 1349.5,1110.5C 1351.06,1111.45 1352.73,1112.11 1354.5,1112.5C 1431.27,1112.16 1508.11,1112.16 1585,1112.5C 1660.31,1112.5 1735.47,1111.83 1810.5,1110.5C 1811.52,1111.85 1812.52,1113.19 1813.5,1114.5C 1657.5,1114.5 1501.5,1114.5 1345.5,1114.5C 1345.5,808.833 1345.5,503.167 1345.5,197.5 Z"/></g>
<g><path style="opacity:1" fill="#ea1b1c" d="M 1348.5,197.5 C 1349.5,197.5 1350.5,197.5 1351.5,197.5C 1351.21,496.924 1351.21,797.591 1351.5,1099.5C 1350.5,1099.5 1349.5,1099.5 1348.5,1099.5C 1348.5,798.833 1348.5,498.167 1348.5,197.5 Z"/></g>
<g><path style="opacity:1" fill="#ea1923" d="M 1351.5,197.5 C 1353.17,197.5 1354.83,197.5 1356.5,197.5C 1356.24,498.602 1355.91,799.268 1355.5,1099.5C 1356.83,1110.15 1358.16,1110.15 1359.5,1099.5C 1360.5,798.834 1360.83,498.167 1360.5,197.5C 1655.21,205.112 1910.88,307.446 2127.5,504.5C 2130.23,508.234 2133.56,511.234 2137.5,513.5C 2140.83,517.5 2144.5,521.167 2148.5,524.5C 2154.83,531.5 2161.5,538.167 2168.5,544.5C 2371.63,756.447 2480.47,1010.11 2495,1305.5C 2502.52,1586.92 2420.85,1838.59 2250,2060.5C 2224.49,2092.85 2197.32,2123.85 2168.5,2153.5C 2161.5,2159.83 2154.83,2166.5 2148.5,2173.5C 1942.72,2370.58 1696.72,2479.08 1410.5,2499C 1393.84,2499.78 1377.17,2500.28 1360.5,2500.5C 1360.18,2231.32 1360.51,1962.82 1361.5,1695C 1360.67,1645.24 1360.17,1595.4 1360,1545.5C 1359.67,1545.83 1359.33,1546.17 1359,1546.5C 1358.83,1544.29 1358.16,1542.29 1357,1540.5C 1356.74,1543.56 1356.24,1546.56 1355.5,1549.5C 1356.11,1864.35 1356.45,2181.35 1356.5,2500.5C 1354.83,2500.5 1353.17,2500.5 1351.5,2500.5C 1351.24,2183.61 1350.91,1865.78 1350.5,1547C 1352.43,1544.11 1352.43,1541.45 1350.5,1539C 1351.83,1537 1351.83,1535 1350.5,1533C 1350.76,1531.74 1351.43,1530.74 1352.5,1530C 1351.43,1529.15 1350.43,1528.31 1349.5,1527.5C 1508,1527.17 1666.33,1527.5 1824.5,1528.5C 1824.17,1625.17 1824.5,1721.84 1825.5,1818.5C 1827.94,1819.78 1829.61,1819.11 1830.5,1816.5C 1831.4,1815.79 1831.74,1814.79 1831.5,1813.5C 1832.91,1813.03 1833.57,1812.03 1833.5,1810.5C 1835.48,1808.86 1837.48,1807.19 1839.5,1805.5C 1840.93,1805.58 1842.26,1805.25 1843.5,1804.5C 1845.53,1801.81 1847.86,1799.47 1850.5,1797.5C 1851.39,1796.68 1851.72,1795.68 1851.5,1794.5C 1854.09,1793.75 1855.92,1792.08 1857,1789.5C 1858.75,1790.17 1860.42,1790.51 1862,1790.5C 1863.49,1789.75 1863.65,1788.91 1862.5,1788C 1863.19,1786.93 1863.69,1785.77 1864,1784.5C 1867.95,1780.26 1872.12,1776.26 1876.5,1772.5C 1877.75,1770.68 1878.41,1768.68 1878.5,1766.5C 1879.93,1766.58 1881.26,1766.25 1882.5,1765.5C 1884.94,1763.43 1887.28,1761.27 1889.5,1759C 1890.45,1758.52 1891.45,1758.35 1892.5,1758.5C 1892.35,1757.45 1892.52,1756.45 1893,1755.5C 1897.18,1748.8 1902.85,1743.8 1910,1740.5C 1910.86,1738.13 1911.69,1735.8 1912.5,1733.5C 1914.43,1733.27 1916.1,1732.44 1917.5,1731C 1920.35,1728.15 1922.85,1724.98 1925,1721.5C 1929.36,1719.91 1932.2,1716.91 1933.5,1712.5C 1933.5,1711.83 1933.5,1711.17 1933.5,1710.5C 1937.83,1707.17 1941.83,1703.51 1945.5,1699.5C 1946.93,1699.58 1948.26,1699.25 1949.5,1698.5C 1953.11,1694.15 1957.44,1690.65 1962.5,1688C 1963.04,1685.75 1964.21,1683.91 1966,1682.5C 1966.49,1681.21 1966.66,1679.87 1966.5,1678.5C 1971.71,1677.48 1975.21,1674.48 1977,1669.5C 1978.6,1668.13 1980.43,1667.13 1982.5,1666.5C 1986.04,1661.63 1990.2,1657.3 1995,1653.5C 1996.44,1652.1 1997.27,1650.43 1997.5,1648.5C 2002.67,1644.17 2008,1640 2013.5,1636C 2015.58,1633.34 2017.24,1630.5 2018.5,1627.5C 2021.04,1625.72 2023.71,1623.89 2026.5,1622C 2029.07,1618.31 2031.74,1614.81 2034.5,1611.5C 2038.85,1610.48 2041.52,1607.82 2042.5,1603.5C 2043.91,1600.58 2045.91,1598.08 2048.5,1596C 2049.9,1594.56 2051.57,1593.73 2053.5,1593.5C 2056.08,1591.77 2058.58,1589.77 2061,1587.5C 2062.44,1586.1 2063.27,1584.43 2063.5,1582.5C 2065.02,1582.49 2066.18,1581.82 2067,1580.5C 2068.44,1579.1 2069.27,1577.43 2069.5,1575.5C 2070.5,1575.5 2071.5,1575.5 2072.5,1575.5C 2072.5,1574.5 2072.5,1573.5 2072.5,1572.5C 2074.91,1571.62 2077.24,1570.45 2079.5,1569C 2083.65,1564.02 2087.98,1559.18 2092.5,1554.5C 2094.8,1552.37 2097.47,1550.87 2100.5,1550C 2101.65,1547.54 2102.65,1545.04 2103.5,1542.5C 2107.24,1540.94 2110.24,1538.44 2112.5,1535C 2113.79,1534.51 2115.13,1534.34 2116.5,1534.5C 2116.35,1533.45 2116.52,1532.45 2117,1531.5C 2121.47,1529.7 2123.97,1526.36 2124.5,1521.5C 2125.68,1521.72 2126.68,1521.39 2127.5,1520.5C 2132.95,1514.6 2138.61,1508.94 2144.5,1503.5C 2146.22,1502.07 2148.22,1501.23 2150.5,1501C 2150.04,1500.59 2149.71,1500.09 2149.5,1499.5C 2150.92,1497.66 2152.09,1495.66 2153,1493.5C 2153.33,1493.83 2153.67,1494.17 2154,1494.5C 2156.11,1492.62 2157.44,1490.29 2158,1487.5C 2159.17,1486.11 2160.67,1485.27 2162.5,1485C 2163.82,1484.18 2164.49,1483.02 2164.5,1481.5C 2167.14,1477.86 2170.14,1474.53 2173.5,1471.5C 2175.01,1470.5 2176.68,1469.83 2178.5,1469.5C 2178.5,1468.5 2178.5,1467.5 2178.5,1466.5C 2180.7,1465.99 2182.7,1464.99 2184.5,1463.5C 2185.39,1462.68 2185.72,1461.68 2185.5,1460.5C 2188.12,1458.36 2190.95,1456.36 2194,1454.5C 2194.49,1453.21 2194.66,1451.87 2194.5,1450.5C 2198.71,1448.64 2202.71,1446.31 2206.5,1443.5C 2207.8,1441.24 2208.8,1438.91 2209.5,1436.5C 2211.81,1435.33 2214.15,1434 2216.5,1432.5C 2217.17,1431.5 2217.83,1430.5 2218.5,1429.5C 2225.7,1434.28 2227.37,1432.62 2223.5,1424.5C 2226.56,1422.05 2228.89,1419.05 2230.5,1415.5C 2234.53,1414.15 2237.86,1411.82 2240.5,1408.5C 2241.62,1409.83 2242.95,1410.33 2244.5,1410C 2243.31,1408.98 2242.31,1407.81 2241.5,1406.5C 2242.99,1404.7 2243.99,1402.7 2244.5,1400.5C 2247.53,1397.14 2250.86,1394.14 2254.5,1391.5C 2256.02,1391.49 2257.18,1390.82 2258,1389.5C 2259.44,1388.1 2260.27,1386.43 2260.5,1384.5C 2261.5,1384.5 2262.5,1384.5 2263.5,1384.5C 2263.5,1383.5 2263.5,1382.5 2263.5,1381.5C 2265.43,1381.27 2267.1,1380.44 2268.5,1379C 2269.82,1378.18 2270.49,1377.02 2270.5,1375.5C 2273.96,1374.26 2276.96,1372.26 2279.5,1369.5C 2280.54,1367.41 2282.04,1365.75 2284,1364.5C 2284.49,1363.21 2284.66,1361.87 2284.5,1360.5C 2286.21,1357.79 2288.55,1355.79 2291.5,1354.5C 2294.02,1353.99 2296.02,1352.66 2297.5,1350.5C 2299.05,1349.55 2300.71,1349.21 2302.5,1349.5C 2302.37,1344.98 2304.04,1341.31 2307.5,1338.5C 2311.79,1339.52 2314.12,1337.85 2314.5,1333.5C 2317.05,1332.25 2318.38,1330.25 2318.5,1327.5C 2319.12,1325.88 2320.12,1324.55 2321.5,1323.5C 2322.65,1323.21 2323.32,1322.38 2323.5,1321C 2318.75,1314.08 2313.09,1307.92 2306.5,1302.5C 2298.83,1294.17 2290.83,1286.17 2282.5,1278.5C 2280.17,1275.83 2277.83,1273.17 2275.5,1270.5C 2269.86,1265.19 2264.19,1259.86 2258.5,1254.5C 2246.53,1241.86 2234.19,1229.53 2221.5,1217.5C 2218.5,1213.83 2215.17,1210.5 2211.5,1207.5C 2211.5,1206.83 2211.17,1206.5 2210.5,1206.5C 2207.5,1202.83 2204.17,1199.5 2200.5,1196.5C 2197.29,1192.63 2193.63,1188.96 2189.5,1185.5C 2185.5,1180.83 2181.17,1176.5 2176.5,1172.5C 2171.83,1166.5 2166.5,1161.17 2160.5,1156.5C 2152.94,1148.03 2144.94,1140.03 2136.5,1132.5C 2129.83,1125.17 2122.83,1118.17 2115.5,1111.5C 2110.5,1105.83 2105.17,1100.5 2099.5,1095.5C 2091.83,1087.17 2083.83,1079.17 2075.5,1071.5C 2068.81,1064.14 2061.81,1057.14 2054.5,1050.5C 2053.83,1049.17 2052.83,1048.17 2051.5,1047.5C 2045.17,1039.83 2038.17,1032.83 2030.5,1026.5C 2023.83,1019.17 2016.83,1012.17 2009.5,1005.5C 2002.83,998.167 1995.83,991.167 1988.5,984.5C 1987.83,983.167 1986.83,982.167 1985.5,981.5C 1980.5,975.833 1975.17,970.5 1969.5,965.5C 1967.17,962.5 1964.5,959.833 1961.5,957.5C 1959.27,954.36 1956.61,951.694 1953.5,949.5C 1949.5,944.833 1945.17,940.5 1940.5,936.5C 1935.53,930.86 1930.19,925.527 1924.5,920.5C 1917.83,913.167 1910.83,906.167 1903.5,899.5C 1898.5,893.833 1893.17,888.5 1887.5,883.5C 1880.83,876.167 1873.83,869.167 1866.5,862.5C 1863.17,858.5 1859.5,854.833 1855.5,851.5C 1853.27,848.36 1850.61,845.694 1847.5,843.5C 1843.5,838.833 1839.17,834.5 1834.5,830.5C 1832.62,827.27 1829.96,825.27 1826.5,824.5C 1825.88,824.611 1825.38,824.944 1825,825.5C 1824.5,921.833 1824.33,1018.17 1824.5,1114.5C 1820.83,1114.5 1817.17,1114.5 1813.5,1114.5C 1812.52,1113.19 1811.52,1111.85 1810.5,1110.5C 1735.47,1111.83 1660.31,1112.5 1585,1112.5C 1508.11,1112.16 1431.27,1112.16 1354.5,1112.5C 1352.73,1112.11 1351.06,1111.45 1349.5,1110.5C 1348.79,1106.74 1348.46,1103.07 1348.5,1099.5C 1349.5,1099.5 1350.5,1099.5 1351.5,1099.5C 1351.21,797.591 1351.21,496.924 1351.5,197.5 Z"/></g>
<g><path style="opacity:1" fill="#50141a" d="M 2127.5,504.5 C 2131.44,506.766 2134.77,509.766 2137.5,513.5C 2133.56,511.234 2130.23,508.234 2127.5,504.5 Z"/></g>
<g><path style="opacity:1" fill="#400e13" d="M 2148.5,524.5 C 2149.24,524.369 2149.91,524.536 2150.5,525C 2157.1,531.09 2163.1,537.59 2168.5,544.5C 2161.5,538.167 2154.83,531.5 2148.5,524.5 Z"/></g>
<g><path style="opacity:1" fill="#4b4b4b" d="M 539.5,524.5 C 533.167,531.5 526.5,538.167 519.5,544.5C 519.369,543.761 519.536,543.094 520,542.5C 526.09,535.904 532.59,529.904 539.5,524.5 Z"/></g>
<g><path style="opacity:1" fill="#e91d20" d="M 1356.5,197.5 C 1357.83,197.5 1359.17,197.5 1360.5,197.5C 1360.83,498.167 1360.5,798.834 1359.5,1099.5C 1358.16,1110.15 1356.83,1110.15 1355.5,1099.5C 1355.91,799.268 1356.24,498.602 1356.5,197.5 Z"/></g>
<g><path style="opacity:1" fill="#211e20" d="M 858.5,825.5 C 859.167,922.167 859.833,1018.83 860.5,1115.5C 1021.33,1116.5 1182.33,1116.83 1343.5,1116.5C 1504.83,1116.5 1666.17,1116.5 1827.5,1116.5C 1828.5,1021 1828.83,925.335 1828.5,829.5C 1829.5,829.5 1830.5,829.5 1831.5,829.5C 1832.39,830.11 1833.39,830.443 1834.5,830.5C 1836.22,832.911 1837.55,835.577 1838.5,838.5C 1841.65,839.986 1844.65,841.653 1847.5,843.5C 1849.28,845.41 1850.28,847.744 1850.5,850.5C 1852.22,850.629 1853.88,850.962 1855.5,851.5C 1855.34,852.873 1855.51,854.207 1856,855.5C 1859.67,857.692 1863.17,860.025 1866.5,862.5C 1866.1,868.43 1868.77,872.096 1874.5,873.5C 1873.29,875.516 1873.29,877.516 1874.5,879.5C 1875.48,879.023 1876.31,878.357 1877,877.5C 1880.5,879.6 1884,881.6 1887.5,883.5C 1888.65,885.712 1889.65,888.045 1890.5,890.5C 1895.12,893.131 1899.46,896.131 1903.5,899.5C 1903.71,902.988 1904.54,906.321 1906,909.5C 1906.69,908.643 1907.52,907.977 1908.5,907.5C 1909.88,912.723 1913.22,915.556 1918.5,916C 1920.11,918.127 1922.11,919.627 1924.5,920.5C 1925.71,923.225 1927.55,925.559 1930,927.5C 1930.64,933.978 1934.14,936.978 1940.5,936.5C 1942.22,938.911 1943.55,941.577 1944.5,944.5C 1947.65,945.986 1950.65,947.653 1953.5,949.5C 1955.28,951.41 1956.28,953.744 1956.5,956.5C 1958.22,956.629 1959.88,956.962 1961.5,957.5C 1961.34,958.873 1961.51,960.207 1962,961.5C 1964.64,962.656 1967.14,963.989 1969.5,965.5C 1968.91,969.074 1970.41,971.074 1974,971.5C 1974.54,973.869 1975.7,975.869 1977.5,977.5C 1980.42,978.448 1983.09,979.781 1985.5,981.5C 1986.83,982.167 1987.83,983.167 1988.5,984.5C 1990.43,986.781 1991.43,989.447 1991.5,992.5C 1992.5,992.5 1993.5,992.5 1994.5,992.5C 1994.29,994.144 1994.62,995.644 1995.5,997C 1997.83,998 2000.17,999 2002.5,1000C 2004.44,1002.45 2006.77,1004.29 2009.5,1005.5C 2010.71,1008.23 2012.55,1010.56 2015,1012.5C 2015.16,1017.99 2017.99,1020.82 2023.5,1021C 2025.44,1023.45 2027.77,1025.29 2030.5,1026.5C 2032.05,1029.56 2034.22,1032.23 2037,1034.5C 2036.97,1039.64 2039.47,1042.31 2044.5,1042.5C 2044.67,1043.82 2044.34,1044.99 2043.5,1046C 2045.93,1046.41 2048.6,1046.91 2051.5,1047.5C 2052.83,1048.17 2053.83,1049.17 2054.5,1050.5C 2057.35,1054.03 2059.35,1058.03 2060.5,1062.5C 2062.17,1063.17 2063.83,1063.83 2065.5,1064.5C 2064.32,1066.2 2064.32,1067.86 2065.5,1069.5C 2066.09,1069.29 2066.59,1068.96 2067,1068.5C 2069.58,1070.25 2072.41,1071.25 2075.5,1071.5C 2075.02,1074.28 2076.02,1076.28 2078.5,1077.5C 2079.51,1082.34 2082.51,1084.84 2087.5,1085C 2091.1,1089.1 2095.1,1092.6 2099.5,1095.5C 2100.78,1097.61 2101.62,1099.94 2102,1102.5C 2102.72,1101.55 2103.55,1101.38 2104.5,1102C 2107.74,1105.74 2111.4,1108.91 2115.5,1111.5C 2116.71,1114.23 2118.55,1116.56 2121,1118.5C 2121.16,1123.99 2123.99,1126.82 2129.5,1127C 2131.44,1129.45 2133.77,1131.29 2136.5,1132.5C 2137.71,1135.23 2139.55,1137.56 2142,1139.5C 2141.75,1144.28 2143.92,1147.28 2148.5,1148.5C 2149.39,1149.32 2149.72,1150.32 2149.5,1151.5C 2151.2,1151.34 2152.87,1151.51 2154.5,1152C 2156.11,1154.13 2158.11,1155.63 2160.5,1156.5C 2163.64,1164.06 2168.97,1169.4 2176.5,1172.5C 2179.83,1177.83 2184.17,1182.17 2189.5,1185.5C 2193.63,1188.96 2197.29,1192.63 2200.5,1196.5C 2202.83,1200.83 2206.17,1204.17 2210.5,1206.5C 2211.17,1206.5 2211.5,1206.83 2211.5,1207.5C 2213.81,1211.81 2217.14,1215.14 2221.5,1217.5C 2223.05,1220.56 2225.22,1223.23 2228,1225.5C 2229.48,1228.11 2230.65,1230.78 2231.5,1233.5C 2232.83,1233.5 2234.17,1233.5 2235.5,1233.5C 2235.5,1235.17 2235.5,1236.83 2235.5,1238.5C 2237.68,1238.59 2239.68,1239.25 2241.5,1240.5C 2243.31,1242.61 2245.47,1244.27 2248,1245.5C 2250.29,1249.75 2253.79,1252.75 2258.5,1254.5C 2261.8,1259.13 2265.46,1263.47 2269.5,1267.5C 2270.59,1269.58 2271.59,1271.75 2272.5,1274C 2276.22,1274.84 2279.55,1276.34 2282.5,1278.5C 2286.04,1282.87 2289.38,1287.37 2292.5,1292C 2291.55,1292.72 2291.38,1293.55 2292,1294.5C 2294.67,1296.45 2297.51,1298.11 2300.5,1299.5C 2301.39,1300.32 2301.72,1301.32 2301.5,1302.5C 2302.5,1302.5 2303.5,1302.5 2304.5,1302.5C 2306.22,1304.91 2307.56,1307.58 2308.5,1310.5C 2310.69,1310.7 2312.69,1311.37 2314.5,1312.5C 2317.13,1314.63 2319.63,1316.96 2322,1319.5C 2322.58,1320.93 2322.41,1322.26 2321.5,1323.5C 2320.12,1324.55 2319.12,1325.88 2318.5,1327.5C 2317.76,1327.37 2317.09,1327.54 2316.5,1328C 2313.27,1331.39 2310.27,1334.89 2307.5,1338.5C 2306.32,1338.28 2305.32,1338.61 2304.5,1339.5C 2299.85,1344.3 2295.52,1349.3 2291.5,1354.5C 2288.55,1355.79 2286.21,1357.79 2284.5,1360.5C 2279.32,1365.08 2274.65,1370.08 2270.5,1375.5C 2268.23,1377.08 2265.89,1378.75 2263.5,1380.5C 2262.61,1381.32 2262.28,1382.32 2262.5,1383.5C 2261.5,1383.5 2260.5,1383.5 2259.5,1383.5C 2258.21,1386.44 2256.55,1389.11 2254.5,1391.5C 2250.86,1394.14 2247.53,1397.14 2244.5,1400.5C 2239.32,1405.08 2234.65,1410.08 2230.5,1415.5C 2227.58,1416.91 2225.08,1418.91 2223,1421.5C 2221.56,1422.9 2220.73,1424.57 2220.5,1426.5C 2218.57,1426.73 2216.9,1427.56 2215.5,1429C 2212.91,1431.08 2210.91,1433.58 2209.5,1436.5C 2204.08,1440.61 2199.08,1445.27 2194.5,1450.5C 2190.79,1453.21 2187.79,1456.54 2185.5,1460.5C 2182.55,1461.79 2180.21,1463.79 2178.5,1466.5C 2176.44,1467.76 2174.77,1469.43 2173.5,1471.5C 2170.14,1474.53 2167.14,1477.86 2164.5,1481.5C 2162.6,1482.7 2160.6,1483.87 2158.5,1485C 2146.97,1497.02 2135.64,1509.19 2124.5,1521.5C 2121.58,1522.91 2119.08,1524.91 2117,1527.5C 2115.56,1528.9 2114.73,1530.57 2114.5,1532.5C 2112.57,1532.73 2110.9,1533.56 2109.5,1535C 2106.91,1537.08 2104.91,1539.58 2103.5,1542.5C 2102.76,1542.37 2102.09,1542.54 2101.5,1543C 2091.97,1553.03 2082.3,1562.87 2072.5,1572.5C 2068.78,1575.22 2065.78,1578.55 2063.5,1582.5C 2060.58,1583.91 2058.08,1585.91 2056,1588.5C 2054.56,1589.9 2053.73,1591.57 2053.5,1593.5C 2051.57,1593.73 2049.9,1594.56 2048.5,1596C 2045.91,1598.08 2043.91,1600.58 2042.5,1603.5C 2041.76,1603.37 2041.09,1603.54 2040.5,1604C 2037.91,1606.08 2035.91,1608.58 2034.5,1611.5C 2033.76,1611.37 2033.09,1611.54 2032.5,1612C 2027.43,1616.98 2022.77,1622.15 2018.5,1627.5C 2017.76,1627.37 2017.09,1627.54 2016.5,1628C 2009.57,1634.42 2003.24,1641.26 1997.5,1648.5C 1994.88,1650.44 1992.21,1652.44 1989.5,1654.5C 1987.5,1655.17 1985.5,1655.83 1983.5,1656.5C 1983.32,1658.61 1982.32,1660.27 1980.5,1661.5C 1977.62,1659.23 1975.29,1659.89 1973.5,1663.5C 1976.18,1666.06 1975.68,1668.06 1972,1669.5C 1970.71,1667.65 1969.21,1667.31 1967.5,1668.5C 1966.02,1670.85 1964.68,1673.19 1963.5,1675.5C 1962.5,1675.5 1961.5,1675.5 1960.5,1675.5C 1960.5,1676.5 1960.5,1677.5 1960.5,1678.5C 1958.19,1679.68 1955.85,1681.02 1953.5,1682.5C 1952.27,1684.4 1952.6,1686.06 1954.5,1687.5C 1952.85,1690.88 1950.85,1691.21 1948.5,1688.5C 1945.81,1690.19 1943.81,1692.53 1942.5,1695.5C 1941.68,1696.39 1940.68,1696.72 1939.5,1696.5C 1937.61,1700.07 1934.94,1703.07 1931.5,1705.5C 1933,1706.84 1933.67,1708.51 1933.5,1710.5C 1933.5,1711.17 1933.5,1711.83 1933.5,1712.5C 1932.76,1712.37 1932.09,1712.54 1931.5,1713C 1925.05,1719.85 1918.72,1726.69 1912.5,1733.5C 1908.88,1736.44 1905.21,1739.44 1901.5,1742.5C 1894,1750.73 1886.33,1758.73 1878.5,1766.5C 1868.83,1775.17 1859.83,1784.5 1851.5,1794.5C 1847.11,1797.7 1843.11,1801.37 1839.5,1805.5C 1837.48,1807.19 1835.48,1808.86 1833.5,1810.5C 1832.18,1811.94 1830.51,1812.61 1828.5,1812.5C 1828.83,1717 1828.5,1621.67 1827.5,1526.5C 1827.17,1525.5 1826.5,1524.83 1825.5,1524.5C 1745.17,1523.83 1664.67,1523.5 1584,1523.5C 1503.16,1523.5 1422.66,1524.17 1342.5,1525.5C 1181.83,1525.5 1021.17,1525.5 860.5,1525.5C 860.5,1623.17 860.5,1720.83 860.5,1818.5C 859.527,1818.01 858.527,1817.51 857.5,1817C 694.154,1653.26 529.154,1487.93 362.5,1321C 527.701,1155.63 693.035,990.465 858.5,825.5 Z"/></g>
<g><path style="opacity:1" fill="#c4c3c3" d="M 859.5,823.5 C 859.56,822.957 859.893,822.624 860.5,822.5C 861.5,920.164 861.833,1017.83 861.5,1115.5C 1022.17,1115.5 1182.83,1115.5 1343.5,1115.5C 1343.5,1115.83 1343.5,1116.17 1343.5,1116.5C 1182.33,1116.83 1021.33,1116.5 860.5,1115.5C 860.833,1018 860.499,920.665 859.5,823.5 Z"/></g>
<g><path style="opacity:1" fill="#531c1c" d="M 1834.5,830.5 C 1839.17,834.5 1843.5,838.833 1847.5,843.5C 1844.65,841.653 1841.65,839.986 1838.5,838.5C 1837.55,835.577 1836.22,832.911 1834.5,830.5 Z"/></g>
<g><path style="opacity:1" fill="#5a1b1b" d="M 1847.5,843.5 C 1850.61,845.694 1853.27,848.36 1855.5,851.5C 1853.88,850.962 1852.22,850.629 1850.5,850.5C 1850.28,847.744 1849.28,845.41 1847.5,843.5 Z"/></g>
<g><path style="opacity:1" fill="#611c1e" d="M 1855.5,851.5 C 1859.5,854.833 1863.17,858.5 1866.5,862.5C 1863.17,860.025 1859.67,857.692 1856,855.5C 1855.51,854.207 1855.34,852.873 1855.5,851.5 Z"/></g>
<g><path style="opacity:1" fill="#401b1d" d="M 1866.5,862.5 C 1873.83,869.167 1880.83,876.167 1887.5,883.5C 1884,881.6 1880.5,879.6 1877,877.5C 1876.31,878.357 1875.48,879.023 1874.5,879.5C 1873.29,877.516 1873.29,875.516 1874.5,873.5C 1868.77,872.096 1866.1,868.43 1866.5,862.5 Z"/></g>
<g><path style="opacity:1" fill="#541a1b" d="M 1887.5,883.5 C 1893.17,888.5 1898.5,893.833 1903.5,899.5C 1899.46,896.131 1895.12,893.131 1890.5,890.5C 1889.65,888.045 1888.65,885.712 1887.5,883.5 Z"/></g>
<g><path style="opacity:1" fill="#2d2b2c" d="M 859.5,823.5 C 860.499,920.665 860.833,1018 860.5,1115.5C 859.833,1018.83 859.167,922.167 858.5,825.5C 858.833,824.833 859.167,824.167 859.5,823.5 Z"/></g>
<g><path style="opacity:1" fill="#441a1b" d="M 1903.5,899.5 C 1910.83,906.167 1917.83,913.167 1924.5,920.5C 1922.11,919.627 1920.11,918.127 1918.5,916C 1913.22,915.556 1909.88,912.723 1908.5,907.5C 1907.52,907.977 1906.69,908.643 1906,909.5C 1904.54,906.321 1903.71,902.988 1903.5,899.5 Z"/></g>
<g><path style="opacity:1" fill="#481b1b" d="M 1924.5,920.5 C 1930.19,925.527 1935.53,930.86 1940.5,936.5C 1934.14,936.978 1930.64,933.978 1930,927.5C 1927.55,925.559 1925.71,923.225 1924.5,920.5 Z"/></g>
<g><path style="opacity:1" fill="#531b1c" d="M 1940.5,936.5 C 1945.17,940.5 1949.5,944.833 1953.5,949.5C 1950.65,947.653 1947.65,945.986 1944.5,944.5C 1943.55,941.577 1942.22,938.911 1940.5,936.5 Z"/></g>
<g><path style="opacity:1" fill="#5a1b1b" d="M 1953.5,949.5 C 1956.61,951.694 1959.27,954.36 1961.5,957.5C 1959.88,956.962 1958.22,956.629 1956.5,956.5C 1956.28,953.744 1955.28,951.41 1953.5,949.5 Z"/></g>
<g><path style="opacity:1" fill="#621d20" d="M 1961.5,957.5 C 1964.5,959.833 1967.17,962.5 1969.5,965.5C 1967.14,963.989 1964.64,962.656 1962,961.5C 1961.51,960.207 1961.34,958.873 1961.5,957.5 Z"/></g>
<g><path style="opacity:1" fill="#380909" d="M 1831.5,829.5 C 1830.5,829.5 1829.5,829.5 1828.5,829.5C 1828.83,925.335 1828.5,1021 1827.5,1116.5C 1827.33,1019.5 1827.5,922.499 1828,825.5C 1829.1,826.949 1830.27,828.282 1831.5,829.5 Z"/></g>
<g><path style="opacity:1" fill="#521a1b" d="M 1969.5,965.5 C 1975.17,970.5 1980.5,975.833 1985.5,981.5C 1983.09,979.781 1980.42,978.448 1977.5,977.5C 1975.7,975.869 1974.54,973.869 1974,971.5C 1970.41,971.074 1968.91,969.074 1969.5,965.5 Z"/></g>
<g><path style="opacity:1" fill="#4c1b1c" d="M 1988.5,984.5 C 1995.83,991.167 2002.83,998.167 2009.5,1005.5C 2006.77,1004.29 2004.44,1002.45 2002.5,1000C 2000.17,999 1997.83,998 1995.5,997C 1994.62,995.644 1994.29,994.144 1994.5,992.5C 1993.5,992.5 1992.5,992.5 1991.5,992.5C 1991.43,989.447 1990.43,986.781 1988.5,984.5 Z"/></g>
<g><path style="opacity:1" fill="#7a211e" d="M 1826.5,824.5 C 1829.96,825.27 1832.62,827.27 1834.5,830.5C 1833.39,830.443 1832.39,830.11 1831.5,829.5C 1830.27,828.282 1829.1,826.949 1828,825.5C 1827.5,922.499 1827.33,1019.5 1827.5,1116.5C 1666.17,1116.5 1504.83,1116.5 1343.5,1116.5C 1343.5,1116.17 1343.5,1115.83 1343.5,1115.5C 1504.5,1115.5 1665.5,1115.5 1826.5,1115.5C 1826.5,1018.5 1826.5,921.5 1826.5,824.5 Z"/></g>
<g><path style="opacity:1" fill="#4f1b1c" d="M 2009.5,1005.5 C 2016.83,1012.17 2023.83,1019.17 2030.5,1026.5C 2027.77,1025.29 2025.44,1023.45 2023.5,1021C 2017.99,1020.82 2015.16,1017.99 2015,1012.5C 2012.55,1010.56 2010.71,1008.23 2009.5,1005.5 Z"/></g>
<g><path style="opacity:1" fill="#491b1c" d="M 2030.5,1026.5 C 2038.17,1032.83 2045.17,1039.83 2051.5,1047.5C 2048.6,1046.91 2045.93,1046.41 2043.5,1046C 2044.34,1044.99 2044.67,1043.82 2044.5,1042.5C 2039.47,1042.31 2036.97,1039.64 2037,1034.5C 2034.22,1032.23 2032.05,1029.56 2030.5,1026.5 Z"/></g>
<g><path style="opacity:1" fill="#3f1c1e" d="M 2054.5,1050.5 C 2061.81,1057.14 2068.81,1064.14 2075.5,1071.5C 2072.41,1071.25 2069.58,1070.25 2067,1068.5C 2066.59,1068.96 2066.09,1069.29 2065.5,1069.5C 2064.32,1067.86 2064.32,1066.2 2065.5,1064.5C 2063.83,1063.83 2062.17,1063.17 2060.5,1062.5C 2059.35,1058.03 2057.35,1054.03 2054.5,1050.5 Z"/></g>
<g><path style="opacity:1" fill="#4e1c1d" d="M 2075.5,1071.5 C 2083.83,1079.17 2091.83,1087.17 2099.5,1095.5C 2095.1,1092.6 2091.1,1089.1 2087.5,1085C 2082.51,1084.84 2079.51,1082.34 2078.5,1077.5C 2076.02,1076.28 2075.02,1074.28 2075.5,1071.5 Z"/></g>
<g><path style="opacity:1" fill="#5b1c1d" d="M 2099.5,1095.5 C 2105.17,1100.5 2110.5,1105.83 2115.5,1111.5C 2111.4,1108.91 2107.74,1105.74 2104.5,1102C 2103.55,1101.38 2102.72,1101.55 2102,1102.5C 2101.62,1099.94 2100.78,1097.61 2099.5,1095.5 Z"/></g>
<g><path style="opacity:1" fill="#d74646" d="M 1343.5,197.5 C 1344.17,197.5 1344.83,197.5 1345.5,197.5C 1345.5,503.167 1345.5,808.833 1345.5,1114.5C 1501.5,1114.5 1657.5,1114.5 1813.5,1114.5C 1817.17,1114.5 1820.83,1114.5 1824.5,1114.5C 1824.33,1018.17 1824.5,921.833 1825,825.5C 1825.38,824.944 1825.88,824.611 1826.5,824.5C 1826.5,921.5 1826.5,1018.5 1826.5,1115.5C 1665.5,1115.5 1504.5,1115.5 1343.5,1115.5C 1343.5,809.5 1343.5,503.5 1343.5,197.5 Z"/></g>
<g><path style="opacity:1" fill="#4f1a1c" d="M 2115.5,1111.5 C 2122.83,1118.17 2129.83,1125.17 2136.5,1132.5C 2133.77,1131.29 2131.44,1129.45 2129.5,1127C 2123.99,1126.82 2121.16,1123.99 2121,1118.5C 2118.55,1116.56 2116.71,1114.23 2115.5,1111.5 Z"/></g>
<g><path style="opacity:1" fill="#4b1b1d" d="M 2136.5,1132.5 C 2144.94,1140.03 2152.94,1148.03 2160.5,1156.5C 2158.11,1155.63 2156.11,1154.13 2154.5,1152C 2152.87,1151.51 2151.2,1151.34 2149.5,1151.5C 2149.72,1150.32 2149.39,1149.32 2148.5,1148.5C 2143.92,1147.28 2141.75,1144.28 2142,1139.5C 2139.55,1137.56 2137.71,1135.23 2136.5,1132.5 Z"/></g>
<g><path style="opacity:1" fill="#57191c" d="M 2160.5,1156.5 C 2166.5,1161.17 2171.83,1166.5 2176.5,1172.5C 2168.97,1169.4 2163.64,1164.06 2160.5,1156.5 Z"/></g>
<g><path style="opacity:1" fill="#741e20" d="M 2176.5,1172.5 C 2181.17,1176.5 2185.5,1180.83 2189.5,1185.5C 2184.17,1182.17 2179.83,1177.83 2176.5,1172.5 Z"/></g>
<g><path style="opacity:1" fill="#741e20" d="M 2200.5,1196.5 C 2204.17,1199.5 2207.5,1202.83 2210.5,1206.5C 2206.17,1204.17 2202.83,1200.83 2200.5,1196.5 Z"/></g>
<g><path style="opacity:1" fill="#6f1c1e" d="M 2211.5,1207.5 C 2215.17,1210.5 2218.5,1213.83 2221.5,1217.5C 2217.14,1215.14 2213.81,1211.81 2211.5,1207.5 Z"/></g>
<g><path style="opacity:0.059" fill="#7d7b7c" d="M 148.5,1227.5 C 147.935,1229.95 147.268,1232.29 146.5,1234.5C 145.99,1231.61 146.656,1229.28 148.5,1227.5 Z"/></g>
<g><path style="opacity:1" fill="#4b1b1c" d="M 2221.5,1217.5 C 2234.19,1229.53 2246.53,1241.86 2258.5,1254.5C 2253.79,1252.75 2250.29,1249.75 2248,1245.5C 2245.47,1244.27 2243.31,1242.61 2241.5,1240.5C 2239.68,1239.25 2237.68,1238.59 2235.5,1238.5C 2235.5,1236.83 2235.5,1235.17 2235.5,1233.5C 2234.17,1233.5 2232.83,1233.5 2231.5,1233.5C 2230.65,1230.78 2229.48,1228.11 2228,1225.5C 2225.22,1223.23 2223.05,1220.56 2221.5,1217.5 Z"/></g>
<g><path style="opacity:1" fill="#771e20" d="M 2258.5,1254.5 C 2264.19,1259.86 2269.86,1265.19 2275.5,1270.5C 2273.05,1270.38 2271.05,1269.38 2269.5,1267.5C 2265.46,1263.47 2261.8,1259.13 2258.5,1254.5 Z"/></g>
<g><path style="opacity:1" fill="#47191a" d="M 2269.5,1267.5 C 2271.05,1269.38 2273.05,1270.38 2275.5,1270.5C 2277.83,1273.17 2280.17,1275.83 2282.5,1278.5C 2279.55,1276.34 2276.22,1274.84 2272.5,1274C 2271.59,1271.75 2270.59,1269.58 2269.5,1267.5 Z"/></g>
<g><path style="opacity:0.071" fill="#595859" d="M 144.5,1276.5 C 143.972,1282.32 143.305,1287.98 142.5,1293.5C 142.334,1288.16 142.501,1282.82 143,1277.5C 143.383,1276.94 143.883,1276.61 144.5,1276.5 Z"/></g>
<g><path style="opacity:1" fill="#40191b" d="M 2282.5,1278.5 C 2290.83,1286.17 2298.83,1294.17 2306.5,1302.5C 2308.76,1306.1 2311.43,1309.44 2314.5,1312.5C 2312.69,1311.37 2310.69,1310.7 2308.5,1310.5C 2307.56,1307.58 2306.22,1304.91 2304.5,1302.5C 2303.5,1302.5 2302.5,1302.5 2301.5,1302.5C 2301.72,1301.32 2301.39,1300.32 2300.5,1299.5C 2297.51,1298.11 2294.67,1296.45 2292,1294.5C 2291.38,1293.55 2291.55,1292.72 2292.5,1292C 2289.38,1287.37 2286.04,1282.87 2282.5,1278.5 Z"/></g>
<g><path style="opacity:1" fill="#791a20" d="M 2306.5,1302.5 C 2313.09,1307.92 2318.75,1314.08 2323.5,1321C 2323.32,1322.38 2322.65,1323.21 2321.5,1323.5C 2322.41,1322.26 2322.58,1320.93 2322,1319.5C 2319.63,1316.96 2317.13,1314.63 2314.5,1312.5C 2311.43,1309.44 2308.76,1306.1 2306.5,1302.5 Z"/></g>
<g><path style="opacity:1" fill="#c52528" d="M 2318.5,1327.5 C 2318.38,1330.25 2317.05,1332.25 2314.5,1333.5C 2314.12,1337.85 2311.79,1339.52 2307.5,1338.5C 2310.27,1334.89 2313.27,1331.39 2316.5,1328C 2317.09,1327.54 2317.76,1327.37 2318.5,1327.5 Z"/></g>
<g><path style="opacity:1" fill="#be2427" d="M 2307.5,1338.5 C 2304.04,1341.31 2302.37,1344.98 2302.5,1349.5C 2300.71,1349.21 2299.05,1349.55 2297.5,1350.5C 2296.02,1352.66 2294.02,1353.99 2291.5,1354.5C 2295.52,1349.3 2299.85,1344.3 2304.5,1339.5C 2305.32,1338.61 2306.32,1338.28 2307.5,1338.5 Z"/></g>
<g><path style="opacity:1" fill="#bc2427" d="M 2284.5,1360.5 C 2284.66,1361.87 2284.49,1363.21 2284,1364.5C 2282.04,1365.75 2280.54,1367.41 2279.5,1369.5C 2276.96,1372.26 2273.96,1374.26 2270.5,1375.5C 2274.65,1370.08 2279.32,1365.08 2284.5,1360.5 Z"/></g>
<g><path style="opacity:1" fill="#931b1d" d="M 2270.5,1375.5 C 2270.49,1377.02 2269.82,1378.18 2268.5,1379C 2267.1,1380.44 2265.43,1381.27 2263.5,1381.5C 2263.5,1382.5 2263.5,1383.5 2263.5,1384.5C 2262.5,1384.5 2261.5,1384.5 2260.5,1384.5C 2260.27,1386.43 2259.44,1388.1 2258,1389.5C 2257.18,1390.82 2256.02,1391.49 2254.5,1391.5C 2256.55,1389.11 2258.21,1386.44 2259.5,1383.5C 2260.5,1383.5 2261.5,1383.5 2262.5,1383.5C 2262.28,1382.32 2262.61,1381.32 2263.5,1380.5C 2265.89,1378.75 2268.23,1377.08 2270.5,1375.5 Z"/></g>
<g><path style="opacity:1" fill="#c32426" d="M 2244.5,1400.5 C 2243.99,1402.7 2242.99,1404.7 2241.5,1406.5C 2242.31,1407.81 2243.31,1408.98 2244.5,1410C 2242.95,1410.33 2241.62,1409.83 2240.5,1408.5C 2237.86,1411.82 2234.53,1414.15 2230.5,1415.5C 2234.65,1410.08 2239.32,1405.08 2244.5,1400.5 Z"/></g>
<g><path style="opacity:0.031" fill="#7c7a7b" d="M 142.5,1407.5 C 143.487,1412.32 144.153,1417.32 144.5,1422.5C 143.778,1422.08 143.278,1421.42 143,1420.5C 142.501,1416.18 142.334,1411.85 142.5,1407.5 Z"/></g>
<g><path style="opacity:1" fill="#cd2223" d="M 2230.5,1415.5 C 2228.89,1419.05 2226.56,1422.05 2223.5,1424.5C 2227.37,1432.62 2225.7,1434.28 2218.5,1429.5C 2217.83,1430.5 2217.17,1431.5 2216.5,1432.5C 2214.15,1434 2211.81,1435.33 2209.5,1436.5C 2210.91,1433.58 2212.91,1431.08 2215.5,1429C 2216.9,1427.56 2218.57,1426.73 2220.5,1426.5C 2220.73,1424.57 2221.56,1422.9 2223,1421.5C 2225.08,1418.91 2227.58,1416.91 2230.5,1415.5 Z"/></g>
<g><path style="opacity:1" fill="#b92425" d="M 2209.5,1436.5 C 2208.8,1438.91 2207.8,1441.24 2206.5,1443.5C 2202.71,1446.31 2198.71,1448.64 2194.5,1450.5C 2199.08,1445.27 2204.08,1440.61 2209.5,1436.5 Z"/></g>
<g><path style="opacity:0.024" fill="#727071" d="M 145.5,1447.5 C 146.362,1450.82 147.028,1454.32 147.5,1458C 147.472,1459.07 147.139,1459.9 146.5,1460.5C 145.8,1456.2 145.467,1451.87 145.5,1447.5 Z"/></g>
<g><path style="opacity:1" fill="#9f2123" d="M 2194.5,1450.5 C 2194.66,1451.87 2194.49,1453.21 2194,1454.5C 2190.95,1456.36 2188.12,1458.36 2185.5,1460.5C 2187.79,1456.54 2190.79,1453.21 2194.5,1450.5 Z"/></g>
<g><path style="opacity:1" fill="#9f2021" d="M 2185.5,1460.5 C 2185.72,1461.68 2185.39,1462.68 2184.5,1463.5C 2182.7,1464.99 2180.7,1465.99 2178.5,1466.5C 2180.21,1463.79 2182.55,1461.79 2185.5,1460.5 Z"/></g>
<g><path style="opacity:0.608" fill="#656364" d="M 146.5,1463.5 C 148.265,1466.12 148.932,1469.12 148.5,1472.5C 147.883,1472.39 147.383,1472.06 147,1471.5C 146.503,1468.85 146.336,1466.19 146.5,1463.5 Z"/></g>
<g><path style="opacity:1" fill="#7e1b1d" d="M 2178.5,1466.5 C 2178.5,1467.5 2178.5,1468.5 2178.5,1469.5C 2176.68,1469.83 2175.01,1470.5 2173.5,1471.5C 2174.77,1469.43 2176.44,1467.76 2178.5,1466.5 Z"/></g>
<g><path style="opacity:0.078" fill="#b4b1b2" d="M 150.5,1502.5 C 151.674,1503.51 152.34,1504.85 152.5,1506.5C 150.896,1505.71 150.229,1504.38 150.5,1502.5 Z"/></g>
<g><path style="opacity:1" fill="#b62225" d="M 2164.5,1481.5 C 2164.49,1483.02 2163.82,1484.18 2162.5,1485C 2160.67,1485.27 2159.17,1486.11 2158,1487.5C 2157.44,1490.29 2156.11,1492.62 2154,1494.5C 2153.67,1494.17 2153.33,1493.83 2153,1493.5C 2152.09,1495.66 2150.92,1497.66 2149.5,1499.5C 2149.71,1500.09 2150.04,1500.59 2150.5,1501C 2148.22,1501.23 2146.22,1502.07 2144.5,1503.5C 2138.61,1508.94 2132.95,1514.6 2127.5,1520.5C 2126.68,1521.39 2125.68,1521.72 2124.5,1521.5C 2135.64,1509.19 2146.97,1497.02 2158.5,1485C 2160.6,1483.87 2162.6,1482.7 2164.5,1481.5 Z"/></g>
<g><path style="opacity:1" fill="#331719" d="M 1825.5,1524.5 C 1664.79,1524.17 1504.13,1524.5 1343.5,1525.5C 1343.17,1525.5 1342.83,1525.5 1342.5,1525.5C 1422.66,1524.17 1503.16,1523.5 1584,1523.5C 1664.67,1523.5 1745.17,1523.83 1825.5,1524.5 Z"/></g>
<g><path style="opacity:1" fill="#5c0c14" d="M 1825.5,1524.5 C 1826.5,1524.83 1827.17,1525.5 1827.5,1526.5C 1827.5,1526.83 1827.5,1527.17 1827.5,1527.5C 1827.17,1527.5 1826.83,1527.5 1826.5,1527.5C 1665.67,1526.5 1504.67,1526.17 1343.5,1526.5C 1343.5,1526.17 1343.5,1525.83 1343.5,1525.5C 1504.13,1524.5 1664.79,1524.17 1825.5,1524.5 Z"/></g>
<g><path style="opacity:1" fill="#d34d4e" d="M 1343.5,1526.5 C 1504.67,1526.17 1665.67,1526.5 1826.5,1527.5C 1826.5,1623.5 1826.5,1719.5 1826.5,1815.5C 1825.83,1719.83 1825.17,1624.17 1824.5,1528.5C 1666.33,1527.5 1508,1527.17 1349.5,1527.5C 1349.17,1527.5 1348.83,1527.5 1348.5,1527.5C 1347.5,1527.5 1346.5,1527.5 1345.5,1527.5C 1345.5,1851.83 1345.5,2176.17 1345.5,2500.5C 1344.83,2500.5 1344.17,2500.5 1343.5,2500.5C 1343.5,2175.83 1343.5,1851.17 1343.5,1526.5 Z"/></g>
<g><path style="opacity:1" fill="#c32426" d="M 2124.5,1521.5 C 2123.97,1526.36 2121.47,1529.7 2117,1531.5C 2116.52,1532.45 2116.35,1533.45 2116.5,1534.5C 2115.13,1534.34 2113.79,1534.51 2112.5,1535C 2110.24,1538.44 2107.24,1540.94 2103.5,1542.5C 2104.91,1539.58 2106.91,1537.08 2109.5,1535C 2110.9,1533.56 2112.57,1532.73 2114.5,1532.5C 2114.73,1530.57 2115.56,1528.9 2117,1527.5C 2119.08,1524.91 2121.58,1522.91 2124.5,1521.5 Z"/></g>
<g><path style="opacity:1" fill="#bebcbd" d="M 1342.5,1525.5 C 1342.83,1525.5 1343.17,1525.5 1343.5,1525.5C 1343.5,1525.83 1343.5,1526.17 1343.5,1526.5C 1182.83,1526.5 1022.17,1526.5 861.5,1526.5C 861.833,1624 861.499,1721.33 860.5,1818.5C 860.5,1720.83 860.5,1623.17 860.5,1525.5C 1021.17,1525.5 1181.83,1525.5 1342.5,1525.5 Z"/></g>
<g><path style="opacity:1" fill="#e51e27" d="M 1348.5,1527.5 C 1348.51,1851.68 1348.51,2176.01 1348.5,2500.5C 1347.5,2500.5 1346.5,2500.5 1345.5,2500.5C 1345.5,2176.17 1345.5,1851.83 1345.5,1527.5C 1346.5,1527.5 1347.5,1527.5 1348.5,1527.5 Z"/></g>
<g><path style="opacity:1" fill="#d42c32" d="M 1824.5,1528.5 C 1825.17,1624.17 1825.83,1719.83 1826.5,1815.5C 1826.37,1816.38 1826.7,1817.04 1827.5,1817.5C 1828.42,1816.87 1829.42,1816.54 1830.5,1816.5C 1829.61,1819.11 1827.94,1819.78 1825.5,1818.5C 1824.5,1721.84 1824.17,1625.17 1824.5,1528.5 Z"/></g>
<g><path style="opacity:0.718" fill="#4d4d4d" d="M 157.5,1545.5 C 159.449,1549.48 160.449,1553.81 160.5,1558.5C 159.778,1558.08 159.278,1557.42 159,1556.5C 158.452,1552.83 157.952,1549.16 157.5,1545.5 Z"/></g>
<g><path style="opacity:1" fill="#ad2223" d="M 2103.5,1542.5 C 2102.65,1545.04 2101.65,1547.54 2100.5,1550C 2097.47,1550.87 2094.8,1552.37 2092.5,1554.5C 2087.98,1559.18 2083.65,1564.02 2079.5,1569C 2077.24,1570.45 2074.91,1571.62 2072.5,1572.5C 2082.3,1562.87 2091.97,1553.03 2101.5,1543C 2102.09,1542.54 2102.76,1542.37 2103.5,1542.5 Z"/></g>
<g><path style="opacity:1" fill="#9b2020" d="M 2072.5,1572.5 C 2072.5,1573.5 2072.5,1574.5 2072.5,1575.5C 2071.5,1575.5 2070.5,1575.5 2069.5,1575.5C 2069.27,1577.43 2068.44,1579.1 2067,1580.5C 2066.18,1581.82 2065.02,1582.49 2063.5,1582.5C 2065.78,1578.55 2068.78,1575.22 2072.5,1572.5 Z"/></g>
<g><path style="opacity:1" fill="#6f1e1a" d="M 1826.5,1527.5 C 1826.83,1527.5 1827.17,1527.5 1827.5,1527.5C 1827.5,1623.5 1827.5,1719.5 1827.5,1815.5C 1829.2,1815.47 1830.53,1814.81 1831.5,1813.5C 1831.74,1814.79 1831.4,1815.79 1830.5,1816.5C 1829.42,1816.54 1828.42,1816.87 1827.5,1817.5C 1826.7,1817.04 1826.37,1816.38 1826.5,1815.5C 1826.5,1719.5 1826.5,1623.5 1826.5,1527.5 Z"/></g>
<g><path style="opacity:1" fill="#b32427" d="M 2063.5,1582.5 C 2063.27,1584.43 2062.44,1586.1 2061,1587.5C 2058.58,1589.77 2056.08,1591.77 2053.5,1593.5C 2053.73,1591.57 2054.56,1589.9 2056,1588.5C 2058.08,1585.91 2060.58,1583.91 2063.5,1582.5 Z"/></g>
<g><path style="opacity:1" fill="#a82123" d="M 2042.5,1603.5 C 2041.52,1607.82 2038.85,1610.48 2034.5,1611.5C 2035.91,1608.58 2037.91,1606.08 2040.5,1604C 2041.09,1603.54 2041.76,1603.37 2042.5,1603.5 Z"/></g>
<g><path style="opacity:1" fill="#a52023" d="M 2034.5,1611.5 C 2031.74,1614.81 2029.07,1618.31 2026.5,1622C 2023.71,1623.89 2021.04,1625.72 2018.5,1627.5C 2022.77,1622.15 2027.43,1616.98 2032.5,1612C 2033.09,1611.54 2033.76,1611.37 2034.5,1611.5 Z"/></g>
<g><path style="opacity:1" fill="#390909" d="M 1827.5,1526.5 C 1828.5,1621.67 1828.83,1717 1828.5,1812.5C 1830.51,1812.61 1832.18,1811.94 1833.5,1810.5C 1833.57,1812.03 1832.91,1813.03 1831.5,1813.5C 1830.53,1814.81 1829.2,1815.47 1827.5,1815.5C 1827.5,1719.5 1827.5,1623.5 1827.5,1527.5C 1827.5,1527.17 1827.5,1526.83 1827.5,1526.5 Z"/></g>
<g><path style="opacity:1" fill="#b72225" d="M 2018.5,1627.5 C 2017.24,1630.5 2015.58,1633.34 2013.5,1636C 2008,1640 2002.67,1644.17 1997.5,1648.5C 2003.24,1641.26 2009.57,1634.42 2016.5,1628C 2017.09,1627.54 2017.76,1627.37 2018.5,1627.5 Z"/></g>
<g><path style="opacity:1" fill="#b02225" d="M 1997.5,1648.5 C 1997.27,1650.43 1996.44,1652.1 1995,1653.5C 1990.2,1657.3 1986.04,1661.63 1982.5,1666.5C 1980.43,1667.13 1978.6,1668.13 1977,1669.5C 1975.21,1674.48 1971.71,1677.48 1966.5,1678.5C 1974.22,1670.45 1981.88,1662.45 1989.5,1654.5C 1992.21,1652.44 1994.88,1650.44 1997.5,1648.5 Z"/></g>
<g><path style="opacity:1" fill="#bf2427" d="M 1966.5,1678.5 C 1966.66,1679.87 1966.49,1681.21 1966,1682.5C 1964.21,1683.91 1963.04,1685.75 1962.5,1688C 1957.44,1690.65 1953.11,1694.15 1949.5,1698.5C 1948.26,1699.25 1946.93,1699.58 1945.5,1699.5C 1952.26,1692.28 1959.26,1685.28 1966.5,1678.5 Z"/></g>
<g><path style="opacity:1" fill="#2a1b1e" d="M 1989.5,1654.5 C 1981.88,1662.45 1974.22,1670.45 1966.5,1678.5C 1959.26,1685.28 1952.26,1692.28 1945.5,1699.5C 1941.83,1703.51 1937.83,1707.17 1933.5,1710.5C 1933.67,1708.51 1933,1706.84 1931.5,1705.5C 1934.94,1703.07 1937.61,1700.07 1939.5,1696.5C 1940.68,1696.72 1941.68,1696.39 1942.5,1695.5C 1943.81,1692.53 1945.81,1690.19 1948.5,1688.5C 1950.85,1691.21 1952.85,1690.88 1954.5,1687.5C 1952.6,1686.06 1952.27,1684.4 1953.5,1682.5C 1955.85,1681.02 1958.19,1679.68 1960.5,1678.5C 1960.5,1677.5 1960.5,1676.5 1960.5,1675.5C 1961.5,1675.5 1962.5,1675.5 1963.5,1675.5C 1964.68,1673.19 1966.02,1670.85 1967.5,1668.5C 1969.21,1667.31 1970.71,1667.65 1972,1669.5C 1975.68,1668.06 1976.18,1666.06 1973.5,1663.5C 1975.29,1659.89 1977.62,1659.23 1980.5,1661.5C 1982.32,1660.27 1983.32,1658.61 1983.5,1656.5C 1985.5,1655.83 1987.5,1655.17 1989.5,1654.5 Z"/></g>
<g><path style="opacity:1" fill="#ea1b1c" d="M 1348.5,1527.5 C 1348.83,1527.5 1349.17,1527.5 1349.5,1527.5C 1350.43,1528.31 1351.43,1529.15 1352.5,1530C 1351.43,1530.74 1350.76,1531.74 1350.5,1533C 1351.83,1535 1351.83,1537 1350.5,1539C 1352.43,1541.45 1352.43,1544.11 1350.5,1547C 1350.91,1865.78 1351.24,2183.61 1351.5,2500.5C 1350.5,2500.5 1349.5,2500.5 1348.5,2500.5C 1348.51,2176.01 1348.51,1851.68 1348.5,1527.5 Z"/></g>
<g><path style="opacity:1" fill="#b52427" d="M 1933.5,1712.5 C 1932.2,1716.91 1929.36,1719.91 1925,1721.5C 1922.85,1724.98 1920.35,1728.15 1917.5,1731C 1916.1,1732.44 1914.43,1733.27 1912.5,1733.5C 1918.72,1726.69 1925.05,1719.85 1931.5,1713C 1932.09,1712.54 1932.76,1712.37 1933.5,1712.5 Z"/></g>
<g><path style="opacity:1" fill="#bb2325" d="M 1912.5,1733.5 C 1911.69,1735.8 1910.86,1738.13 1910,1740.5C 1902.85,1743.8 1897.18,1748.8 1893,1755.5C 1892.52,1756.45 1892.35,1757.45 1892.5,1758.5C 1891.45,1758.35 1890.45,1758.52 1889.5,1759C 1887.28,1761.27 1884.94,1763.43 1882.5,1765.5C 1881.26,1766.25 1879.93,1766.58 1878.5,1766.5C 1886.33,1758.73 1894,1750.73 1901.5,1742.5C 1905.21,1739.44 1908.88,1736.44 1912.5,1733.5 Z"/></g>
<g><path style="opacity:1" fill="#c32323" d="M 1878.5,1766.5 C 1878.41,1768.68 1877.75,1770.68 1876.5,1772.5C 1872.12,1776.26 1867.95,1780.26 1864,1784.5C 1863.69,1785.77 1863.19,1786.93 1862.5,1788C 1863.65,1788.91 1863.49,1789.75 1862,1790.5C 1860.42,1790.51 1858.75,1790.17 1857,1789.5C 1855.92,1792.08 1854.09,1793.75 1851.5,1794.5C 1859.83,1784.5 1868.83,1775.17 1878.5,1766.5 Z"/></g>
<g><path style="opacity:1" fill="#0e0e0e" d="M 280.5,1793.5 C 289.149,1812.42 297.816,1831.42 306.5,1850.5C 305.875,1852.53 305.875,1854.36 306.5,1856C 309.5,1861.67 312.5,1867.34 315.5,1873C 315.167,1873.33 314.833,1873.67 314.5,1874C 317.954,1880.41 321.787,1886.58 326,1892.5C 326.671,1893.25 327.504,1893.59 328.5,1893.5C 339.497,1912.83 350.497,1932.16 361.5,1951.5C 359.983,1951.49 358.816,1950.82 358,1949.5C 357.667,1949.83 357.333,1950.17 357,1950.5C 354.754,1946.93 351.587,1944.43 347.5,1943C 345.667,1941.83 344.167,1940.33 343,1938.5C 341.927,1939.28 340.76,1939.11 339.5,1938C 339.833,1937.67 340.167,1937.33 340.5,1937C 336,1934.5 332.5,1931 330,1926.5C 329.667,1926.83 329.333,1927.17 329,1927.5C 324.503,1922.41 319.837,1917.41 315,1912.5C 314.529,1910.75 313.862,1909.09 313,1907.5C 312.667,1907.83 312.333,1908.17 312,1908.5C 310.45,1904.59 307.617,1901.09 303.5,1898C 305.398,1896.02 304.732,1894.36 301.5,1893C 301.833,1892.67 302.167,1892.33 302.5,1892C 301.5,1891.67 300.5,1891.33 299.5,1891C 299.254,1889.94 299.254,1888.77 299.5,1887.5C 298.289,1885.58 296.956,1883.74 295.5,1882C 295.833,1881.67 296.167,1881.33 296.5,1881C 294.49,1877.97 292.49,1874.97 290.5,1872C 290.957,1871.59 291.291,1871.09 291.5,1870.5C 289.439,1865.38 287.439,1860.22 285.5,1855C 286.634,1853.98 286.301,1853.32 284.5,1853C 284.957,1852.59 285.291,1852.09 285.5,1851.5C 284.473,1847.81 283.14,1844.31 281.5,1841C 281.833,1840.67 282.167,1840.33 282.5,1840C 280.572,1831.19 279.239,1822.53 278.5,1814C 279.649,1812.4 279.649,1810.73 278.5,1809C 280.663,1806.48 280.663,1804.14 278.5,1802C 279.167,1801.67 279.833,1801.33 280.5,1801C 280.299,1798.43 280.299,1795.93 280.5,1793.5 Z"/></g>
<g><path style="opacity:1" fill="#a12022" d="M 1851.5,1794.5 C 1851.72,1795.68 1851.39,1796.68 1850.5,1797.5C 1847.86,1799.47 1845.53,1801.81 1843.5,1804.5C 1842.26,1805.25 1840.93,1805.58 1839.5,1805.5C 1843.11,1801.37 1847.11,1797.7 1851.5,1794.5 Z"/></g>
<g><path style="opacity:0.008" fill="#fefffe" d="M 248.5,1848.5 C 247.833,1847.17 247.833,1847.17 248.5,1848.5 Z"/></g>
<g><path style="opacity:0.008" fill="#fefffe" d="M 248.5,1848.5 C 249.833,1849.17 249.833,1849.17 248.5,1848.5 Z"/></g>
<g><path style="opacity:0.008" fill="#fefefe" d="M 250.5,1850.5 C 263.559,1876.95 276.892,1903.28 290.5,1929.5C 286.753,1925.14 282.92,1920.8 279,1916.5C 276.844,1911.34 274.511,1906.34 272,1901.5C 271,1900.17 270,1900.17 269,1901.5C 268.79,1900.2 268.957,1898.86 269.5,1897.5C 269.182,1896.35 268.516,1895.52 267.5,1895C 267.957,1894.59 268.291,1894.09 268.5,1893.5C 267.726,1892.29 266.893,1892.29 266,1893.5C 265.51,1892.21 265.343,1890.87 265.5,1889.5C 264.5,1889.5 263.5,1889.5 262.5,1889.5C 262.554,1885.22 260.554,1882.89 256.5,1882.5C 258.351,1881.13 258.684,1879.47 257.5,1877.5C 256.808,1878.03 256.308,1878.69 256,1879.5C 255.696,1877.56 254.863,1875.89 253.5,1874.5C 254.167,1873.5 254.833,1872.5 255.5,1871.5C 253.627,1872.09 251.96,1871.42 250.5,1869.5C 253.044,1868.06 253.044,1866.56 250.5,1865C 251.687,1863.98 252.687,1862.81 253.5,1861.5C 252.975,1860.81 252.308,1860.31 251.5,1860C 252.38,1858.64 252.714,1857.14 252.5,1855.5C 248.649,1854.82 247.982,1853.15 250.5,1850.5 Z M 270.5,1897.5 C 272.337,1897.64 272.67,1898.31 271.5,1899.5C 270.702,1899.04 270.369,1898.38 270.5,1897.5 Z"/></g>
<g><path style="opacity:1" fill="#2b2b2b" d="M 306.5,1850.5 C 314.085,1864.67 321.418,1879 328.5,1893.5C 327.504,1893.59 326.671,1893.25 326,1892.5C 321.787,1886.58 317.954,1880.41 314.5,1874C 314.833,1873.67 315.167,1873.33 315.5,1873C 312.5,1867.34 309.5,1861.67 306.5,1856C 305.875,1854.36 305.875,1852.53 306.5,1850.5 Z"/></g>
<g><path style="opacity:0.008" fill="#fefffe" d="M 248.5,1856.5 C 249.833,1857.17 249.833,1857.17 248.5,1856.5 Z"/></g>
<g><path style="opacity:0.008" fill="#fefffe" d="M 256.5,1882.5 C 255.833,1883.17 255.833,1883.17 256.5,1882.5 Z"/></g>
<g><path style="opacity:0.008" fill="#fefffe" d="M 269.5,1906.5 C 270.833,1907.17 270.833,1907.17 269.5,1906.5 Z"/></g>
<g><path style="opacity:0.008" fill="#fefffe" d="M 289.5,1932.5 C 290.833,1933.17 290.833,1933.17 289.5,1932.5 Z"/></g>
<g><path style="opacity:0.008" fill="#fefffe" d="M 290.5,1934.5 C 291.833,1935.17 291.833,1935.17 290.5,1934.5 Z"/></g>
<g><path style="opacity:1" fill="#e91d20" d="M 1360.5,2500.5 C 1359.17,2500.5 1357.83,2500.5 1356.5,2500.5C 1356.45,2181.35 1356.11,1864.35 1355.5,1549.5C 1356.24,1546.56 1356.74,1543.56 1357,1540.5C 1358.16,1542.29 1358.83,1544.29 1359,1546.5C 1359.33,1546.17 1359.67,1545.83 1360,1545.5C 1360.17,1595.4 1360.67,1645.24 1361.5,1695C 1360.51,1962.82 1360.18,2231.32 1360.5,2500.5 Z"/></g>
<g><path style="opacity:1" fill="#454545" d="M 519.5,2153.5 C 526.5,2159.83 533.167,2166.5 539.5,2173.5C 538.761,2173.63 538.094,2173.46 537.5,2173C 530.904,2166.91 524.904,2160.41 519.5,2153.5 Z"/></g>
<g><path style="opacity:1" fill="#3a0b10" d="M 2168.5,2153.5 C 2168.63,2154.24 2168.46,2154.91 2168,2155.5C 2161.91,2162.1 2155.41,2168.1 2148.5,2173.5C 2154.83,2166.5 2161.5,2159.83 2168.5,2153.5 Z"/></g>
<g><path style="opacity:0.094" fill="#5f5d5e" d="M 1194.5,2541.5 C 1197.66,2541.99 1200.66,2542.66 1203.5,2543.5C 1200.81,2543.66 1198.15,2543.5 1195.5,2543C 1194.94,2542.62 1194.61,2542.12 1194.5,2541.5 Z"/></g>
<g><path style="opacity:0.078" fill="#646162" d="M 1231.5,2545.5 C 1235.01,2545.9 1238.34,2546.57 1241.5,2547.5C 1238.48,2547.66 1235.48,2547.5 1232.5,2547C 1231.94,2546.62 1231.61,2546.12 1231.5,2545.5 Z"/></g>
<g><path style="opacity:0.055" fill="#7a7779" d="M 1289.5,2549.5 C 1295.35,2549.82 1301.02,2550.48 1306.5,2551.5C 1301.16,2551.67 1295.82,2551.5 1290.5,2551C 1289.94,2550.62 1289.61,2550.12 1289.5,2549.5 Z"/></g>
<g><path style="opacity:0.012" fill="#949192" d="M 1398.5,2549.5 C 1398.08,2550.22 1397.42,2550.72 1396.5,2551C 1390.84,2551.5 1385.18,2551.67 1379.5,2551.5C 1385.66,2550.54 1391.99,2549.87 1398.5,2549.5 Z"/></g>
</svg>
