<?xml version="1.0" encoding="UTF-8"?>
<!DOCTYPE svg PUBLIC "-//W3C//DTD SVG 1.1//EN" "http://www.w3.org/Graphics/SVG/1.1/DTD/svg11.dtd">
<svg xmlns="http://www.w3.org/2000/svg" version="1.1" width="280px" height="280px" viewBox="0 0 1027 380" style="shape-rendering:geometricPrecision; text-rendering:geometricPrecision; image-rendering:optimizeQuality; fill-rule:evenodd; clip-rule:evenodd" xmlns:xlink="http://www.w3.org/1999/xlink">
<g><path style="opacity:0.983" fill="#3b709f" d="M 473.5,-0.5 C 499.833,-0.5 526.167,-0.5 552.5,-0.5C 618.67,2.5007 683.004,15.334 745.5,38C 781.063,51.609 814.063,69.609 844.5,92C 900.5,92.3333 956.5,92.6667 1012.5,93C 1024.73,99.2793 1027.9,108.779 1022,121.5C 1019.74,124.433 1016.9,126.6 1013.5,128C 982.893,129.156 952.226,129.656 921.5,129.5C 891.833,129.333 862.167,129.167 832.5,129C 830.051,128.275 827.717,127.275 825.5,126C 793.954,101.053 758.954,82.0531 720.5,69C 637.903,42.0922 553.237,31.7589 466.5,38C 397.659,41.378 331.659,56.7113 268.5,84C 243.823,94.9922 221.157,108.992 200.5,126C 198.283,127.275 195.949,128.275 193.5,129C 134.167,129.667 74.8333,129.667 15.5,129C 3.60092,125.043 -0.89908,116.876 2,104.5C 3.83333,98.6667 7.66667,94.8333 13.5,93C 69.5,92.6667 125.5,92.3333 181.5,92C 220.262,63.2857 262.928,41.9524 309.5,28C 363.151,11.8923 417.818,2.39233 473.5,-0.5 Z"/></g>
<g><path style="opacity:0.96" fill="#000000" d="M -0.5,141.5 C 19.178,141.167 38.8446,141.5 58.5,142.5C 77.6112,192.39 96.4445,242.39 115,292.5C 134.716,242.691 154.05,192.691 173,142.5C 191.424,141.507 209.924,141.174 228.5,141.5C 197.405,219.029 165.738,296.362 133.5,373.5C 119.5,374.833 105.5,374.833 91.5,373.5C 61.0564,296.965 30.3897,220.632 -0.5,144.5C -0.5,143.5 -0.5,142.5 -0.5,141.5 Z"/></g>
<g><path style="opacity:0.961" fill="#000000" d="M 310.5,141.5 C 325.079,141.176 339.579,141.51 354,142.5C 387.5,219.5 421,296.5 454.5,373.5C 434.833,374.833 415.167,374.833 395.5,373.5C 388.927,357.276 382.26,341.109 375.5,325C 345.828,324.167 316.161,324.333 286.5,325.5C 280.167,341.5 273.833,357.5 267.5,373.5C 248.512,374.5 229.512,374.833 210.5,374.5C 243.053,296.512 276.386,218.845 310.5,141.5 Z M 329.5,211.5 C 339.385,233.791 348.718,256.457 357.5,279.5C 339.5,280.833 321.5,280.833 303.5,279.5C 312.742,257.023 321.408,234.356 329.5,211.5 Z"/></g>
<g><path style="opacity:0.963" fill="#000000" d="M 591.5,379.5 C 580.167,379.5 568.833,379.5 557.5,379.5C 510.729,372.356 483.896,345.356 477,298.5C 476.5,246.168 476.333,193.834 476.5,141.5C 493.833,141.5 511.167,141.5 528.5,141.5C 528.022,193.205 528.522,244.872 530,296.5C 538.375,322.449 556.209,333.949 583.5,331C 603.078,326.422 614.911,314.255 619,294.5C 620.477,243.538 620.977,192.538 620.5,141.5C 637.833,141.5 655.167,141.5 672.5,141.5C 672.667,192.834 672.5,244.168 672,295.5C 666.372,343.959 639.539,371.959 591.5,379.5 Z"/></g>
<g><path style="opacity:0.959" fill="#000000" d="M 720.5,141.5 C 737.833,141.5 755.167,141.5 772.5,141.5C 772.5,202.833 772.5,264.167 772.5,325.5C 803.833,325.5 835.167,325.5 866.5,325.5C 866.5,341.833 866.5,358.167 866.5,374.5C 817.833,374.5 769.167,374.5 720.5,374.5C 720.5,296.833 720.5,219.167 720.5,141.5 Z"/></g>
<g><path style="opacity:0.964" fill="#000000" d="M 1026.5,141.5 C 1026.5,156.833 1026.5,172.167 1026.5,187.5C 1004.5,187.5 982.5,187.5 960.5,187.5C 960.5,249.833 960.5,312.167 960.5,374.5C 943.167,374.5 925.833,374.5 908.5,374.5C 908.5,312.167 908.5,249.833 908.5,187.5C 886.5,187.5 864.5,187.5 842.5,187.5C 842.5,172.167 842.5,156.833 842.5,141.5C 903.833,141.5 965.167,141.5 1026.5,141.5 Z"/></g>
</svg>
