<svg width="50" height="44" viewBox="0 0 50 44" fill="none" xmlns="http://www.w3.org/2000/svg">
<path d="M43.75 0.625H6.25V43.375H43.75V0.625Z" fill="#F1F5F7"/>
<path opacity="0.05" d="M25.0002 26.5753L6.25018 43.3749L5.30042 8.0293L25.0002 26.5753Z" fill="black"/>
<path opacity="0.15" d="M6.61771 10.4741L32.5062 43.3749H43.842L44.6998 8.0293L24.1729 21.5109L6.61771 10.4741Z" fill="url(#paint0_linear_50_620)"/>
<path d="M45.3125 0.625H43.75L25 17.5643L6.25 0.625H4.6875C3.44678 0.634155 2.25915 1.20009 1.38181 2.20026C0.50447 3.20043 0.00803082 4.55433 0 5.96875V38.0313C0.00803082 39.4457 0.50447 40.7996 1.38181 41.7997C2.25915 42.7999 3.44678 43.3659 4.6875 43.375H6.25V10.0901L25 26.5754L43.75 10.0901V43.375H45.3125C46.5532 43.3659 47.7408 42.7999 48.6182 41.7997C49.4955 40.7996 49.992 39.4457 50 38.0313V5.96875C49.992 4.55433 49.4955 3.20043 48.6182 2.20026C47.7408 1.20009 46.5532 0.634155 45.3125 0.625V0.625Z" fill="#F84437"/>
<defs>
<linearGradient id="paint0_linear_50_620" x1="12.255" y1="9.04216" x2="47.5566" y2="26.1731" gradientUnits="userSpaceOnUse">
<stop offset="0.01"/>
<stop offset="1" stop-color="#E6E6E6"/>
</linearGradient>
</defs>
</svg>
